<svg width="1679" height="482" xmlns="http://www.w3.org/2000/svg" xmlns:xlink="http://www.w3.org/1999/xlink" xml:space="preserve" overflow="hidden"><defs><clipPath id="clip0"><rect x="349" y="570" width="1679" height="482"/></clipPath><linearGradient x1="910.5" y1="995.5" x2="910.5" y2="889.5" gradientUnits="userSpaceOnUse" spreadMethod="reflect" id="fill1"><stop offset="0" stop-color="#BDD7EE"/><stop offset="0.16" stop-color="#BDD7EE"/><stop offset="0.5" stop-color="#2E75B6" stop-opacity="0.74902"/><stop offset="0.85" stop-color="#BDD7EE"/><stop offset="1" stop-color="#BDD7EE"/></linearGradient><linearGradient x1="377.5" y1="1051.5" x2="377.5" y2="834.5" gradientUnits="userSpaceOnUse" spreadMethod="reflect" id="fill2"><stop offset="0" stop-color="#BFBFBF"/><stop offset="0.16" stop-color="#BFBFBF"/><stop offset="0.5" stop-color="#7F7F7F"/><stop offset="0.85" stop-color="#BFBFBF"/><stop offset="1" stop-color="#BFBFBF"/></linearGradient></defs><g clip-path="url(#clip0)" transform="translate(-349 -570)"><rect x="405.5" y="889.5" width="1010" height="106" stroke="#000000" stroke-width="1.14583" stroke-miterlimit="8" fill="url(#fill1)"/><rect x="349.5" y="834.5" width="56" height="217" stroke="#41719C" stroke-width="1.14583" stroke-miterlimit="8" fill="url(#fill2)"/><path d="M1584.56 946.982 1433.81 946.051 1433.85 939.176 1584.6 940.107ZM1433.83 942.613 1442.91 956.42 1415.5 942.5 1443.08 928.92Z"/><path d="M1627.63 920.282C1625.95 920.282 1624.19 920.322 1622.36 920.403L1616.85 944.963 1621.06 944.963C1624.33 944.963 1626.97 944.625 1628.98 943.95 1631 943.274 1632.64 942.227 1633.93 940.809 1635.21 939.391 1636.2 937.709 1636.91 935.763 1637.61 933.818 1637.96 931.684 1637.96 929.36 1637.96 926.226 1637.16 923.929 1635.57 922.47 1633.98 921.011 1631.33 920.282 1627.63 920.282ZM1610.64 916.715 1628.52 916.715C1631.73 916.715 1634.37 916.965 1636.44 917.465 1638.51 917.965 1640.21 918.735 1641.55 919.775 1642.88 920.815 1643.88 922.133 1644.55 923.727 1645.21 925.321 1645.54 927.172 1645.54 929.279 1645.54 933.332 1644.58 936.844 1642.66 939.816 1640.74 942.788 1638.14 944.977 1634.86 946.381 1631.58 947.786 1627.64 948.489 1623.05 948.489 1620.29 948.489 1617.99 948.435 1616.16 948.327L1613.56 960.242C1613.32 961.35 1613.15 962.201 1613.06 962.795 1612.96 963.389 1612.88 964.031 1612.81 964.72 1612.75 965.409 1612.71 966.024 1612.71 966.564 1612.71 967.402 1612.85 968.057 1613.12 968.53 1613.39 969.003 1613.79 969.347 1614.33 969.563 1614.87 969.779 1615.81 969.941 1617.13 970.049L1616.68 972.035 1600.03 972.035 1600.47 970.049C1601.5 969.887 1602.27 969.624 1602.78 969.259 1603.3 968.894 1603.73 968.388 1604.08 967.739 1604.43 967.091 1604.75 966.301 1605.05 965.369 1605.35 964.436 1605.8 962.633 1606.39 959.958L1613.28 928.752C1613.87 926.05 1614.17 923.916 1614.17 922.349 1614.17 921.025 1613.86 920.106 1613.24 919.593 1612.62 919.08 1611.6 918.782 1610.2 918.701Z" fill-rule="evenodd"/><text fill="#000000" fill-opacity="0" font-family="Arial,Arial_MSFontService,sans-serif" font-size="55.3198" x="1600.03" y="965.12">𝑃</text><path d="M1.38651e-05-3.4375 71.1406-3.43721 71.1406 3.43779-1.38651e-05 3.4375ZM71.1405 0.000286945 61.9739-13.7498 89.4739 0.000360892 61.9738 13.7502Z" transform="matrix(-1 0 0 1 1403.97 942.5)"/><path d="M1.38651e-05-3.4375 71.1406-3.43721 71.1406 3.43779-1.38651e-05 3.4375ZM71.1405 0.000286945 61.9739-13.7498 89.4739 0.000360892 61.9738 13.7502Z" transform="matrix(-1 0 0 1 1290.97 942.5)"/><path d="M1.38651e-05-3.4375 71.1406-3.43721 71.1406 3.43779-1.38651e-05 3.4375ZM71.1405 0.000286945 61.9739-13.7498 89.4739 0.000360892 61.9738 13.7502Z" transform="matrix(-1 0 0 1 1178.97 942.5)"/><path d="M1.38651e-05-3.4375 71.1406-3.43721 71.1406 3.43779-1.38651e-05 3.4375ZM71.1405 0.000286945 61.9739-13.7498 89.4739 0.000360892 61.9738 13.7502Z" transform="matrix(-1 0 0 1 1066.97 942.5)"/><path d="M1.38651e-05-3.4375 71.1406-3.43721 71.1406 3.43779-1.38651e-05 3.4375ZM71.1405 0.000286945 61.9739-13.7498 89.4739 0.000360892 61.9738 13.7502Z" transform="matrix(-1 0 0 1 954.974 942.5)"/><path d="M1.38651e-05-3.4375 71.1406-3.43721 71.1406 3.43779-1.38651e-05 3.4375ZM71.1405 0.000286945 61.9739-13.7498 89.4739 0.000360892 61.9738 13.7502Z" transform="matrix(-1 0 0 1 842.974 942.5)"/><path d="M1.38651e-05-3.4375 71.1406-3.43721 71.1406 3.43779-1.38651e-05 3.4375ZM71.1405 0.000286945 61.9739-13.7498 89.4739 0.000360892 61.9738 13.7502Z" transform="matrix(-1 0 0 1 730.974 942.5)"/><path d="M1.38651e-05-3.4375 71.1406-3.43721 71.1406 3.43779-1.38651e-05 3.4375ZM71.1405 0.000286945 61.9739-13.7498 89.4739 0.000360892 61.9738 13.7502Z" transform="matrix(-1 0 0 1 618.974 942.5)"/><path d="M1.38651e-05-3.4375 71.1406-3.43721 71.1406 3.43779-1.38651e-05 3.4375ZM71.1405 0.000286945 61.9739-13.7498 89.4739 0.000360892 61.9738 13.7502Z" transform="matrix(-1 0 0 1 505.974 942.5)"/><path d="M884.945 809.786C882.19 809.786 879.717 810.901 877.529 813.13 875.341 815.359 873.618 818.365 872.362 822.147 871.105 825.93 870.477 829.699 870.477 833.454 870.477 836.264 870.862 838.365 871.632 839.756 872.402 841.148 873.692 841.843 875.503 841.843 876.34 841.843 877.191 841.661 878.056 841.296 878.92 840.932 879.819 840.344 880.751 839.533 881.683 838.723 882.602 837.737 883.507 836.575 884.412 835.413 885.243 834.245 885.999 833.069 886.756 831.894 887.458 830.503 888.107 828.895 888.755 827.287 889.309 825.349 889.768 823.079L890.133 821.337C890.538 819.391 890.741 817.554 890.741 815.825 890.741 813.717 890.295 812.184 889.404 811.225 888.512 810.266 887.026 809.786 884.945 809.786ZM884.216 806.585C885.891 806.585 887.485 806.781 888.998 807.172 890.511 807.564 892.078 808.26 893.699 809.259L897.428 806.585 900.022 807.233 889.647 853.313C889.187 855.366 888.958 856.906 888.958 857.933 888.958 859.122 889.262 859.966 889.87 860.466 890.477 860.966 891.673 861.297 893.456 861.459L893.091 863.445 880.447 863.445 887.418 836.859 886.85 836.615C884.527 839.885 882.156 842.37 879.738 844.072 877.32 845.775 874.962 846.626 872.666 846.626 869.694 846.626 867.39 845.504 865.756 843.262 864.121 841.019 863.304 837.872 863.304 833.819 863.304 829.172 864.216 824.707 866.039 820.425 867.863 816.142 870.369 812.765 873.557 810.293 876.745 807.821 880.298 806.585 884.216 806.585Z" fill-rule="evenodd"/><text fill="#000000" fill-opacity="0" font-family="Arial,Arial_MSFontService,sans-serif" font-size="56.8599" x="863.304" y="856.337">𝑞</text><path d="M922.892 835.4C921.78 835.4 920.738 835.648 919.765 836.144 918.792 836.641 917.898 837.326 917.084 838.199 916.27 839.073 915.54 840.106 914.895 841.297 914.249 842.488 913.703 843.769 913.257 845.139 912.81 846.509 912.467 847.939 912.229 849.428 911.991 850.918 911.872 852.407 911.872 853.896 911.872 856.18 912.343 857.863 913.286 858.945 914.23 860.027 915.664 860.568 917.59 860.568 918.663 860.568 919.675 860.305 920.628 859.779 921.582 859.253 922.455 858.543 923.25 857.649 924.044 856.756 924.754 855.708 925.379 854.507 926.005 853.305 926.536 852.02 926.973 850.65 927.409 849.279 927.742 847.865 927.97 846.405 928.199 844.946 928.313 843.521 928.313 842.131 928.313 839.927 927.876 838.254 927.002 837.112 926.129 835.97 924.759 835.4 922.892 835.4ZM923.458 832.451C925.245 832.451 926.809 832.739 928.149 833.315 929.49 833.891 930.606 834.67 931.5 835.653 932.394 836.636 933.064 837.792 933.51 839.123 933.957 840.453 934.181 841.873 934.181 843.382 934.181 846.4 933.734 849.135 932.84 851.588 931.947 854.04 930.711 856.145 929.132 857.902 927.553 859.66 925.697 861.015 923.562 861.968 921.428 862.921 919.109 863.398 916.607 863.398 914.959 863.398 913.48 863.149 912.169 862.653 910.859 862.157 909.747 861.442 908.833 860.508 907.92 859.575 907.22 858.448 906.734 857.128 906.247 855.807 906.004 854.313 906.004 852.645 906.004 849.826 906.446 847.19 907.329 844.737 908.213 842.285 909.434 840.15 910.993 838.333 912.552 836.517 914.393 835.082 916.518 834.029 918.643 832.977 920.956 832.451 923.458 832.451Z" fill-rule="evenodd"/><text fill="#000000" fill-opacity="0" font-family="Arial,Arial_MSFontService,sans-serif" font-size="30.9468" x="906.004" y="859.529">𝑜</text><path d="M402.286 842.795 402 637" stroke="#7F7F7F" stroke-width="2.29167" stroke-miterlimit="8" fill="none" fill-rule="evenodd"/><path d="M1019 668.854 1393.76 668.854 1393.76 671.146 1019 671.146ZM1393.76 670 1384.59 656.25 1412.09 670 1384.59 683.75Z" fill="#7F7F7F"/><path d="M1414.71 893.948 1412 638" stroke="#7F7F7F" stroke-width="2.29167" stroke-miterlimit="8" fill="none" fill-rule="evenodd"/><path d="M1.05198e-06-1.14583 374.757-1.14549 374.757 1.14618-1.05198e-06 1.14583ZM374.757 0.000344061 365.59-13.7497 393.09 0.000360892 365.59 13.7503Z" fill="#7F7F7F" transform="matrix(-1 0 0 1 795.09 670)"/><path d="M902.401 644.76 918.612 644.76 918.167 646.746C917.14 646.962 916.404 647.205 915.958 647.475 915.512 647.745 915.114 648.151 914.762 648.691 914.411 649.231 914.046 650.076 913.668 651.224 913.29 652.372 912.817 654.243 912.25 656.837L903.577 696.351 913.546 696.351C915.357 696.351 916.782 696.176 917.822 695.824 918.862 695.473 919.848 694.831 920.781 693.899 921.713 692.967 922.625 691.704 923.516 690.11 924.408 688.516 925.313 686.53 926.232 684.153L930.163 684.153 926.069 700.08 891.783 700.08 892.229 698.094C893.256 697.932 894.026 697.668 894.539 697.304 895.052 696.939 895.485 696.432 895.836 695.784 896.187 695.135 896.511 694.345 896.809 693.413 897.106 692.481 897.552 690.677 898.146 688.003L905.036 656.797C905.63 654.095 905.927 651.92 905.927 650.272 905.927 649.002 905.61 648.117 904.975 647.617 904.34 647.117 903.334 646.827 901.956 646.746Z" fill-rule="evenodd"/><text fill="#000000" fill-opacity="0" font-family="Arial,Arial_MSFontService,sans-serif" font-size="55.3198" x="891.783" y="693.165">𝐿</text><path d="M0.92333-0.678525 86.9319 116.361 85.0853 117.718-0.92333 0.678525ZM-11.08 8.1423C-15.5768 2.02301-14.2616-6.58308-8.1423-11.08-2.02301-15.5768 6.58308-14.2616 11.08-8.1423 15.5768-2.02301 14.2616 6.58308 8.1423 11.08 2.02301 15.5768-6.58308 14.2616-11.08 8.1423Z" transform="matrix(1 0 0 -1 404 942.04)"/><path d="M107 0C166.095-2.72451e-14 214 30.6686 214 68.5002" stroke="#000000" stroke-width="2.29167" stroke-miterlimit="8" fill="none" fill-rule="evenodd" transform="matrix(-1 0 0 1 1276 846)"/><path d="M1167.91 766.189 1153.48 791.721 1169.32 791.721 1168.64 778.671C1168.55 776.888 1168.49 774.659 1168.43 771.984 1168.38 769.309 1168.35 767.377 1168.35 766.189ZM1168.15 757.637 1174.27 757.637 1177.19 802.825C1177.32 804.96 1177.57 806.628 1177.92 807.831 1178.27 809.033 1178.75 809.924 1179.36 810.505 1179.96 811.086 1180.85 811.458 1182.01 811.62L1181.56 813.606 1164.7 813.606 1165.15 811.62C1166.74 811.485 1167.93 810.863 1168.72 809.756 1169.5 808.648 1169.89 806.703 1169.89 803.92 1169.89 802.866 1169.85 801.718 1169.77 800.475L1169.49 795.247 1151.65 795.247 1149.43 799.218C1148.37 801.083 1147.6 802.684 1147.12 804.021 1146.63 805.358 1146.39 806.54 1146.39 807.567 1146.39 809.837 1147.75 811.188 1150.48 811.62L1150.03 813.606 1133.46 813.606 1133.9 811.62C1134.74 811.512 1135.53 811.181 1136.27 810.627 1137.02 810.073 1137.81 809.235 1138.65 808.114 1139.48 806.993 1140.66 805.135 1142.17 802.542Z" fill-rule="evenodd"/><text fill="#000000" fill-opacity="0" font-family="Arial,Arial_MSFontService,sans-serif" font-size="55.9683" x="1133.46" y="806.61">𝐴</text><path d="M1192.35 804.203 1199.45 804.203C1199.82 806.095 1200.01 807.959 1200.01 809.796 1200.01 811.687 1199.69 813.417 1199.04 814.984 1198.39 816.551 1197.36 818.111 1195.94 819.664 1194.52 821.218 1192.57 822.927 1190.08 824.791L1187.9 822.319C1189.27 821.022 1190.27 819.854 1190.89 818.813 1191.52 817.773 1191.96 816.591 1192.23 815.267 1192.5 813.943 1192.64 812.282 1192.64 810.282 1192.64 808.229 1192.54 806.203 1192.35 804.203Z" fill-rule="evenodd"/><text fill="#000000" fill-opacity="0" font-family="Arial,Arial_MSFontService,sans-serif" font-size="20.5879" x="1187.9" y="822.218">,</text><path d="M1230.79 758.286 1268.07 758.286 1265.28 770.728 1261.39 770.728C1261.28 768.377 1261.08 766.607 1260.78 765.419 1260.48 764.23 1260.12 763.413 1259.7 762.967 1259.29 762.521 1258.79 762.224 1258.2 762.075 1257.62 761.927 1256.79 761.852 1255.71 761.852L1242.5 761.852 1237.88 783.089 1245.62 783.089C1247.54 783.089 1249.01 782.636 1250.02 781.731 1251.03 780.826 1252.05 779.333 1253.08 777.253L1256.77 777.253 1253.12 792.815 1249.67 792.815C1249.67 790.654 1249.54 789.188 1249.27 788.418 1249 787.648 1248.6 787.162 1248.07 786.959 1247.55 786.756 1246.59 786.655 1245.22 786.655L1237.11 786.655 1231.92 810.039 1243.92 810.039C1245.51 810.039 1246.78 809.877 1247.71 809.553 1248.64 809.229 1249.52 808.702 1250.34 807.972 1251.17 807.243 1251.99 806.223 1252.81 804.913 1253.64 803.602 1254.62 801.826 1255.75 799.583L1259.68 799.583 1256.12 813.606 1220.17 813.606 1220.62 811.62C1221.64 811.458 1222.41 811.194 1222.93 810.83 1223.44 810.465 1223.87 809.958 1224.22 809.31 1224.57 808.661 1224.9 807.871 1225.2 806.939 1225.49 806.007 1225.94 804.203 1226.53 801.529L1233.42 770.322C1234.02 767.621 1234.31 765.446 1234.31 763.798 1234.31 762.528 1234 761.643 1233.36 761.143 1232.73 760.643 1231.72 760.353 1230.34 760.272Z" fill-rule="evenodd"/><text fill="#000000" fill-opacity="0" font-family="Arial,Arial_MSFontService,sans-serif" font-size="55.3198" x="1220.17" y="806.691">𝐸</text><path d="M1278.08 804.203 1285.18 804.203C1285.55 806.095 1285.74 807.959 1285.74 809.796 1285.74 811.687 1285.42 813.417 1284.77 814.984 1284.12 816.551 1283.09 818.111 1281.67 819.664 1280.25 821.218 1278.3 822.927 1275.81 824.791L1273.63 822.319C1275 821.022 1276 819.854 1276.63 818.813 1277.25 817.773 1277.69 816.591 1277.96 815.267 1278.23 813.943 1278.37 812.282 1278.37 810.282 1278.37 808.229 1278.27 806.203 1278.08 804.203Z" fill-rule="evenodd"/><text fill="#000000" fill-opacity="0" font-family="Arial,Arial_MSFontService,sans-serif" font-size="20.5879" x="1273.63" y="822.218">,</text><path d="M1329 777.415C1326.52 777.415 1324.21 778.522 1322.07 780.738 1319.94 782.953 1318.23 785.953 1316.94 789.735 1315.66 793.518 1315.02 797.395 1315.02 801.366 1315.02 804.095 1315.43 806.122 1316.24 807.445 1317.05 808.769 1318.26 809.431 1319.88 809.431 1322.21 809.431 1324.6 808.067 1327.06 805.338 1329.52 802.609 1331.8 798.813 1333.91 793.95 1334.36 791.14 1334.59 788.654 1334.59 786.493 1334.59 783.413 1334.14 781.13 1333.24 779.644 1332.33 778.158 1330.92 777.415 1329 777.415ZM1329.29 774.213C1332.31 774.213 1334.68 775.159 1336.4 777.05 1338.11 778.941 1339.07 781.711 1339.26 785.358L1339.62 785.318 1344.93 774.862 1351.94 774.862 1351.53 776.928C1348.18 781.467 1344.24 787.047 1339.7 793.666 1339.03 798.827 1338.69 802.474 1338.69 804.609 1338.69 806.392 1338.89 807.668 1339.3 808.438 1339.7 809.208 1340.38 809.593 1341.32 809.593 1342.08 809.593 1342.94 809.276 1343.9 808.641 1344.85 808.006 1345.89 807.027 1347 805.703L1349.35 807.891C1347.08 810.323 1345.1 811.991 1343.43 812.896 1341.75 813.802 1340.03 814.254 1338.24 814.254 1334.65 814.254 1332.85 811.633 1332.85 806.392 1332.85 805.23 1332.93 803.947 1333.09 802.542L1332.69 802.542C1329.91 806.703 1327.27 809.695 1324.79 811.518 1322.3 813.342 1319.64 814.254 1316.8 814.254 1314.83 814.254 1313.17 813.687 1311.82 812.552 1310.47 811.417 1309.47 809.911 1308.82 808.033 1308.17 806.155 1307.85 804.109 1307.85 801.893 1307.85 797.057 1308.77 792.471 1310.6 788.134 1312.44 783.798 1314.99 780.393 1318.26 777.921 1321.53 775.449 1325.21 774.213 1329.29 774.213Z" fill-rule="evenodd"/><text fill="#000000" fill-opacity="0" font-family="Arial,Arial_MSFontService,sans-serif" font-size="40.041" x="1307.85" y="809.249">𝛼</text><path d="M537.424 765.713C538.945 765.713 540.145 766.224 541.025 767.246 541.904 768.267 542.343 769.646 542.343 771.38 542.343 773.258 541.975 775.598 541.238 778.402L539.67 784.569C539.266 786.137 538.975 787.361 538.797 788.24 538.619 789.119 538.488 789.88 538.405 790.521 538.322 791.163 538.28 791.698 538.28 792.125 538.28 793.765 538.553 794.947 539.1 795.672 539.646 796.397 540.537 796.759 541.773 796.759 542.771 796.759 543.846 796.361 544.999 795.565 546.151 794.769 547.375 793.569 548.67 791.965 549.965 790.361 551.005 788.805 551.789 787.296 552.573 785.787 553.215 783.927 553.714 781.717L557.1 766.283 563.267 766.283 558.063 788.882C557.54 791.163 557.279 792.922 557.279 794.157 557.279 795.108 557.433 795.797 557.742 796.225 558.051 796.652 558.538 796.866 559.203 796.866 559.916 796.866 560.677 796.575 561.485 795.993 562.292 795.411 563.433 794.3 564.906 792.66L566.938 794.656C564.776 796.961 562.934 798.589 561.413 799.54 559.892 800.49 558.277 800.965 556.566 800.965 555.092 800.965 553.916 800.478 553.037 799.504 552.158 798.53 551.718 797.235 551.718 795.619 551.718 794.335 552.003 792.933 552.573 791.413L552.146 791.27C549.793 794.573 547.565 797.009 545.462 798.577 543.359 800.146 541.203 800.93 538.993 800.93 536.783 800.93 535.084 800.294 533.896 799.023 532.708 797.751 532.113 795.987 532.113 793.729 532.113 792.232 532.458 790.106 533.147 787.349L535.464 778.01C536.106 775.42 536.426 773.59 536.426 772.521 536.426 771.57 536.272 770.881 535.963 770.454 535.654 770.026 535.167 769.812 534.502 769.812 533.765 769.812 532.987 770.115 532.167 770.721 531.347 771.327 530.224 772.426 528.799 774.018L526.767 772.022C528.787 769.978 530.307 768.576 531.329 767.816 532.351 767.055 533.331 766.515 534.27 766.194 535.209 765.873 536.26 765.713 537.424 765.713Z" fill-rule="evenodd"/><text fill="#000000" fill-opacity="0" font-family="Arial,Arial_MSFontService,sans-serif" font-size="35.2524" x="526.767" y="796.559">𝑢</text><path d="M595.274 784.569 639.188 784.569 639.188 789.31 595.274 789.31ZM595.274 769.776 639.188 769.776 639.188 774.517 595.274 774.517Z" fill-rule="evenodd"/><text fill="#000000" fill-opacity="0" font-family="Arial,Arial_MSFontService,sans-serif" font-size="19.5332" x="595.274" y="786.868">=</text><path d="M685.547 754.2C683.907 754.2 682.535 754.687 681.43 755.661 680.325 756.635 679.434 758.037 678.756 759.867 678.079 761.697 677.598 763.925 677.313 766.551 677.028 769.176 676.885 772.141 676.885 775.444 676.885 783.191 677.604 788.876 679.042 792.5 680.479 796.124 682.707 797.936 685.725 797.936 688.6 797.936 690.733 796.231 692.123 792.821 693.513 789.411 694.208 784.129 694.208 776.977 694.208 771.511 693.852 767.085 693.139 763.699 692.426 760.313 691.434 757.883 690.163 756.41 688.891 754.936 687.353 754.2 685.547 754.2ZM685.725 751.17C690.929 751.17 694.802 753.178 697.345 757.194 699.888 761.21 701.159 767.281 701.159 775.408 701.159 783.82 699.799 790.183 697.078 794.496 694.357 798.809 690.383 800.965 685.155 800.965 680.022 800.965 676.202 798.945 673.695 794.906 671.188 790.866 669.934 784.735 669.934 776.513 669.934 772.141 670.321 768.362 671.093 765.178 671.865 761.994 672.946 759.362 674.337 757.283 675.727 755.204 677.396 753.665 679.345 752.667 681.293 751.669 683.42 751.17 685.725 751.17Z" fill-rule="evenodd"/><text fill="#000000" fill-opacity="0" font-family="Arial,Arial_MSFontService,sans-serif" font-size="49.7954" x="669.934" y="794.741">0</text><path d="M1541.47 603.246 1526.03 643.773 1554.23 643.773ZM1540.05 594.289 1546.05 594.289 1563.15 647.664 1563.15 650.258 1518.85 650.258 1518.85 647.664Z" fill-rule="evenodd"/><text fill="#000000" fill-opacity="0" font-family="Arial,Arial_MSFontService,sans-serif" font-size="55.9683" x="1518.85" y="643.261">∆</text><path d="M1571.93 594.938 1614.24 594.938 1611.08 609.203 1607.19 609.203C1607.19 606.583 1607.12 604.617 1606.99 603.307 1606.85 601.996 1606.6 600.997 1606.22 600.308 1605.84 599.619 1605.38 599.146 1604.82 598.889 1604.27 598.632 1603.29 598.504 1601.88 598.504L1595.89 598.504 1587.09 638.464C1586.85 639.518 1586.68 640.355 1586.58 640.977 1586.49 641.598 1586.41 642.253 1586.34 642.942 1586.27 643.631 1586.24 644.246 1586.24 644.786 1586.24 645.624 1586.37 646.279 1586.64 646.752 1586.91 647.225 1587.32 647.569 1587.86 647.785 1588.4 648.001 1589.33 648.164 1590.66 648.272L1590.21 650.258 1573.15 650.258 1573.59 648.272C1574.68 648.11 1575.47 647.893 1575.99 647.623 1576.5 647.353 1576.95 646.934 1577.34 646.367 1577.74 645.799 1578.13 644.908 1578.52 643.692 1578.91 642.476 1579.38 640.639 1579.92 638.18L1588.59 598.504 1583.44 598.504C1581.77 598.504 1580.43 598.747 1579.43 599.234 1578.43 599.72 1577.43 600.625 1576.43 601.949 1575.43 603.273 1574.22 605.488 1572.78 608.595L1568.89 608.595Z" fill-rule="evenodd"/><text fill="#000000" fill-opacity="0" font-family="Arial,Arial_MSFontService,sans-serif" font-size="55.3198" x="1568.89" y="643.343">𝑇</text><path d="M0.00354015-0.572906 146.166 0.330272 146.158 1.47608-0.00354015 0.572906ZM141.664-12.8749 169.078 1.04478 141.494 14.6246Z" transform="matrix(1 0 0 -1 1778.5 945.545)"/><path d="M1975.78 932.218C1976.62 932.218 1977.36 932.313 1977.99 932.502 1978.62 932.691 1979.19 932.981 1979.67 933.373 1980.16 933.765 1980.59 934.272 1980.97 934.893 1981.35 935.514 1981.71 936.359 1982.06 937.426 1982.41 938.493 1982.75 939.817 1983.06 941.398 1983.37 942.978 1983.64 944.62 1983.89 946.322L1984.29 946.322C1986.89 942.674 1988.85 940.006 1990.19 938.318 1991.53 936.629 1992.65 935.373 1993.57 934.549 1994.49 933.724 1995.38 933.144 1996.23 932.806 1997.08 932.468 1998.21 932.299 1999.61 932.299 2000.88 932.299 2001.92 932.461 2002.73 932.786L2001.11 940.121 1998.27 940.121C1998.11 938.986 1997.64 938.419 1996.86 938.419 1996.61 938.419 1996.36 938.459 1996.09 938.54 1995.82 938.622 1995.48 938.797 1995.09 939.067 1994.7 939.338 1994.13 939.864 1993.37 940.648 1992.61 941.431 1991.76 942.391 1990.82 943.525 1989.87 944.66 1988.9 945.849 1987.9 947.092L1985.14 950.537C1985.63 953.13 1986.09 955.373 1986.52 957.264 1986.95 959.155 1987.34 960.729 1987.68 961.986 1988.01 963.242 1988.31 964.235 1988.57 964.964 1988.82 965.694 1989.1 966.241 1989.4 966.606 1989.7 966.97 1990 967.227 1990.31 967.376 1990.62 967.524 1990.98 967.599 1991.38 967.599 1992.11 967.599 1992.82 967.315 1993.51 966.747 1994.2 966.18 1995.19 964.897 1996.49 962.897L1999.12 964.64C1997.23 967.45 1995.52 969.429 1994 970.577 1992.47 971.726 1990.65 972.3 1988.55 972.3 1987.39 972.3 1986.4 972.09 1985.59 971.672 1984.78 971.253 1984.08 970.584 1983.48 969.665 1982.89 968.747 1982.36 967.315 1981.9 965.37 1981.06 961.911 1980.55 959.263 1980.36 957.426L1979.96 957.426C1977.09 961.452 1974.96 964.343 1973.57 966.099 1972.18 967.855 1971.03 969.152 1970.13 969.99 1969.22 970.827 1968.34 971.415 1967.49 971.753 1966.64 972.09 1965.51 972.259 1964.11 972.259 1962.84 972.259 1961.8 972.097 1960.99 971.773L1962.61 964.437 1965.45 964.437C1965.61 965.572 1966.08 966.14 1966.87 966.14 1967.24 966.14 1967.64 966.038 1968.06 965.836 1968.48 965.633 1969.08 965.147 1969.86 964.377 1970.65 963.607 1971.73 962.398 1973.11 960.749 1974.48 959.101 1976.48 956.629 1979.1 953.333 1978.7 951.198 1978.28 949.145 1977.85 947.173 1977.42 945.2 1976.97 943.363 1976.51 941.661 1976.05 939.959 1975.67 938.844 1975.38 938.318 1975.08 937.791 1974.76 937.426 1974.42 937.223 1974.09 937.021 1973.66 936.919 1973.15 936.919 1972.58 936.919 1972.07 937.048 1971.61 937.304 1971.15 937.561 1970.65 938.007 1970.11 938.642 1969.57 939.277 1968.85 940.27 1967.96 941.621L1965.33 939.878C1967.03 937.311 1968.66 935.393 1970.23 934.123 1971.8 932.853 1973.65 932.218 1975.78 932.218Z" fill-rule="evenodd"/><text fill="#000000" fill-opacity="0" font-family="Arial,Arial_MSFontService,sans-serif" font-size="40.0815" x="1960.99" y="967.29">𝑥</text></g></svg>