<svg width="305" height="367" xmlns="http://www.w3.org/2000/svg" xmlns:xlink="http://www.w3.org/1999/xlink" xml:space="preserve" overflow="hidden"><defs><linearGradient x1="615.5" y1="380.5" x2="646.5" y2="380.5" gradientUnits="userSpaceOnUse" spreadMethod="reflect" id="fill0"><stop offset="0" stop-color="#BDD7EE"/><stop offset="0.16" stop-color="#BDD7EE"/><stop offset="0.5" stop-color="#2E75B6" stop-opacity="0.74902"/><stop offset="0.85" stop-color="#BDD7EE"/><stop offset="1" stop-color="#BDD7EE"/></linearGradient><linearGradient x1="599.5" y1="225.5" x2="662.5" y2="225.5" gradientUnits="userSpaceOnUse" spreadMethod="reflect" id="fill1"><stop offset="0" stop-color="#BFBFBF"/><stop offset="0.16" stop-color="#BFBFBF"/><stop offset="0.5" stop-color="#7F7F7F"/><stop offset="0.85" stop-color="#BFBFBF"/><stop offset="1" stop-color="#BFBFBF"/></linearGradient><linearGradient x1="599.5" y1="534.5" x2="662.5" y2="534.5" gradientUnits="userSpaceOnUse" spreadMethod="reflect" id="fill2"><stop offset="0" stop-color="#BFBFBF"/><stop offset="0.16" stop-color="#BFBFBF"/><stop offset="0.5" stop-color="#7F7F7F"/><stop offset="0.85" stop-color="#BFBFBF"/><stop offset="1" stop-color="#BFBFBF"/></linearGradient></defs><g transform="translate(-487 -176)"><text font-family="Cambria Math,Cambria Math_MSFontService,sans-serif" font-weight="400" font-size="24" transform="translate(766.04 387)">𝐿</text><text font-family="Cambria Math,Cambria Math_MSFontService,sans-serif" font-weight="400" font-size="24" transform="translate(495.546 285)">𝜌</text><text font-family="Cambria Math,Cambria Math_MSFontService,sans-serif" font-weight="400" font-size="24" transform="translate(509.339 285)">,</text><text font-family="Cambria Math,Cambria Math_MSFontService,sans-serif" font-weight="400" font-size="24" transform="translate(518.339 285)">𝐴</text><text font-family="Cambria Math,Cambria Math_MSFontService,sans-serif" font-weight="400" font-size="24" transform="translate(533.739 285)">,</text><text font-family="Cambria Math,Cambria Math_MSFontService,sans-serif" font-weight="400" font-size="24" transform="translate(542.739 285)">𝛼</text><text font-family="Cambria Math,Cambria Math_MSFontService,sans-serif" font-weight="400" font-size="24" transform="translate(557.799 285)">,</text><text font-family="Cambria Math,Cambria Math_MSFontService,sans-serif" font-weight="400" font-size="24" transform="translate(566.799 285)">𝐸</text><path d="M615.5 233.5 646.5 233.5 646.5 527.5 615.5 527.5Z" stroke="#000000" stroke-width="0.333333" stroke-miterlimit="8" fill="url(#fill0)"/><path d="M599.5 217.5 662.5 217.5 662.5 233.5 599.5 233.5Z" stroke="#41719C" stroke-width="0.333333" stroke-miterlimit="8" fill="url(#fill1)"/><path d="M0.00617918-0.999981 43.8594-0.728999 43.847 1.27096-0.00617918 0.999981ZM43.8531 0.270981 41.2112-3.74542 49.1864 0.303937 41.1618 4.25443Z" transform="matrix(6.12323e-17 1 1 -6.12323e-17 554 343)"/><text font-family="Cambria Math,Cambria Math_MSFontService,sans-serif" font-weight="400" font-size="24" transform="translate(546.61 416)">𝑔</text><path d="M773.833 412.5 773.833 521.52 773.167 521.52 773.167 412.5ZM773.5 521.52 777.5 518.853 773.5 526.853 769.5 518.853Z" fill="#7F7F7F"/><path d="M647.5 527.5 785.975 527.5" stroke="#7F7F7F" stroke-width="0.666667" stroke-miterlimit="8" fill="none" fill-rule="evenodd"/><path d="M3.0603e-07-0.333333 109.02-0.333233 109.02 0.333433-3.0603e-07 0.333333ZM109.02 0.00010009 106.353-3.9999 114.353 0.000104987 106.353 4.0001Z" fill="#7F7F7F" transform="matrix(-6.12323e-17 -1 -1 6.12323e-17 773.5 346.853)"/><path d="M630.5 227C632.985 227 635 229.015 635 231.5 635 233.985 632.985 236 630.5 236 628.015 236 626 233.985 626 231.5 626 229.015 628.015 227 630.5 227Z" fill="#FF0000" fill-rule="evenodd"/><path d="M599.5 526.5 662.5 526.5 662.5 542.5 599.5 542.5Z" stroke="#41719C" stroke-width="0.333333" stroke-miterlimit="8" fill="url(#fill2)"/><path d="M589.5 276.5C606.621 276.5 620.5 285.454 620.5 296.5" stroke="#000000" stroke-width="0.666667" stroke-miterlimit="8" fill="none" fill-rule="evenodd"/><path d="M630.5 523C632.985 523 635 525.015 635 527.5 635 529.985 632.985 532 630.5 532 628.015 532 626 529.985 626 527.5 626 525.015 628.015 523 630.5 523Z" fill="#FF0000" fill-rule="evenodd"/><path d="M723.833 497.5 723.833 520.513 723.167 520.513 723.167 497.5ZM723.5 520.513 727.5 517.847 723.5 525.847 719.5 517.846Z" fill="#7F7F7F"/><path d="M1.23457e-06-0.333333 23.0131-0.333248 23.0131 0.333419-1.23457e-06 0.333333ZM23.0131 8.52338e-05 20.3465-3.99992 28.3465 0.000104987 20.3464 4.00008Z" fill="#7F7F7F" transform="matrix(-6.12323e-17 -1 -1 6.12323e-17 723.5 454.846)"/><path d="M630.5 423C632.985 423 635 425.239 635 428 635 430.761 632.985 433 630.5 433 628.015 433 626 430.761 626 428 626 425.239 628.015 423 630.5 423Z" fill="#FF0000" fill-rule="evenodd"/><path d="M1.5-9.226e-06 1.50028 45.2076-1.49972 45.2076-1.5 9.226e-06ZM0.000278057 45.2076 4.50026 42.2075 0.000314961 51.2076-4.49974 42.2076Z" transform="matrix(-1 0 0 1 631.5 372.5)"/><text font-family="Cambria Math,Cambria Math_MSFontService,sans-serif" font-weight="400" font-size="24" transform="translate(593.13 420)">𝑃</text><path d="M647.5 233.5 785.975 233.5" stroke="#7F7F7F" stroke-width="0.666667" stroke-miterlimit="8" fill="none" fill-rule="evenodd"/><text font-family="Cambria Math,Cambria Math_MSFontService,sans-serif" font-weight="400" font-size="24" transform="translate(712.509 483)">𝐿</text><text font-family="Cambria Math,Cambria Math_MSFontService,sans-serif" font-weight="400" font-size="18" transform="translate(725.342 488)">𝑝</text><path d="M637.5 428.5 737.054 428.5" stroke="#7F7F7F" stroke-width="0.666667" stroke-miterlimit="8" fill="none" fill-rule="evenodd"/><text font-family="Cambria Math,Cambria Math_MSFontService,sans-serif" font-weight="400" font-size="24" transform="translate(708.015 204)">∆</text><text font-family="Cambria Math,Cambria Math_MSFontService,sans-serif" font-weight="400" font-size="24" transform="translate(722.348 204)">𝑇</text><path d="M3.59467e-07-0.333333 92.0209-0.333234 92.0209 0.333433-3.59467e-07 0.333333ZM92.0209 9.92354e-05 89.3542-3.9999 97.3542 0.000104987 89.3542 4.0001Z" fill="#959595" transform="matrix(6.12323e-17 1 1 -6.12323e-17 661.5 235.5)"/><text font-family="Cambria Math,Cambria Math_MSFontService,sans-serif" font-weight="400" font-size="24" transform="translate(666.639 291)">𝑥</text></g></svg>