<svg width="747" height="1018" xmlns="http://www.w3.org/2000/svg" xmlns:xlink="http://www.w3.org/1999/xlink" xml:space="preserve" overflow="hidden"><defs><clipPath id="clip0"><rect x="724" y="1058" width="747" height="1018"/></clipPath><linearGradient x1="1118.5" y1="1795.5" x2="1118.5" y2="1689.5" gradientUnits="userSpaceOnUse" spreadMethod="reflect" id="fill1"><stop offset="0" stop-color="#BDD7EE" stop-opacity="1"/><stop offset="0.16" stop-color="#BDD7EE" stop-opacity="1"/><stop offset="0.5" stop-color="#2E75B6" stop-opacity="0.74902"/><stop offset="0.85" stop-color="#BDD7EE" stop-opacity="1"/><stop offset="1" stop-color="#BDD7EE" stop-opacity="1"/></linearGradient><linearGradient x1="0" y1="329" x2="16.9998" y2="329" gradientUnits="userSpaceOnUse" spreadMethod="reflect" id="fill2"><stop offset="0" stop-color="#BFBFBF" stop-opacity="1"/><stop offset="0.16" stop-color="#BFBFBF" stop-opacity="1"/><stop offset="0.5" stop-color="#7F7F7F" stop-opacity="1"/><stop offset="0.85" stop-color="#BFBFBF" stop-opacity="1"/><stop offset="1" stop-color="#BFBFBF" stop-opacity="1"/></linearGradient></defs><g clip-path="url(#clip0)" transform="translate(-724 -1058)"><rect x="791.5" y="1689.5" width="654" height="106" stroke="#000000" stroke-width="1.14583" stroke-linecap="butt" stroke-linejoin="miter" stroke-miterlimit="8" stroke-opacity="1" fill="url(#fill1)"/><rect x="0" y="0" width="16.9998" height="658" stroke="#41719C" stroke-width="1.14583" stroke-linecap="butt" stroke-linejoin="miter" stroke-miterlimit="8" stroke-opacity="1" fill="url(#fill2)" transform="matrix(-1 0 0 1 792.5 1413.5)"/><path d="M1425 1742C1425 1733.16 1432.39 1726 1441.5 1726 1450.61 1726 1458 1733.16 1458 1742 1458 1750.84 1450.61 1758 1441.5 1758 1432.39 1758 1425 1750.84 1425 1742Z" fill="#FF0000" fill-rule="evenodd" fill-opacity="1"/><path d="M788.286 1653.79 788 1448" stroke="#7F7F7F" stroke-width="2.29167" stroke-linecap="butt" stroke-linejoin="miter" stroke-miterlimit="8" stroke-opacity="1" fill="none" fill-rule="evenodd"/><path d="M1446.71 1705.95 1444 1450" stroke="#7F7F7F" stroke-width="2.29167" stroke-linecap="butt" stroke-linejoin="miter" stroke-miterlimit="8" stroke-opacity="1" fill="none" fill-rule="evenodd"/><path d="M1029.94 1482.15 806.333 1482.15 806.333 1479.85 1029.94 1479.85ZM806.333 1481 815.5 1494.75 788 1481 815.5 1467.25Z" fill="#7F7F7F" fill-rule="nonzero" fill-opacity="1"/><path d="M770 1742C770 1733.16 777.163 1726 786 1726 794.837 1726 802 1733.16 802 1742 802 1750.84 794.837 1758 786 1758 777.163 1758 770 1750.84 770 1742Z" fill="#FF0000" fill-rule="evenodd" fill-opacity="1"/><path d="M1.14583-1.70921e-06 1.14617 223.604-1.1455 223.604-1.14583 1.70921e-06ZM0.000333545 223.604 13.7503 214.438 0.000360892 241.938-13.7497 214.438Z" fill="#7F7F7F" fill-rule="nonzero" fill-opacity="1" transform="matrix(1.83697e-16 1 1 -1.83697e-16 1198 1481)"/><path d="M782.063 1392.56 782.994 1241.81 789.869 1241.85 788.938 1392.6ZM786.432 1241.83 772.625 1250.91 786.545 1223.5 800.125 1251.08Z" fill="#000000" fill-rule="nonzero" fill-opacity="1"/><path d="M782.063 1365.56 782.994 1214.81 789.869 1214.85 788.938 1365.6ZM786.432 1214.83 772.625 1223.91 786.545 1196.5 800.125 1224.08Z" fill="#000000" fill-rule="nonzero" fill-opacity="1"/><text fill="#000000" fill-opacity="1" font-family="Cambria Math,Cambria Math_MSFontService,sans-serif" font-style="normal" font-variant="normal" font-weight="400" font-stretch="normal" font-size="83" text-anchor="start" direction="ltr" writing-mode="lr-tb" unicode-bidi="normal" text-decoration="none" transform="translate(761.084 1157)">𝜔</text><text fill="#000000" fill-opacity="1" font-family="Cambria Math,Cambria Math_MSFontService,sans-serif" font-style="normal" font-variant="normal" font-weight="400" font-stretch="normal" font-size="83" text-anchor="start" direction="ltr" writing-mode="lr-tb" unicode-bidi="normal" text-decoration="none" transform="translate(1093.28 1503)">𝐿</text><text fill="#000000" fill-opacity="1" font-family="Cambria Math,Cambria Math_MSFontService,sans-serif" font-style="normal" font-variant="normal" font-weight="400" font-stretch="normal" font-size="83" text-anchor="start" direction="ltr" writing-mode="lr-tb" unicode-bidi="normal" text-decoration="none" transform="translate(1211.23 1945)">𝜌</text><text fill="#000000" fill-opacity="1" font-family="Cambria Math,Cambria Math_MSFontService,sans-serif" font-style="normal" font-variant="normal" font-weight="400" font-stretch="normal" font-size="83" text-anchor="start" direction="ltr" writing-mode="lr-tb" unicode-bidi="normal" text-decoration="none" transform="translate(1258.64 1945)">,</text><text fill="#000000" fill-opacity="1" font-family="Cambria Math,Cambria Math_MSFontService,sans-serif" font-style="normal" font-variant="normal" font-weight="400" font-stretch="normal" font-size="83" text-anchor="start" direction="ltr" writing-mode="lr-tb" unicode-bidi="normal" text-decoration="none" transform="translate(1289.58 1945)">𝐴</text><text fill="#000000" fill-opacity="1" font-family="Cambria Math,Cambria Math_MSFontService,sans-serif" font-style="normal" font-variant="normal" font-weight="400" font-stretch="normal" font-size="83" text-anchor="start" direction="ltr" writing-mode="lr-tb" unicode-bidi="normal" text-decoration="none" transform="translate(1342.52 1945)">,</text><text fill="#000000" fill-opacity="1" font-family="Cambria Math,Cambria Math_MSFontService,sans-serif" font-style="normal" font-variant="normal" font-weight="400" font-stretch="normal" font-size="83" text-anchor="start" direction="ltr" writing-mode="lr-tb" unicode-bidi="normal" text-decoration="none" transform="translate(1373.45 1945)">𝐸</text><path d="M1198 1780C1257.09 1780 1305 1810.67 1305 1848.5" stroke="#000000" stroke-width="2.29167" stroke-linecap="butt" stroke-linejoin="miter" stroke-miterlimit="8" stroke-opacity="1" fill="none" fill-rule="evenodd"/></g></svg>