<svg width="1820" height="757" xmlns="http://www.w3.org/2000/svg" xmlns:xlink="http://www.w3.org/1999/xlink" xml:space="preserve" overflow="hidden"><defs><clipPath id="clip0"><rect x="251" y="116" width="1820" height="757"/></clipPath><linearGradient x1="899.5" y1="720.5" x2="899.5" y2="613.5" gradientUnits="userSpaceOnUse" spreadMethod="reflect" id="fill1"><stop offset="0" stop-color="#BDD7EE"/><stop offset="0.16" stop-color="#BDD7EE"/><stop offset="0.5" stop-color="#2E75B6" stop-opacity="0.74902"/><stop offset="0.85" stop-color="#BDD7EE"/><stop offset="1" stop-color="#BDD7EE"/></linearGradient><linearGradient x1="0" y1="194.5" x2="16.0002" y2="194.5" gradientUnits="userSpaceOnUse" spreadMethod="reflect" id="fill2"><stop offset="0" stop-color="#BFBFBF"/><stop offset="0.16" stop-color="#BFBFBF"/><stop offset="0.5" stop-color="#7F7F7F"/><stop offset="0.85" stop-color="#BFBFBF"/><stop offset="1" stop-color="#BFBFBF"/></linearGradient><radialGradient cx="270164" cy="270164" r="382069" gradientUnits="userSpaceOnUse" spreadMethod="pad" id="fill3" gradientTransform="matrix(0.000360892 0 0 0.000360892 1389.5 569.5)"><stop offset="0" stop-color="#D9D9D9"/><stop offset="0.01" stop-color="#D9D9D9"/><stop offset="0.37" stop-color="#A6A6A6"/><stop offset="0.75" stop-color="#A6A6A6"/><stop offset="0.97" stop-color="#A6A6A6"/><stop offset="1" stop-color="#A6A6A6"/></radialGradient></defs><g clip-path="url(#clip0)" transform="translate(-251 -116)"><rect x="314.5" y="613.5" width="1170" height="107" stroke="#000000" stroke-width="1.14583" stroke-miterlimit="8" fill="url(#fill1)"/><rect x="0" y="0" width="16.0002" height="389" stroke="#41719C" stroke-width="1.14583" stroke-miterlimit="8" fill="url(#fill2)" transform="matrix(-1 0 0 1 315.5 468.5)"/><path d="M309.286 635.795 309 430" stroke="#7F7F7F" stroke-width="2.29167" stroke-miterlimit="8" fill="none" fill-rule="evenodd"/><path d="M1486.71 735.948 1484 480" stroke="#7F7F7F" stroke-width="2.29167" stroke-miterlimit="8" fill="none" fill-rule="evenodd"/><path d="M764.233 477.146 333.333 477.146 333.333 474.854 764.233 474.855ZM333.333 476 342.5 489.75 315 476 342.5 462.25Z" fill="#7F7F7F"/><path d="M1.14583-9.19905e-07 1.14618 431.195-1.14549 431.195-1.14583 9.19905e-07ZM0.000346174 431.194 13.7503 422.028 0.000360892 449.528-13.7497 422.028Z" fill="#7F7F7F" transform="matrix(1.83697e-16 1 1 -1.83697e-16 1036 476)"/><path d="M306.063 447.557 306.994 296.811 313.869 296.854 312.938 447.599ZM310.432 296.833 296.625 305.914 310.545 278.5 324.125 306.084Z"/><path d="M306.063 420.557 306.994 269.811 313.869 269.854 312.938 420.599ZM310.432 269.833 296.625 278.914 310.545 251.5 324.125 279.084Z"/><path d="M306.293 172.892 308.36 175.647C304.253 178.998 301.038 182.787 298.714 187.015 296.391 191.244 295.229 195.614 295.229 200.126 295.229 203.233 295.817 205.617 296.992 207.279 298.167 208.941 299.822 209.771 301.957 209.771 303.956 209.771 305.658 208.961 307.063 207.34 308.468 205.719 309.508 203.341 310.184 200.207L313.507 184.928 320.315 184.928 317.235 198.87C316.884 200.464 316.708 201.95 316.708 203.328 316.708 205.489 317.175 207.103 318.107 208.171 319.039 209.238 320.356 209.771 322.058 209.771 324.301 209.771 326.286 208.954 328.016 207.32 329.745 205.685 331.089 203.301 332.048 200.167 333.007 197.032 333.487 193.385 333.487 189.224 333.487 186.765 333.149 184.246 332.474 181.666 331.798 179.086 330.853 176.944 329.637 175.242L332.393 172.892C335.094 175.458 337.128 178.282 338.492 181.362 339.856 184.442 340.539 187.752 340.539 191.291 340.539 195.263 339.755 198.924 338.188 202.274 336.621 205.624 334.399 208.245 331.521 210.136 328.644 212.028 325.354 212.973 321.653 212.973 317.168 212.973 314.101 210.758 312.453 206.327L312.291 206.327C311.345 207.813 310.352 209.008 309.312 209.913 308.272 210.818 306.968 211.555 305.401 212.122 303.834 212.689 301.97 212.973 299.809 212.973 297.728 212.973 295.817 212.507 294.074 211.575 292.331 210.643 290.92 209.184 289.839 207.198 288.758 205.212 288.218 202.774 288.218 199.883 288.218 194.965 289.798 190.143 292.959 185.415 296.121 180.686 300.565 176.512 306.293 172.892Z" fill-rule="evenodd"/><text fill="#000000" fill-opacity="0" font-family="Arial,Arial_MSFontService,sans-serif" font-size="40.0815" x="288.218" y="207.963">𝜔</text><path d="M886.15 442.453 902.361 442.453 901.916 444.439C900.889 444.655 900.153 444.898 899.707 445.168 899.261 445.439 898.863 445.844 898.511 446.384 898.16 446.925 897.795 447.769 897.417 448.917 897.039 450.065 896.566 451.936 895.999 454.53L887.326 494.044 897.295 494.044C899.106 494.044 900.531 493.869 901.571 493.518 902.611 493.166 903.597 492.525 904.53 491.592 905.462 490.66 906.374 489.397 907.265 487.803 908.157 486.209 909.062 484.223 909.981 481.846L913.912 481.846 909.818 497.773 875.532 497.773 875.978 495.787C877.005 495.625 877.775 495.362 878.288 494.997 878.802 494.632 879.234 494.125 879.585 493.477 879.936 492.829 880.26 492.038 880.558 491.106 880.855 490.174 881.301 488.371 881.895 485.696L888.785 454.49C889.379 451.788 889.676 449.613 889.676 447.965 889.676 446.695 889.359 445.81 888.724 445.31 888.089 444.81 887.083 444.52 885.705 444.439Z" fill-rule="evenodd"/><text fill="#000000" fill-opacity="0" font-family="Arial,Arial_MSFontService,sans-serif" font-size="55.3198" x="875.532" y="490.858">𝐿</text><path d="M1177.9 817.232C1176.87 817.232 1175.89 817.414 1174.96 817.779 1174.03 818.143 1173.05 818.765 1172.04 819.643 1171.03 820.521 1170.06 821.703 1169.14 823.189 1168.22 824.675 1167.4 826.425 1166.67 828.437 1165.94 830.45 1165.24 833.024 1164.56 836.158L1163.14 842.683C1163.09 842.98 1163.03 843.406 1162.96 843.959 1162.89 844.513 1162.86 845.02 1162.86 845.479 1162.86 847.208 1163.57 848.539 1164.99 849.471 1166.41 850.403 1168.29 850.869 1170.64 850.869 1173.42 850.869 1175.89 849.741 1178.04 847.485 1180.19 845.229 1181.85 842.122 1183.04 838.164 1184.23 834.206 1184.83 830.268 1184.83 826.35 1184.83 824.594 1184.64 823.061 1184.28 821.75 1183.91 820.44 1183.22 819.359 1182.19 818.508 1181.17 817.657 1179.73 817.232 1177.9 817.232ZM1178.95 814.03C1181.57 814.03 1183.88 814.564 1185.88 815.631 1187.88 816.698 1189.39 818.245 1190.42 820.271 1191.45 822.298 1191.96 824.783 1191.96 827.728 1191.96 832.321 1191.06 836.678 1189.26 840.798 1187.47 844.919 1184.97 848.161 1181.77 850.525 1178.56 852.889 1174.98 854.071 1171.01 854.071 1169.17 854.071 1167.43 853.909 1165.78 853.585 1164.13 853.26 1162.48 852.707 1160.83 851.923L1156.62 870.93 1149.97 870.93 1158.2 834.253C1159.17 829.93 1160.56 826.31 1162.37 823.392 1164.18 820.474 1166.48 818.184 1169.26 816.522 1172.05 814.861 1175.28 814.03 1178.95 814.03Z" fill-rule="evenodd"/><text fill="#000000" fill-opacity="0" font-family="Arial,Arial_MSFontService,sans-serif" font-size="56.9004" x="1149.97" y="863.818">𝜌</text><path d="M1202.21 844.02 1209.3 844.02C1209.68 845.911 1209.87 847.776 1209.87 849.613 1209.87 851.504 1209.55 853.233 1208.9 854.8 1208.25 856.368 1207.22 857.928 1205.8 859.481 1204.38 861.035 1202.43 862.744 1199.94 864.608L1197.75 862.136C1199.13 860.839 1200.13 859.671 1200.75 858.63 1201.37 857.59 1201.82 856.408 1202.09 855.084 1202.36 853.76 1202.49 852.099 1202.49 850.099 1202.49 848.046 1202.4 846.02 1202.21 844.02Z" fill-rule="evenodd"/><text fill="#000000" fill-opacity="0" font-family="Arial,Arial_MSFontService,sans-serif" font-size="20.5879" x="1197.75" y="862.035">,</text><path d="M1261.64 806.006 1247.21 831.538 1263.06 831.538 1262.37 818.488C1262.29 816.705 1262.22 814.476 1262.17 811.801 1262.11 809.126 1262.08 807.194 1262.08 806.006ZM1261.88 797.454 1268 797.454 1270.92 842.642C1271.05 844.777 1271.3 846.445 1271.65 847.647 1272 848.85 1272.48 849.741 1273.09 850.322 1273.7 850.903 1274.58 851.275 1275.74 851.437L1275.3 853.423 1258.44 853.423 1258.88 851.437C1260.48 851.302 1261.67 850.68 1262.45 849.572 1263.23 848.465 1263.62 846.519 1263.62 843.737 1263.62 842.683 1263.58 841.535 1263.5 840.292L1263.22 835.064 1245.39 835.064 1243.16 839.035C1242.1 840.9 1241.33 842.5 1240.85 843.838 1240.36 845.175 1240.12 846.357 1240.12 847.384 1240.12 849.654 1241.48 851.004 1244.21 851.437L1243.77 853.423 1227.19 853.423 1227.64 851.437C1228.47 851.329 1229.26 850.998 1230.01 850.444 1230.75 849.89 1231.54 849.052 1232.38 847.931 1233.22 846.81 1234.39 844.952 1235.9 842.359Z" fill-rule="evenodd"/><text fill="#000000" fill-opacity="0" font-family="Arial,Arial_MSFontService,sans-serif" font-size="55.9683" x="1227.19" y="846.427">𝐴</text><path d="M1286.09 844.02 1293.18 844.02C1293.56 845.911 1293.74 847.776 1293.74 849.613 1293.74 851.504 1293.42 853.233 1292.77 854.8 1292.12 856.368 1291.09 857.928 1289.67 859.481 1288.25 861.035 1286.3 862.744 1283.82 864.608L1281.63 862.136C1283.01 860.839 1284 859.671 1284.63 858.63 1285.25 857.59 1285.69 856.408 1285.96 855.084 1286.23 853.76 1286.37 852.099 1286.37 850.099 1286.37 848.046 1286.27 846.02 1286.09 844.02Z" fill-rule="evenodd"/><text fill="#000000" fill-opacity="0" font-family="Arial,Arial_MSFontService,sans-serif" font-size="20.5879" x="1281.63" y="862.035">,</text><path d="M1324.52 798.103 1361.81 798.103 1359.01 810.545 1355.12 810.545C1355.01 808.194 1354.81 806.424 1354.51 805.236 1354.21 804.047 1353.86 803.229 1353.44 802.784 1353.02 802.338 1352.52 802.041 1351.94 801.892 1351.36 801.743 1350.53 801.669 1349.44 801.669L1336.23 801.669 1331.61 822.905 1339.35 822.905C1341.27 822.905 1342.74 822.453 1343.75 821.548 1344.76 820.643 1345.78 819.15 1346.81 817.07L1350.5 817.07 1346.85 832.632 1343.41 832.632C1343.41 830.471 1343.27 829.005 1343 828.235 1342.73 827.465 1342.33 826.978 1341.81 826.776 1341.28 826.573 1340.33 826.472 1338.95 826.472L1330.84 826.472 1325.66 849.856 1337.65 849.856C1339.25 849.856 1340.51 849.694 1341.44 849.37 1342.37 849.046 1343.25 848.519 1344.07 847.789 1344.9 847.06 1345.72 846.04 1346.55 844.729 1347.37 843.419 1348.35 841.643 1349.49 839.4L1353.42 839.4 1349.85 853.423 1313.9 853.423 1314.35 851.437C1315.37 851.275 1316.14 851.011 1316.66 850.646 1317.17 850.282 1317.6 849.775 1317.95 849.127 1318.31 848.478 1318.63 847.688 1318.93 846.756 1319.22 845.824 1319.67 844.02 1320.26 841.345L1327.15 810.139C1327.75 807.438 1328.05 805.263 1328.05 803.614 1328.05 802.345 1327.73 801.46 1327.09 800.96 1326.46 800.46 1325.45 800.17 1324.07 800.089Z" fill-rule="evenodd"/><text fill="#000000" fill-opacity="0" font-family="Arial,Arial_MSFontService,sans-serif" font-size="55.3198" x="1313.9" y="846.508">𝐸</text><path d="M1136 688C1195.09 688 1243 718.668 1243 756.5" stroke="#000000" stroke-width="2.29167" stroke-miterlimit="8" fill="none" fill-rule="evenodd"/><path d="M1389.5 667C1389.5 613.152 1433.15 569.5 1487 569.5 1540.85 569.5 1584.5 613.152 1584.5 667 1584.5 720.848 1540.85 764.5 1487 764.5 1433.15 764.5 1389.5 720.848 1389.5 667Z" stroke="#000000" stroke-width="1.14583" stroke-miterlimit="8" fill="url(#fill3)" fill-rule="evenodd"/><path d="M107.5 0C166.87-1.36862e-14 215 30.6686 215 68.5002" stroke="#000000" stroke-width="2.29167" stroke-miterlimit="8" fill="none" fill-rule="evenodd" transform="matrix(-1 0 0 1 1749 545)"/><path d="M1692.06 492.484 1706.53 492.484 1711.15 531.796 1734.77 492.484 1747.54 492.484 1747.09 494.47C1746.07 494.686 1745.33 494.929 1744.88 495.2 1744.44 495.47 1744.03 495.875 1743.67 496.415 1743.3 496.956 1742.94 497.8 1742.57 498.948 1742.21 500.097 1741.74 501.968 1741.18 504.561L1734.25 536.011C1733.89 537.605 1733.67 538.868 1733.56 539.8 1733.45 540.732 1733.39 541.576 1733.39 542.333 1733.39 543.549 1733.7 544.407 1734.31 544.906 1734.91 545.406 1735.93 545.71 1737.37 545.818L1736.92 547.804 1720.71 547.804 1721.16 545.818C1722.18 545.656 1722.95 545.393 1723.47 545.028 1723.98 544.663 1724.41 544.157 1724.76 543.508 1725.11 542.86 1725.44 542.07 1725.74 541.137 1726.03 540.205 1726.48 538.402 1727.07 535.727L1732.46 511.289C1733.22 507.912 1734.08 504.548 1735.06 501.198L1734.49 501.198C1733.65 502.792 1731.76 506.034 1728.82 510.924L1710.38 541.36 1705.96 541.36 1702.59 515.301C1702.11 511.627 1701.57 506.682 1700.97 500.468L1700.16 500.468C1699.24 506.52 1698.22 512.127 1697.08 517.287L1692.95 536.011C1692.38 538.577 1692.1 540.685 1692.1 542.333 1692.1 543.549 1692.4 544.407 1693.01 544.906 1693.62 545.406 1694.64 545.71 1696.07 545.818L1695.62 547.804 1681.44 547.804 1681.88 545.818C1682.91 545.656 1683.68 545.393 1684.19 545.028 1684.71 544.663 1685.14 544.157 1685.49 543.508 1685.84 542.86 1686.17 542.07 1686.46 541.137 1686.76 540.205 1687.21 538.402 1687.8 535.727L1694.69 504.521C1694.96 503.359 1695.18 502.251 1695.34 501.198 1695.5 500.144 1695.58 499.077 1695.58 497.996 1695.58 496.726 1695.27 495.841 1694.63 495.341 1694 494.842 1692.99 494.551 1691.61 494.47Z" fill-rule="evenodd"/><text fill="#000000" fill-opacity="0" font-family="Arial,Arial_MSFontService,sans-serif" font-size="55.3198" x="1681.44" y="540.889">𝑀</text><path d="M0.00354015-0.572906 146.166 0.330272 146.158 1.47608-0.00354015 0.572906ZM141.664-12.8749 169.078 1.04478 141.494 14.6246Z" transform="matrix(1 0 0 -1 1821.5 666.545)"/><path d="M2018.16 653.436C2019 653.436 2019.74 653.531 2020.37 653.72 2021 653.909 2021.57 654.199 2022.05 654.591 2022.54 654.983 2022.97 655.489 2023.35 656.111 2023.73 656.732 2024.09 657.577 2024.44 658.644 2024.79 659.711 2025.13 661.035 2025.44 662.615 2025.75 664.196 2026.02 665.837 2026.27 667.54L2026.67 667.54C2029.27 663.892 2031.23 661.224 2032.57 659.535 2033.91 657.847 2035.03 656.59 2035.95 655.766 2036.87 654.942 2037.76 654.361 2038.61 654.024 2039.46 653.686 2040.59 653.517 2041.99 653.517 2043.26 653.517 2044.3 653.679 2045.11 654.003L2043.49 661.339 2040.65 661.339C2040.49 660.204 2040.02 659.637 2039.24 659.637 2038.99 659.637 2038.74 659.677 2038.47 659.758 2038.2 659.839 2037.86 660.015 2037.47 660.285 2037.08 660.555 2036.51 661.082 2035.75 661.866 2034.99 662.649 2034.14 663.608 2033.2 664.743 2032.25 665.878 2031.28 667.067 2030.28 668.31L2027.52 671.754C2028.01 674.348 2028.47 676.591 2028.9 678.482 2029.33 680.373 2029.72 681.947 2030.06 683.203 2030.39 684.46 2030.69 685.453 2030.95 686.182 2031.2 686.912 2031.48 687.459 2031.78 687.823 2032.08 688.188 2032.38 688.445 2032.69 688.594 2033 688.742 2033.36 688.816 2033.76 688.816 2034.49 688.816 2035.2 688.533 2035.89 687.965 2036.58 687.398 2037.57 686.115 2038.87 684.115L2041.51 685.858C2039.61 688.668 2037.9 690.647 2036.38 691.795 2034.85 692.943 2033.03 693.518 2030.93 693.518 2029.77 693.518 2028.78 693.308 2027.97 692.889 2027.16 692.471 2026.46 691.802 2025.86 690.883 2025.27 689.965 2024.74 688.533 2024.28 686.587 2023.44 683.129 2022.93 680.481 2022.74 678.644L2022.34 678.644C2019.47 682.67 2017.34 685.561 2015.95 687.317 2014.56 689.073 2013.41 690.37 2012.51 691.208 2011.6 692.045 2010.72 692.633 2009.87 692.97 2009.02 693.308 2007.89 693.477 2006.49 693.477 2005.22 693.477 2004.18 693.315 2003.37 692.991L2004.99 685.655 2007.83 685.655C2007.99 686.79 2008.46 687.357 2009.25 687.357 2009.62 687.357 2010.02 687.256 2010.44 687.053 2010.86 686.851 2011.46 686.365 2012.24 685.594 2013.03 684.824 2014.11 683.615 2015.49 681.967 2016.86 680.319 2018.86 677.847 2021.48 674.551 2021.08 672.416 2020.66 670.363 2020.23 668.391 2019.8 666.418 2019.35 664.581 2018.89 662.879 2018.43 661.177 2018.05 660.062 2017.76 659.535 2017.46 659.009 2017.14 658.644 2016.8 658.441 2016.47 658.239 2016.04 658.137 2015.53 658.137 2014.96 658.137 2014.45 658.266 2013.99 658.522 2013.53 658.779 2013.03 659.225 2012.49 659.86 2011.95 660.495 2011.23 661.487 2010.34 662.838L2007.71 661.096C2009.41 658.529 2011.04 656.611 2012.61 655.341 2014.18 654.071 2016.03 653.436 2018.16 653.436Z" fill-rule="evenodd"/><text fill="#000000" fill-opacity="0" font-family="Arial,Arial_MSFontService,sans-serif" font-size="40.0815" x="2003.37" y="688.507">𝑥</text></g></svg>