<svg width="1021" height="1260" xmlns="http://www.w3.org/2000/svg" xmlns:xlink="http://www.w3.org/1999/xlink" xml:space="preserve" overflow="hidden"><defs><linearGradient x1="1986.5" y1="1212" x2="2092.5" y2="1212" gradientUnits="userSpaceOnUse" spreadMethod="reflect" id="fill0"><stop offset="0" stop-color="#BDD7EE"/><stop offset="0.16" stop-color="#BDD7EE"/><stop offset="0.5" stop-color="#2E75B6" stop-opacity="0.74902"/><stop offset="0.85" stop-color="#BDD7EE"/><stop offset="1" stop-color="#BDD7EE"/></linearGradient><linearGradient x1="1930.5" y1="679" x2="2148.5" y2="679" gradientUnits="userSpaceOnUse" spreadMethod="reflect" id="fill1"><stop offset="0" stop-color="#BFBFBF"/><stop offset="0.16" stop-color="#BFBFBF"/><stop offset="0.5" stop-color="#7F7F7F"/><stop offset="0.85" stop-color="#BFBFBF"/><stop offset="1" stop-color="#BFBFBF"/></linearGradient><linearGradient x1="1930.5" y1="1742" x2="2148.5" y2="1742" gradientUnits="userSpaceOnUse" spreadMethod="reflect" id="fill2"><stop offset="0" stop-color="#BFBFBF"/><stop offset="0.16" stop-color="#BFBFBF"/><stop offset="0.5" stop-color="#7F7F7F"/><stop offset="0.85" stop-color="#BFBFBF"/><stop offset="1" stop-color="#BFBFBF"/></linearGradient></defs><g transform="translate(-1575 -510)"><path d="M2517.71 1183.33 2533.92 1183.33 2533.48 1185.32C2532.45 1185.53 2531.71 1185.78 2531.27 1186.05 2530.82 1186.32 2530.42 1186.72 2530.07 1187.26 2529.72 1187.8 2529.36 1188.65 2528.98 1189.8 2528.6 1190.94 2528.13 1192.81 2527.56 1195.41L2518.89 1234.92 2528.86 1234.92C2530.67 1234.92 2532.09 1234.75 2533.13 1234.4 2534.17 1234.04 2535.16 1233.4 2536.09 1232.47 2537.02 1231.54 2537.93 1230.28 2538.83 1228.68 2539.72 1227.09 2540.62 1225.1 2541.54 1222.72L2545.47 1222.72 2541.38 1238.65 2507.09 1238.65 2507.54 1236.67C2508.56 1236.5 2509.33 1236.24 2509.85 1235.87 2510.36 1235.51 2510.79 1235 2511.15 1234.36 2511.5 1233.71 2511.82 1232.92 2512.12 1231.98 2512.41 1231.05 2512.86 1229.25 2513.46 1226.57L2520.34 1195.37C2520.94 1192.67 2521.24 1190.49 2521.24 1188.84 2521.24 1187.57 2520.92 1186.69 2520.28 1186.19 2519.65 1185.69 2518.64 1185.4 2517.26 1185.32Z" fill-rule="evenodd"/><text fill="#000000" fill-opacity="0" font-family="Arial,Arial_MSFontService,sans-serif" font-size="55.3198" x="2507.09" y="1231.74">𝐿</text><path d="M1603.49 849.776C1602.46 849.776 1601.48 849.959 1600.55 850.323 1599.62 850.688 1598.65 851.309 1597.63 852.188 1596.62 853.066 1595.65 854.248 1594.73 855.734 1593.82 857.22 1592.99 858.969 1592.26 860.982 1591.53 862.995 1590.83 865.568 1590.16 868.702L1588.74 875.227C1588.68 875.525 1588.62 875.95 1588.55 876.504 1588.49 877.058 1588.45 877.564 1588.45 878.024 1588.45 879.753 1589.16 881.084 1590.58 882.016 1592 882.948 1593.88 883.414 1596.23 883.414 1599.02 883.414 1601.48 882.286 1603.63 880.03 1605.78 877.774 1607.45 874.667 1608.64 870.709 1609.82 866.75 1610.42 862.812 1610.42 858.895 1610.42 857.139 1610.24 855.605 1609.87 854.295 1609.51 852.985 1608.81 851.904 1607.78 851.053 1606.76 850.202 1605.33 849.776 1603.49 849.776ZM1604.54 846.575C1607.16 846.575 1609.47 847.108 1611.47 848.175 1613.47 849.243 1614.98 850.789 1616.01 852.816 1617.04 854.842 1617.55 857.328 1617.55 860.273 1617.55 864.866 1616.65 869.223 1614.86 873.343 1613.06 877.463 1610.56 880.705 1607.36 883.069 1604.16 885.433 1600.57 886.616 1596.6 886.616 1594.76 886.616 1593.02 886.453 1591.37 886.129 1589.72 885.805 1588.07 885.251 1586.43 884.468L1582.21 903.475 1575.57 903.475 1583.79 866.798C1584.77 862.475 1586.16 858.854 1587.97 855.936 1589.78 853.018 1592.07 850.729 1594.86 849.067 1597.64 847.405 1600.87 846.575 1604.54 846.575Z" fill-rule="evenodd"/><text fill="#000000" fill-opacity="0" font-family="Arial,Arial_MSFontService,sans-serif" font-size="56.9004" x="1575.57" y="896.362">𝜌</text><path d="M1627.8 876.565 1634.89 876.565C1635.27 878.456 1635.46 880.32 1635.46 882.158 1635.46 884.049 1635.14 885.778 1634.49 887.345 1633.84 888.912 1632.81 890.472 1631.39 892.026 1629.97 893.579 1628.02 895.288 1625.53 897.153L1623.34 894.68C1624.72 893.384 1625.72 892.215 1626.34 891.175 1626.97 890.135 1627.41 888.953 1627.68 887.629 1627.95 886.305 1628.09 884.643 1628.09 882.644 1628.09 880.59 1627.99 878.564 1627.8 876.565Z" fill-rule="evenodd"/><text fill="#000000" fill-opacity="0" font-family="Arial,Arial_MSFontService,sans-serif" font-size="20.5879" x="1623.34" y="894.579">,</text><path d="M1687.23 838.55 1672.8 864.082 1688.65 864.082 1687.96 851.033C1687.88 849.249 1687.81 847.02 1687.76 844.346 1687.7 841.671 1687.68 839.739 1687.68 838.55ZM1687.47 829.999 1693.59 829.999 1696.51 875.187C1696.65 877.321 1696.89 878.99 1697.24 880.192 1697.59 881.394 1698.07 882.286 1698.68 882.867 1699.29 883.448 1700.17 883.819 1701.33 883.981L1700.89 885.967 1684.03 885.967 1684.47 883.981C1686.07 883.846 1687.26 883.225 1688.04 882.117 1688.82 881.009 1689.22 879.064 1689.22 876.281 1689.22 875.227 1689.18 874.079 1689.1 872.836L1688.81 867.608 1670.98 867.608 1668.75 871.58C1667.7 873.444 1666.93 875.045 1666.44 876.382 1665.95 877.72 1665.71 878.902 1665.71 879.929 1665.71 882.198 1667.08 883.549 1669.8 883.981L1669.36 885.967 1652.78 885.967 1653.23 883.981C1654.07 883.873 1654.86 883.542 1655.6 882.988 1656.34 882.434 1657.13 881.597 1657.97 880.476 1658.81 879.354 1659.98 877.497 1661.5 874.903Z" fill-rule="evenodd"/><text fill="#000000" fill-opacity="0" font-family="Arial,Arial_MSFontService,sans-serif" font-size="55.9683" x="1652.78" y="878.971">𝐴</text><path d="M1711.68 876.565 1718.77 876.565C1719.15 878.456 1719.34 880.32 1719.34 882.158 1719.34 884.049 1719.01 885.778 1718.36 887.345 1717.72 888.912 1716.68 890.472 1715.26 892.026 1713.85 893.579 1711.89 895.288 1709.41 897.153L1707.22 894.68C1708.6 893.384 1709.6 892.215 1710.22 891.175 1710.84 890.135 1711.29 888.953 1711.56 887.629 1711.83 886.305 1711.96 884.643 1711.96 882.644 1711.96 880.59 1711.87 878.564 1711.68 876.565Z" fill-rule="evenodd"/><text fill="#000000" fill-opacity="0" font-family="Arial,Arial_MSFontService,sans-serif" font-size="20.5879" x="1707.22" y="894.579">,</text><path d="M1762.6 849.776C1760.11 849.776 1757.8 850.884 1755.66 853.099 1753.53 855.315 1751.82 858.314 1750.54 862.096 1749.25 865.879 1748.61 869.756 1748.61 873.728 1748.61 876.457 1749.02 878.483 1749.83 879.807 1750.64 881.131 1751.86 881.793 1753.48 881.793 1755.8 881.793 1758.19 880.428 1760.65 877.7 1763.11 874.971 1765.39 871.175 1767.5 866.311 1767.96 863.501 1768.19 861.016 1768.19 858.854 1768.19 855.774 1767.74 853.491 1766.83 852.005 1765.93 850.519 1764.51 849.776 1762.6 849.776ZM1762.88 846.575C1765.9 846.575 1768.28 847.52 1769.99 849.411 1771.71 851.303 1772.66 854.072 1772.85 857.72L1773.21 857.679 1778.52 847.223 1785.53 847.223 1785.13 849.29C1781.78 853.829 1777.83 859.408 1773.29 866.028 1772.62 871.188 1772.28 874.836 1772.28 876.97 1772.28 878.753 1772.48 880.03 1772.89 880.8 1773.29 881.57 1773.97 881.955 1774.92 881.955 1775.67 881.955 1776.53 881.637 1777.49 881.003 1778.45 880.368 1779.48 879.388 1780.59 878.064L1782.94 880.253C1780.67 882.684 1778.7 884.353 1777.02 885.258 1775.35 886.163 1773.62 886.616 1771.84 886.616 1768.24 886.616 1766.45 883.995 1766.45 878.753 1766.45 877.591 1766.53 876.308 1766.69 874.903L1766.28 874.903C1763.5 879.064 1760.87 882.056 1758.38 883.88 1755.89 885.704 1753.23 886.616 1750.4 886.616 1748.42 886.616 1746.76 886.048 1745.41 884.913 1744.06 883.779 1743.06 882.272 1742.41 880.395 1741.76 878.517 1741.44 876.47 1741.44 874.255 1741.44 869.418 1742.36 864.832 1744.2 860.496 1746.03 856.159 1748.59 852.755 1751.86 850.283 1755.12 847.811 1758.8 846.575 1762.88 846.575Z" fill-rule="evenodd"/><text fill="#000000" fill-opacity="0" font-family="Arial,Arial_MSFontService,sans-serif" font-size="40.041" x="1741.44" y="881.61">𝛼</text><path d="M1794.38 876.565 1801.48 876.565C1801.85 878.456 1802.04 880.32 1802.04 882.158 1802.04 884.049 1801.72 885.778 1801.07 887.345 1800.42 888.912 1799.39 890.472 1797.97 892.026 1796.55 893.579 1794.6 895.288 1792.11 897.153L1789.93 894.68C1791.3 893.384 1792.3 892.215 1792.92 891.175 1793.55 890.135 1793.99 888.953 1794.26 887.629 1794.53 886.305 1794.67 884.643 1794.67 882.644 1794.67 880.59 1794.57 878.564 1794.38 876.565Z" fill-rule="evenodd"/><text fill="#000000" fill-opacity="0" font-family="Arial,Arial_MSFontService,sans-serif" font-size="20.5879" x="1789.93" y="894.579">,</text><path d="M1832.82 830.647 1870.1 830.647 1867.31 843.089 1863.42 843.089C1863.31 840.739 1863.11 838.969 1862.81 837.78 1862.51 836.591 1862.15 835.774 1861.74 835.328 1861.32 834.882 1860.82 834.585 1860.24 834.437 1859.65 834.288 1858.82 834.214 1857.74 834.214L1844.53 834.214 1839.91 855.45 1847.65 855.45C1849.57 855.45 1851.04 854.997 1852.05 854.092 1853.06 853.187 1854.08 851.694 1855.11 849.614L1858.8 849.614 1855.15 865.177 1851.7 865.177C1851.7 863.015 1851.57 861.549 1851.3 860.779 1851.03 860.009 1850.63 859.523 1850.1 859.32 1849.58 859.118 1848.62 859.016 1847.25 859.016L1839.14 859.016 1833.95 882.401 1845.95 882.401C1847.54 882.401 1848.81 882.239 1849.74 881.914 1850.67 881.59 1851.55 881.063 1852.37 880.334 1853.2 879.604 1854.02 878.584 1854.85 877.274 1855.67 875.964 1856.65 874.187 1857.78 871.945L1861.71 871.945 1858.15 885.967 1822.2 885.967 1822.65 883.981C1823.67 883.819 1824.44 883.556 1824.96 883.191 1825.47 882.826 1825.9 882.32 1826.25 881.671 1826.6 881.023 1826.93 880.232 1827.23 879.3 1827.52 878.368 1827.97 876.565 1828.56 873.89L1835.45 842.684C1836.05 839.982 1836.34 837.807 1836.34 836.159 1836.34 834.889 1836.03 834.004 1835.39 833.504 1834.76 833.005 1833.75 832.714 1832.37 832.633Z" fill-rule="evenodd"/><text fill="#000000" fill-opacity="0" font-family="Arial,Arial_MSFontService,sans-serif" font-size="55.3198" x="1822.2" y="879.052">𝐸</text><rect x="1986.5" y="706.5" width="106" height="1011" stroke="#000000" stroke-width="1.14583" stroke-miterlimit="8" fill="url(#fill0)"/><rect x="1930.5" y="651.5" width="218" height="55" stroke="#41719C" stroke-width="1.14583" stroke-miterlimit="8" fill="url(#fill1)"/><path d="M0.0212409-3.43743 150.767-2.50593 150.724 4.36893-0.0212409 3.43743ZM150.745 0.931499 141.664-12.8749 169.078 1.04478 141.494 14.6246Z" transform="matrix(6.12323e-17 1 1 -6.12323e-17 1775.5 1084.5)"/><path d="M1781.5 1299.25C1778.74 1299.25 1776.27 1300.36 1774.08 1302.59 1771.89 1304.82 1770.17 1307.83 1768.91 1311.61 1767.66 1315.39 1767.03 1319.16 1767.03 1322.92 1767.03 1325.73 1767.43 1327.83 1768.24 1329.22 1769.05 1330.61 1770.32 1331.31 1772.05 1331.31 1773.43 1331.31 1774.8 1330.83 1776.17 1329.89 1777.53 1328.94 1778.99 1327.44 1780.54 1325.39 1782.1 1323.34 1783.31 1321.38 1784.17 1319.51 1785.04 1317.65 1785.77 1315.32 1786.38 1312.54 1786.99 1309.76 1787.29 1307.34 1787.29 1305.29 1787.29 1303.18 1786.85 1301.65 1785.95 1300.69 1785.06 1299.73 1783.58 1299.25 1781.5 1299.25ZM1780.85 1296.05C1782.55 1296.05 1784.16 1296.25 1785.67 1296.66 1787.18 1297.06 1788.71 1297.75 1790.25 1298.72L1793.98 1296.05 1796.57 1296.7 1792.4 1315.58C1792.1 1316.91 1791.42 1320.24 1790.37 1325.59 1789.26 1331.27 1788.36 1335.28 1787.68 1337.63 1786.99 1339.98 1786.13 1342.12 1785.1 1344.05 1784.08 1345.98 1782.75 1347.67 1781.13 1349.1 1779.51 1350.53 1777.54 1351.64 1775.23 1352.42 1772.92 1353.2 1770.19 1353.6 1767.03 1353.6 1756.81 1353.6 1751.71 1350.62 1751.71 1344.68 1751.71 1343.17 1752.17 1341.79 1753.09 1340.55 1754 1339.3 1755.48 1337.99 1757.5 1336.62L1760.42 1338.97C1759.91 1339.59 1759.48 1340.2 1759.12 1340.81 1758.77 1341.42 1758.52 1342.01 1758.37 1342.57 1758.23 1343.14 1758.15 1343.82 1758.15 1344.6 1758.15 1346.63 1758.88 1348.1 1760.34 1349.04 1761.8 1349.97 1764 1350.44 1766.95 1350.44 1770.27 1350.44 1772.94 1349.69 1774.95 1348.19 1776.96 1346.69 1778.69 1344.28 1780.12 1340.95 1781.55 1337.63 1782.94 1332.6 1784.29 1325.88L1783.72 1325.75C1781.1 1329.35 1778.67 1331.97 1776.43 1333.62 1774.19 1335.26 1771.77 1336.09 1769.18 1336.09 1766.23 1336.09 1763.94 1334.98 1762.31 1332.77 1760.67 1330.55 1759.85 1327.39 1759.85 1323.28 1759.85 1318.66 1760.76 1314.22 1762.57 1309.97 1764.38 1305.71 1766.89 1302.33 1770.11 1299.82 1773.32 1297.3 1776.9 1296.05 1780.85 1296.05Z" fill-rule="evenodd"/><text fill="#000000" fill-opacity="0" font-family="Arial,Arial_MSFontService,sans-serif" font-size="57.5488" x="1751.71" y="1346.4">𝑔</text><path d="M2529.15 1321 2529.15 1695.76 2526.85 1695.76 2526.85 1321ZM2528 1695.76 2541.75 1686.59 2528 1714.09 2514.25 1686.59Z" fill="#7F7F7F"/><path d="M2095 1717 2571.01 1717" stroke="#7F7F7F" stroke-width="2.29167" stroke-miterlimit="8" fill="none" fill-rule="evenodd"/><path d="M1.05198e-06-1.14583 374.757-1.14549 374.757 1.14618-1.05198e-06 1.14583ZM374.757 0.000344061 365.59-13.7497 393.09 0.000360892 365.59 13.7503Z" fill="#7F7F7F" transform="matrix(-6.12323e-17 -1 -1 6.12323e-17 2528 1097.09)"/><path d="M2039 685C2047.84 685 2055 692.387 2055 701.5 2055 710.613 2047.84 718 2039 718 2030.16 718 2023 710.613 2023 701.5 2023 692.387 2030.16 685 2039 685Z" fill="#FF0000" fill-rule="evenodd"/><rect x="1930.5" y="1714.5" width="218" height="55" stroke="#41719C" stroke-width="1.14583" stroke-miterlimit="8" fill="url(#fill2)"/><path d="M1896 856C1955.09 856 2003 886.669 2003 924.5" stroke="#000000" stroke-width="2.29167" stroke-miterlimit="8" fill="none" fill-rule="evenodd"/><path d="M2039 1703C2047.84 1703 2055 1710.16 2055 1719 2055 1727.84 2047.84 1735 2039 1735 2030.16 1735 2023 1727.84 2023 1719 2023 1710.16 2030.16 1703 2039 1703Z" fill="#FF0000" fill-rule="evenodd"/><path d="M2357.15 1614 2357.15 1693.11 2354.85 1693.11 2354.85 1614ZM2356 1693.11 2369.75 1683.94 2356 1711.44 2342.25 1683.94Z" fill="#7F7F7F"/><path d="M4.24383e-06-1.14583 79.1076-1.14554 79.1076 1.14613-4.24383e-06 1.14583ZM79.1076 0.000292991 69.941-13.7497 97.4409 0.000360892 69.9409 13.7503Z" fill="#7F7F7F" transform="matrix(-6.12323e-17 -1 -1 6.12323e-17 2356 1468.44)"/><path d="M2039 1361C2047.84 1361 2055 1368.39 2055 1377.5 2055 1386.61 2047.84 1394 2039 1394 2030.16 1394 2023 1386.61 2023 1377.5 2023 1368.39 2030.16 1361 2039 1361Z" fill="#FF0000" fill-rule="evenodd"/><path d="M0.0207323-5.15621 239.238-4.19435 239.197 6.11806-0.0207323 5.15621ZM239.218 0.961854 228.967-14.5482 259.843 1.04478 228.843 16.389Z" transform="matrix(6.12323e-17 1 1 -6.12323e-17 2038 1102)"/><path d="M1940.31 1299.03C1938.64 1299.03 1936.88 1299.07 1935.04 1299.15L1929.53 1323.71 1933.75 1323.71C1937.01 1323.71 1939.66 1323.37 1941.67 1322.7 1943.68 1322.02 1945.33 1320.97 1946.61 1319.56 1947.9 1318.14 1948.89 1316.46 1949.59 1314.51 1950.29 1312.56 1950.65 1310.43 1950.65 1308.11 1950.65 1304.97 1949.85 1302.68 1948.25 1301.22 1946.66 1299.76 1944.01 1299.03 1940.31 1299.03ZM1923.33 1295.46 1941.2 1295.46C1944.42 1295.46 1947.06 1295.71 1949.13 1296.21 1951.19 1296.71 1952.89 1297.48 1954.23 1298.52 1955.57 1299.56 1956.57 1300.88 1957.23 1302.47 1957.89 1304.07 1958.22 1305.92 1958.22 1308.03 1958.22 1312.08 1957.27 1315.59 1955.35 1318.56 1953.43 1321.53 1950.83 1323.72 1947.55 1325.13 1944.26 1326.53 1940.32 1327.24 1935.73 1327.24 1932.98 1327.24 1930.68 1327.18 1928.84 1327.07L1926.25 1338.99C1926 1340.1 1925.84 1340.95 1925.74 1341.54 1925.65 1342.14 1925.57 1342.78 1925.5 1343.47 1925.43 1344.16 1925.4 1344.77 1925.4 1345.31 1925.4 1346.15 1925.53 1346.8 1925.8 1347.28 1926.07 1347.75 1926.48 1348.09 1927.02 1348.31 1927.56 1348.53 1928.49 1348.69 1929.81 1348.8L1929.37 1350.78 1912.71 1350.78 1913.16 1348.8C1914.18 1348.63 1914.95 1348.37 1915.47 1348.01 1915.98 1347.64 1916.41 1347.13 1916.76 1346.49 1917.12 1345.84 1917.44 1345.05 1917.74 1344.12 1918.03 1343.18 1918.48 1341.38 1919.07 1338.7L1925.96 1307.5C1926.56 1304.8 1926.86 1302.66 1926.86 1301.1 1926.86 1299.77 1926.55 1298.85 1925.92 1298.34 1925.3 1297.83 1924.29 1297.53 1922.88 1297.45Z" fill-rule="evenodd"/><text fill="#000000" fill-opacity="0" font-family="Arial,Arial_MSFontService,sans-serif" font-size="55.3198" x="1912.71" y="1343.87">𝑃</text><path d="M2095 708 2571.01 708" stroke="#7F7F7F" stroke-width="2.29167" stroke-miterlimit="8" fill="none" fill-rule="evenodd"/><path d="M2347.9 1498.79 2360.47 1498.79 2360.14 1500.58C2359.44 1500.76 2358.89 1500.91 2358.49 1501.04 2358.08 1501.17 2357.73 1501.44 2357.44 1501.86 2357.16 1502.27 2356.9 1502.9 2356.67 1503.72 2356.44 1504.54 2356.15 1505.75 2355.79 1507.34L2349.74 1534.26 2357.52 1534.26C2358.61 1534.26 2359.55 1534.17 2360.35 1533.98 2361.14 1533.79 2361.88 1533.4 2362.55 1532.79 2363.23 1532.18 2363.88 1531.33 2364.5 1530.21 2365.13 1529.1 2365.82 1527.62 2366.57 1525.78L2369.85 1525.78 2366.78 1537.42 2340.54 1537.42 2340.87 1535.6C2341.48 1535.51 2341.99 1535.38 2342.39 1535.23 2342.78 1535.08 2343.14 1534.8 2343.44 1534.37 2343.75 1533.94 2344.03 1533.3 2344.28 1532.45 2344.53 1531.59 2344.82 1530.4 2345.16 1528.87L2350.04 1507.16C2350.24 1506.29 2350.39 1505.51 2350.49 1504.84 2350.59 1504.16 2350.64 1503.59 2350.64 1503.11 2350.64 1502.24 2350.41 1501.61 2349.95 1501.25 2349.5 1500.88 2348.66 1500.69 2347.45 1500.67Z" fill-rule="evenodd"/><text fill="#000000" fill-opacity="0" font-family="Arial,Arial_MSFontService,sans-serif" font-size="38.6313" x="2340.54" y="1532.59">𝐿</text><path d="M2355.95 1564.23C2357.54 1564.23 2359.03 1564.4 2360.41 1564.74 2361.79 1565.07 2362.98 1565.59 2364 1566.27 2365.01 1566.96 2365.8 1567.81 2366.36 1568.83 2366.93 1569.86 2367.21 1571.04 2367.21 1572.39 2367.21 1573.66 2367.03 1574.78 2366.68 1575.76 2366.32 1576.73 2365.77 1577.61 2365.02 1578.41 2364.28 1579.2 2363.36 1579.92 2362.28 1580.57 2361.2 1581.21 2359.95 1581.83 2358.54 1582.43L2358.54 1582.79C2359.87 1583.03 2361.12 1583.41 2362.27 1583.93 2363.42 1584.46 2364.43 1585.13 2365.29 1585.93 2366.15 1586.73 2366.83 1587.66 2367.33 1588.71 2367.83 1589.77 2368.08 1590.93 2368.08 1592.2 2368.08 1593.79 2367.78 1595.26 2367.18 1596.62 2366.59 1597.98 2365.69 1599.16 2364.5 1600.15 2363.31 1601.14 2361.84 1601.92 2360.09 1602.47 2358.35 1603.03 2356.3 1603.31 2353.96 1603.31 2352.11 1603.31 2350.23 1603.13 2348.33 1602.76 2346.42 1602.39 2344.61 1601.91 2342.91 1601.31L2342.91 1594.88 2346.75 1594.88C2347.07 1595.87 2347.44 1596.72 2347.88 1597.43 2348.32 1598.13 2348.83 1598.71 2349.42 1599.15 2350 1599.6 2350.68 1599.92 2351.44 1600.12 2352.21 1600.32 2353.07 1600.42 2354.05 1600.42 2356.61 1600.42 2358.55 1599.81 2359.87 1598.59 2361.19 1597.37 2361.85 1595.52 2361.85 1593.03 2361.85 1590.39 2360.98 1588.39 2359.24 1587.03 2357.51 1585.67 2354.93 1584.99 2351.52 1584.99L2348.89 1584.99 2348.89 1582.13C2350.98 1582.03 2352.78 1581.74 2354.3 1581.25 2355.82 1580.77 2357.08 1580.14 2358.1 1579.36 2359.11 1578.59 2359.86 1577.68 2360.36 1576.65 2360.86 1575.62 2361.11 1574.52 2361.11 1573.35 2361.11 1571.44 2360.54 1569.93 2359.41 1568.83 2358.28 1567.73 2356.64 1567.18 2354.49 1567.18 2352.69 1567.18 2351.17 1567.68 2349.95 1568.67 2348.73 1569.66 2347.79 1571.14 2347.14 1573.11L2343.35 1573.11 2343.35 1567.24C2345.7 1566.25 2347.91 1565.5 2349.98 1564.99 2352.06 1564.48 2354.05 1564.23 2355.95 1564.23Z" fill-rule="evenodd"/><text fill="#000000" fill-opacity="0" font-family="Arial,Arial_MSFontService,sans-serif" font-size="39.0781" x="2342.91" y="1598.42">3</text><path d="M2337.77 1553.6 2355.27 1553.6 2372.77 1553.6 2372.77 1557.6 2355.27 1557.6 2337.77 1557.6Z" fill-rule="evenodd"/><path d="M2060 1378 2402.22 1378" stroke="#7F7F7F" stroke-width="2.29167" stroke-miterlimit="8" fill="none" fill-rule="evenodd"/><path d="M1.23567e-06-1.14583 316.322-1.14549 316.322 1.14617-1.23567e-06 1.14583ZM316.322 0.000341122 307.155-13.7497 334.655 0.000360892 307.155 13.7503Z" fill="#959595" transform="matrix(6.12323e-17 1 1 -6.12323e-17 2192 709)"/><path d="M2226.88 863.034C2227.72 863.034 2228.46 863.129 2229.09 863.318 2229.73 863.507 2230.29 863.797 2230.77 864.189 2231.26 864.581 2231.69 865.087 2232.07 865.709 2232.45 866.33 2232.81 867.175 2233.16 868.242 2233.52 869.309 2233.85 870.633 2234.16 872.213 2234.47 873.794 2234.74 875.435 2234.99 877.138L2235.39 877.138C2237.99 873.49 2239.95 870.822 2241.29 869.133 2242.63 867.445 2243.76 866.188 2244.67 865.364 2245.59 864.54 2246.48 863.959 2247.33 863.622 2248.18 863.284 2249.31 863.115 2250.71 863.115 2251.98 863.115 2253.02 863.277 2253.83 863.601L2252.21 870.937 2249.38 870.937C2249.21 869.802 2248.74 869.235 2247.96 869.235 2247.71 869.235 2247.46 869.275 2247.19 869.356 2246.92 869.437 2246.59 869.613 2246.19 869.883 2245.8 870.153 2245.23 870.68 2244.47 871.464 2243.71 872.247 2242.86 873.206 2241.92 874.341 2240.97 875.476 2240 876.665 2239 877.908L2236.24 881.352C2236.73 883.946 2237.19 886.189 2237.62 888.08 2238.05 889.971 2238.44 891.545 2238.78 892.801 2239.11 894.058 2239.41 895.051 2239.67 895.78 2239.93 896.51 2240.2 897.057 2240.5 897.421 2240.8 897.786 2241.1 898.043 2241.41 898.191 2241.72 898.34 2242.08 898.414 2242.49 898.414 2243.21 898.414 2243.92 898.131 2244.61 897.563 2245.3 896.996 2246.29 895.713 2247.59 893.713L2250.23 895.456C2248.33 898.266 2246.63 900.245 2245.1 901.393 2243.57 902.541 2241.76 903.116 2239.65 903.116 2238.49 903.116 2237.5 902.906 2236.69 902.487 2235.88 902.069 2235.18 901.4 2234.58 900.481 2233.99 899.563 2233.46 898.131 2233 896.185 2232.16 892.727 2231.65 890.079 2231.46 888.242L2231.06 888.242C2228.19 892.268 2226.06 895.159 2224.67 896.915 2223.28 898.671 2222.13 899.968 2221.23 900.805 2220.32 901.643 2219.45 902.231 2218.59 902.568 2217.74 902.906 2216.62 903.075 2215.21 903.075 2213.94 903.075 2212.9 902.913 2212.09 902.589L2213.71 895.253 2216.55 895.253C2216.71 896.388 2217.18 896.955 2217.97 896.955 2218.34 896.955 2218.74 896.854 2219.16 896.651 2219.58 896.449 2220.18 895.962 2220.97 895.192 2221.75 894.422 2222.83 893.213 2224.21 891.565 2225.59 889.917 2227.58 887.445 2230.21 884.149 2229.8 882.014 2229.38 879.961 2228.95 877.989 2228.52 876.016 2228.07 874.179 2227.61 872.477 2227.15 870.775 2226.77 869.66 2226.48 869.133 2226.18 868.607 2225.86 868.242 2225.52 868.039 2225.19 867.836 2224.76 867.735 2224.25 867.735 2223.68 867.735 2223.17 867.864 2222.71 868.12 2222.25 868.377 2221.75 868.823 2221.21 869.458 2220.67 870.093 2219.95 871.085 2219.06 872.436L2216.43 870.694C2218.13 868.127 2219.76 866.209 2221.33 864.939 2222.9 863.669 2224.75 863.034 2226.88 863.034Z" fill-rule="evenodd"/><text fill="#000000" fill-opacity="0" font-family="Arial,Arial_MSFontService,sans-serif" font-size="40.0815" x="2212.09" y="898.105">𝑥</text><path d="M2330 559.87 2314.56 600.397 2342.77 600.397ZM2328.58 550.913 2334.58 550.913 2351.68 604.288 2351.68 606.881 2307.39 606.881 2307.39 604.288Z" fill-rule="evenodd"/><text fill="#000000" fill-opacity="0" font-family="Arial,Arial_MSFontService,sans-serif" font-size="55.9683" x="2307.39" y="599.885">∆</text><path d="M2360.47 551.562 2402.78 551.562 2399.62 565.827 2395.73 565.827C2395.73 563.206 2395.66 561.241 2395.52 559.931 2395.39 558.62 2395.13 557.62 2394.75 556.932 2394.38 556.243 2393.91 555.77 2393.36 555.513 2392.8 555.256 2391.82 555.128 2390.42 555.128L2384.42 555.128 2375.62 595.088C2375.38 596.142 2375.21 596.979 2375.12 597.601 2375.02 598.222 2374.94 598.877 2374.88 599.566 2374.81 600.255 2374.77 600.87 2374.77 601.41 2374.77 602.248 2374.91 602.903 2375.18 603.376 2375.45 603.849 2375.85 604.193 2376.4 604.409 2376.94 604.625 2377.87 604.788 2379.19 604.896L2378.75 606.881 2361.68 606.881 2362.13 604.896C2363.21 604.734 2364.01 604.517 2364.52 604.247 2365.03 603.977 2365.49 603.558 2365.88 602.991 2366.27 602.423 2366.66 601.532 2367.05 600.316 2367.45 599.1 2367.91 597.263 2368.45 594.804L2377.12 555.128 2371.98 555.128C2370.3 555.128 2368.97 555.371 2367.97 555.858 2366.97 556.344 2365.97 557.249 2364.97 558.573 2363.97 559.897 2362.75 562.112 2361.32 565.219L2357.43 565.219Z" fill-rule="evenodd"/><text fill="#000000" fill-opacity="0" font-family="Arial,Arial_MSFontService,sans-serif" font-size="55.3198" x="2357.43" y="599.966">𝑇</text></g></svg>