<svg width="291" height="101" xmlns="http://www.w3.org/2000/svg" xmlns:xlink="http://www.w3.org/1999/xlink" xml:space="preserve" overflow="hidden"><defs><clipPath id="clip0"><rect x="494" y="309" width="291" height="101"/></clipPath><clipPath id="clip1"><rect x="495" y="310" width="290" height="100"/></clipPath><clipPath id="clip2"><rect x="495" y="310" width="290" height="100"/></clipPath><clipPath id="clip3"><rect x="495" y="310" width="290" height="100"/></clipPath><clipPath id="clip4"><rect x="495" y="310" width="290" height="100"/></clipPath><linearGradient x1="596.535" y1="147.03" x2="596.535" y2="124.257" gradientUnits="userSpaceOnUse" spreadMethod="reflect" id="fill5"><stop offset="0" stop-color="#BDD7EE" stop-opacity="1"/><stop offset="0.16" stop-color="#BDD7EE" stop-opacity="1"/><stop offset="0.5" stop-color="#2E75B6" stop-opacity="0.74902"/><stop offset="0.85" stop-color="#BDD7EE" stop-opacity="1"/><stop offset="1" stop-color="#BDD7EE" stop-opacity="1"/></linearGradient><linearGradient x1="481.683" y1="158.911" x2="481.683" y2="112.376" gradientUnits="userSpaceOnUse" spreadMethod="reflect" id="fill6"><stop offset="0" stop-color="#BFBFBF" stop-opacity="1"/><stop offset="0.16" stop-color="#BFBFBF" stop-opacity="1"/><stop offset="0.5" stop-color="#7F7F7F" stop-opacity="1"/><stop offset="0.85" stop-color="#BFBFBF" stop-opacity="1"/><stop offset="1" stop-color="#BFBFBF" stop-opacity="1"/></linearGradient></defs><g clip-path="url(#clip0)" transform="translate(-494 -309)"><g clip-path="url(#clip1)"><g clip-path="url(#clip2)"><g clip-path="url(#clip3)"><g clip-path="url(#clip4)"><path d="M487.624 124.257 705.446 124.257 705.446 147.03 487.624 147.03Z" stroke="#000000" stroke-width="0.247525" stroke-linecap="butt" stroke-linejoin="miter" stroke-miterlimit="8" stroke-opacity="1" fill="url(#fill5)" fill-rule="nonzero" transform="matrix(1.01 0 0 1 15 220.891)"/><path d="M475.743 112.376 487.624 112.376 487.624 158.911 475.743 158.911Z" stroke="#41719C" stroke-width="0.247525" stroke-linecap="butt" stroke-linejoin="miter" stroke-miterlimit="8" stroke-opacity="1" fill="url(#fill6)" fill-rule="nonzero" transform="matrix(1.01 0 0 1 15 220.891)"/><path d="M0.0045885-0.74256 32.5688-0.541336 32.5597 0.943784-0.0045885 0.74256ZM32.5642 0.201224 30.6024-2.78126 36.5246 0.225696 30.5656 3.15923Z" fill="#000000" fill-rule="nonzero" fill-opacity="1" transform="matrix(1.01 0 0 -1 727 355.77)"/><text fill="#000000" fill-opacity="1" font-family="Cambria Math,Cambria Math_MSFontService,sans-serif" font-style="normal" font-variant="normal" font-weight="400" font-stretch="normal" font-size="18" text-anchor="start" direction="ltr" writing-mode="lr-tb" unicode-bidi="normal" text-decoration="none" transform="matrix(1 0 0 0.990099 767.429 363)">𝑃</text><path d="M490.099 134.901 505.467 134.901 505.467 136.386 490.099 136.386ZM505.467 135.644 503.487 132.673 509.428 135.644 503.487 138.614Z" fill="#000000" fill-rule="nonzero" fill-opacity="1" transform="matrix(1.01 0 0 1 15 220.891)"/><path d="M513.861 134.901 529.23 134.901 529.23 136.386 513.861 136.386ZM529.23 135.644 527.249 132.673 533.19 135.644 527.249 138.614Z" fill="#000000" fill-rule="nonzero" fill-opacity="1" transform="matrix(1.01 0 0 1 15 220.891)"/><path d="M538.614 134.901 553.982 134.901 553.982 136.386 538.614 136.386ZM553.982 135.644 552.002 132.673 557.943 135.644 552.002 138.614Z" fill="#000000" fill-rule="nonzero" fill-opacity="1" transform="matrix(1.01 0 0 1 15 220.891)"/><path d="M562.376 134.901 577.745 134.901 577.745 136.386 562.376 136.386ZM577.745 135.644 575.764 132.673 581.705 135.644 575.764 138.614Z" fill="#000000" fill-rule="nonzero" fill-opacity="1" transform="matrix(1.01 0 0 1 15 220.891)"/><path d="M586.139 134.901 601.507 134.901 601.507 136.386 586.139 136.386ZM601.507 135.644 599.527 132.673 605.467 135.644 599.527 138.614Z" fill="#000000" fill-rule="nonzero" fill-opacity="1" transform="matrix(1.01 0 0 1 15 220.891)"/><path d="M610.891 134.901 626.259 134.901 626.259 136.386 610.891 136.386ZM626.259 135.644 624.279 132.673 630.22 135.644 624.279 138.614Z" fill="#000000" fill-rule="nonzero" fill-opacity="1" transform="matrix(1.01 0 0 1 15 220.891)"/><path d="M634.653 134.901 650.022 134.901 650.022 136.386 634.653 136.386ZM650.022 135.644 648.042 132.673 653.982 135.644 648.042 138.614Z" fill="#000000" fill-rule="nonzero" fill-opacity="1" transform="matrix(1.01 0 0 1 15 220.891)"/><path d="M659.406 134.901 674.774 134.901 674.774 136.386 659.406 136.386ZM674.774 135.644 672.794 132.673 678.735 135.644 672.794 138.614Z" fill="#000000" fill-rule="nonzero" fill-opacity="1" transform="matrix(1.01 0 0 1 15 220.891)"/><path d="M683.168 134.901 698.537 134.901 698.537 136.386 683.168 136.386ZM698.537 135.644 696.556 132.673 702.497 135.644 696.556 138.614Z" fill="#000000" fill-rule="nonzero" fill-opacity="1" transform="matrix(1.01 0 0 1 15 220.891)"/><text fill="#000000" fill-opacity="1" font-family="Cambria Math,Cambria Math_MSFontService,sans-serif" font-style="normal" font-variant="normal" font-weight="400" font-stretch="normal" font-size="18" text-anchor="start" direction="ltr" writing-mode="lr-tb" unicode-bidi="normal" text-decoration="none" transform="matrix(1 0 0 0.990099 606.182 335)">𝑞</text><text fill="#000000" fill-opacity="1" font-family="Cambria Math,Cambria Math_MSFontService,sans-serif" font-style="normal" font-variant="normal" font-weight="400" font-stretch="normal" font-size="13" text-anchor="start" direction="ltr" writing-mode="lr-tb" unicode-bidi="normal" text-decoration="none" transform="matrix(1 0 0 0.990099 615.582 339)">𝑜</text><path d="M487.624 149.01 487.624 181.922" stroke="#7F7F7F" stroke-width="0.49505" stroke-linecap="butt" stroke-linejoin="miter" stroke-miterlimit="8" stroke-opacity="1" fill="none" fill-rule="evenodd" transform="matrix(1.01 0 0 1 15 220.891)"/><path d="M621.287 175.495 702.243 175.495 702.243 175.99 621.287 175.99ZM702.243 175.743 700.262 172.772 706.203 175.743 700.262 178.713Z" fill="#7F7F7F" fill-rule="nonzero" fill-opacity="1" transform="matrix(1.01 0 0 1 15 220.891)"/><path d="M705.446 149.01 705.446 181.315" stroke="#7F7F7F" stroke-width="0.49505" stroke-linecap="butt" stroke-linejoin="miter" stroke-miterlimit="8" stroke-opacity="1" fill="none" fill-rule="evenodd" transform="matrix(1.01 0 0 1 15 220.891)"/><path d="M2.2725e-07-0.247525 80.9555-0.247451 80.9555 0.247599-2.2725e-07 0.247525ZM80.9555 7.43246e-05 78.9753-2.97023 84.9159 7.79606e-05 78.9753 2.97037Z" fill="#7F7F7F" fill-rule="nonzero" fill-opacity="1" transform="matrix(-1.01 0 0 1 593.265 396.634)"/><text fill="#000000" fill-opacity="1" font-family="Cambria Math,Cambria Math_MSFontService,sans-serif" font-style="normal" font-variant="normal" font-weight="400" font-stretch="normal" font-size="18" text-anchor="start" direction="ltr" writing-mode="lr-tb" unicode-bidi="normal" text-decoration="none" transform="matrix(1 0 0 0.990099 613.412 403)">𝐿</text><text fill="#000000" fill-opacity="1" font-family="Cambria Math,Cambria Math_MSFontService,sans-serif" font-style="normal" font-variant="normal" font-weight="400" font-stretch="normal" font-size="16" text-anchor="start" direction="ltr" writing-mode="lr-tb" unicode-bidi="normal" text-decoration="none" transform="matrix(1 0 0 0.990099 508.083 326)">𝑢</text><text fill="#000000" fill-opacity="1" font-family="Cambria Math,Cambria Math_MSFontService,sans-serif" font-style="normal" font-variant="normal" font-weight="400" font-stretch="normal" font-size="16" text-anchor="start" direction="ltr" writing-mode="lr-tb" unicode-bidi="normal" text-decoration="none" transform="matrix(1 0 0 0.990099 522.058 326)">=</text><text fill="#000000" fill-opacity="1" font-family="Cambria Math,Cambria Math_MSFontService,sans-serif" font-style="normal" font-variant="normal" font-weight="400" font-stretch="normal" font-size="16" text-anchor="start" direction="ltr" writing-mode="lr-tb" unicode-bidi="normal" text-decoration="none" transform="matrix(1 0 0 0.990099 538.503 326)">0</text><path d="M0.199459-0.146576 18.7792 25.1365 18.3803 25.4296-0.199459 0.146576ZM-2.3935 1.75891C-3.36493 0.437015-3.08081-1.42209-1.75891-2.3935-0.437015-3.36493 1.42209-3.08081 2.3935-1.75891 3.36493-0.437015 3.08081 1.42209 1.75891 2.3935 0.437015 3.36493-1.42209 3.08081-2.3935 1.75891Z" fill="#000000" fill-rule="nonzero" fill-opacity="1" transform="matrix(1.01 0 0 -1 507.5 356.57)"/><path d="M23.2673 0C36.1175-2.96225e-15 46.5347 6.64925 46.5347 14.8515" stroke="#000000" stroke-width="0.49505" stroke-linecap="butt" stroke-linejoin="miter" stroke-miterlimit="8" stroke-opacity="1" fill="none" fill-rule="evenodd" transform="matrix(-1.01 0 0 1 713.5 334.257)"/><text fill="#000000" fill-opacity="1" font-family="Cambria Math,Cambria Math_MSFontService,sans-serif" font-style="normal" font-variant="normal" font-weight="400" font-stretch="normal" font-size="18" text-anchor="start" direction="ltr" writing-mode="lr-tb" unicode-bidi="normal" text-decoration="none" transform="matrix(1 0 0 0.990099 690.211 335)">𝐴</text><text fill="#000000" fill-opacity="1" font-family="Cambria Math,Cambria Math_MSFontService,sans-serif" font-style="normal" font-variant="normal" font-weight="400" font-stretch="normal" font-size="18" text-anchor="start" direction="ltr" writing-mode="lr-tb" unicode-bidi="normal" text-decoration="none" transform="matrix(1 0 0 0.990099 701.761 335)">,</text><text fill="#000000" fill-opacity="1" font-family="Cambria Math,Cambria Math_MSFontService,sans-serif" font-style="normal" font-variant="normal" font-weight="400" font-stretch="normal" font-size="18" text-anchor="start" direction="ltr" writing-mode="lr-tb" unicode-bidi="normal" text-decoration="none" transform="matrix(1 0 0 0.990099 708.511 335)">𝐸</text></g></g></g></g></g></svg>