<svg width="2776" height="1027" xmlns="http://www.w3.org/2000/svg" xmlns:xlink="http://www.w3.org/1999/xlink" xml:space="preserve" overflow="hidden"><defs><linearGradient x1="569" y1="922.5" x2="569" y2="792.5" gradientUnits="userSpaceOnUse" spreadMethod="reflect" id="fill0"><stop offset="0" stop-color="#BFBFBF"/><stop offset="0.16" stop-color="#BFBFBF"/><stop offset="0.5" stop-color="#7F7F7F"/><stop offset="0.85" stop-color="#BFBFBF"/><stop offset="1" stop-color="#BFBFBF"/></linearGradient><linearGradient x1="545.5" y1="843.5" x2="545.5" y2="817.5" gradientUnits="userSpaceOnUse" spreadMethod="reflect" id="fill1"><stop offset="0" stop-color="#BFBFBF"/><stop offset="0.16" stop-color="#BFBFBF"/><stop offset="0.5" stop-color="#7F7F7F"/><stop offset="0.85" stop-color="#BFBFBF"/><stop offset="1" stop-color="#BFBFBF"/></linearGradient><linearGradient x1="545.5" y1="869.5" x2="545.5" y2="843.5" gradientUnits="userSpaceOnUse" spreadMethod="reflect" id="fill2"><stop offset="0" stop-color="#BFBFBF"/><stop offset="0.16" stop-color="#BFBFBF"/><stop offset="0.5" stop-color="#7F7F7F"/><stop offset="0.85" stop-color="#BFBFBF"/><stop offset="1" stop-color="#BFBFBF"/></linearGradient><linearGradient x1="545.5" y1="895.5" x2="545.5" y2="869.5" gradientUnits="userSpaceOnUse" spreadMethod="reflect" id="fill3"><stop offset="0" stop-color="#BFBFBF"/><stop offset="0.16" stop-color="#BFBFBF"/><stop offset="0.5" stop-color="#7F7F7F"/><stop offset="0.85" stop-color="#BFBFBF"/><stop offset="1" stop-color="#BFBFBF"/></linearGradient><linearGradient x1="523" y1="922.5" x2="523" y2="792.5" gradientUnits="userSpaceOnUse" spreadMethod="reflect" id="fill4"><stop offset="0" stop-color="#BFBFBF"/><stop offset="0.16" stop-color="#BFBFBF"/><stop offset="0.5" stop-color="#7F7F7F"/><stop offset="0.85" stop-color="#BFBFBF"/><stop offset="1" stop-color="#BFBFBF"/></linearGradient><linearGradient x1="547.5" y1="1567.5" x2="547.5" y2="1437.5" gradientUnits="userSpaceOnUse" spreadMethod="reflect" id="fill5"><stop offset="0" stop-color="#BFBFBF"/><stop offset="0.16" stop-color="#BFBFBF"/><stop offset="0.5" stop-color="#7F7F7F"/><stop offset="0.85" stop-color="#BFBFBF"/><stop offset="1" stop-color="#BFBFBF"/></linearGradient><linearGradient x1="602" y1="1463.5" x2="602" y2="1541.5" gradientUnits="userSpaceOnUse" spreadMethod="reflect" id="fill6"><stop offset="0" stop-color="#BFBFBF"/><stop offset="0.16" stop-color="#BFBFBF"/><stop offset="0.5" stop-color="#7F7F7F"/><stop offset="0.85" stop-color="#BFBFBF"/><stop offset="1" stop-color="#BFBFBF"/></linearGradient><linearGradient x1="602.5" y1="818.5" x2="602.5" y2="896.5" gradientUnits="userSpaceOnUse" spreadMethod="reflect" id="fill7"><stop offset="0" stop-color="#BFBFBF"/><stop offset="0.16" stop-color="#BFBFBF"/><stop offset="0.5" stop-color="#7F7F7F"/><stop offset="0.85" stop-color="#BFBFBF"/><stop offset="1" stop-color="#BFBFBF"/></linearGradient></defs><g transform="translate(-170 -710)"><rect x="562.5" y="792.5" width="13.0001" height="130" stroke="#41719C" stroke-width="1.14583" stroke-miterlimit="8" fill="url(#fill0)"/><path d="M532.5 830.5C532.5 823.32 538.32 817.5 545.5 817.5 552.68 817.5 558.5 823.32 558.5 830.5 558.5 837.68 552.68 843.5 545.5 843.5 538.32 843.5 532.5 837.68 532.5 830.5Z" stroke="#223F59" stroke-width="4.58333" stroke-miterlimit="8" fill="url(#fill1)" fill-rule="evenodd"/><path d="M532.5 856.5C532.5 849.32 538.32 843.5 545.5 843.5 552.68 843.5 558.5 849.32 558.5 856.5 558.5 863.68 552.68 869.5 545.5 869.5 538.32 869.5 532.5 863.68 532.5 856.5Z" stroke="#223F59" stroke-width="4.58333" stroke-miterlimit="8" fill="url(#fill2)" fill-rule="evenodd"/><path d="M532.5 882.5C532.5 875.32 538.32 869.5 545.5 869.5 552.68 869.5 558.5 875.32 558.5 882.5 558.5 889.68 552.68 895.5 545.5 895.5 538.32 895.5 532.5 889.68 532.5 882.5Z" stroke="#223F59" stroke-width="4.58333" stroke-miterlimit="8" fill="url(#fill3)" fill-rule="evenodd"/><rect x="516.5" y="792.5" width="12.9997" height="130" stroke="#41719C" stroke-width="1.14583" stroke-miterlimit="8" fill="url(#fill4)"/><rect x="647.5" y="853.5" width="649" height="650" stroke="#000000" stroke-width="1.14583" stroke-miterlimit="8" fill="#BDD7EE"/><path d="M0.0138215-3.43747 241.523-2.4664 241.495 4.40854-0.0138215 3.43747ZM241.509 0.971069 232.398-12.8157 259.843 1.04478 232.287 14.6841Z" transform="matrix(1 0 0 -1 1306.5 858.545)"/><path d="M1713.73 833.253C1711.86 833.253 1710.3 833.807 1709.05 834.915 1707.79 836.022 1706.78 837.617 1706.01 839.697 1705.24 841.777 1704.69 844.31 1704.36 847.296 1704.04 850.281 1703.88 853.652 1703.88 857.407 1703.88 866.215 1704.7 872.679 1706.33 876.8 1707.96 880.92 1710.5 882.98 1713.93 882.98 1717.2 882.98 1719.62 881.042 1721.2 877.164 1722.78 873.287 1723.57 867.283 1723.57 859.15 1723.57 852.936 1723.17 847.904 1722.36 844.054 1721.55 840.204 1720.42 837.441 1718.97 835.766 1717.53 834.091 1715.78 833.253 1713.73 833.253ZM1667.73 833.253C1665.86 833.253 1664.3 833.807 1663.05 834.915 1661.79 836.022 1660.78 837.617 1660.01 839.697 1659.24 841.777 1658.69 844.31 1658.36 847.296 1658.04 850.281 1657.88 853.652 1657.88 857.407 1657.88 866.215 1658.7 872.679 1660.33 876.8 1661.96 880.92 1664.5 882.98 1667.93 882.98 1671.2 882.98 1673.62 881.042 1675.2 877.164 1676.78 873.287 1677.57 867.283 1677.57 859.15 1677.57 852.936 1677.17 847.904 1676.36 844.054 1675.55 840.204 1674.42 837.441 1672.97 835.766 1671.53 834.091 1669.78 833.253 1667.73 833.253ZM1713.93 829.808C1719.85 829.808 1724.25 832.091 1727.14 836.657 1730.03 841.224 1731.48 848.127 1731.48 857.367 1731.48 866.931 1729.93 874.165 1726.84 879.069 1723.74 883.973 1719.22 886.425 1713.28 886.425 1707.44 886.425 1703.1 884.128 1700.25 879.535 1697.4 874.942 1695.98 867.972 1695.98 858.623 1695.98 853.652 1696.41 849.356 1697.29 845.736 1698.17 842.115 1699.4 839.123 1700.98 836.759 1702.56 834.395 1704.46 832.645 1706.67 831.51 1708.89 830.376 1711.31 829.808 1713.93 829.808ZM1667.93 829.808C1673.85 829.808 1678.25 832.091 1681.14 836.657 1684.03 841.224 1685.48 848.127 1685.48 857.367 1685.48 866.931 1683.93 874.165 1680.84 879.069 1677.74 883.973 1673.22 886.425 1667.28 886.425 1661.44 886.425 1657.1 884.128 1654.25 879.535 1651.4 874.942 1649.98 867.972 1649.98 858.623 1649.98 853.652 1650.41 849.356 1651.29 845.736 1652.17 842.115 1653.4 839.123 1654.98 836.759 1656.56 834.395 1658.46 832.645 1660.67 831.51 1662.89 830.376 1665.31 829.808 1667.93 829.808ZM1624.93 829.808 1627.16 829.808C1626.99 832.402 1626.91 835.995 1626.91 840.589L1626.91 875.199C1626.91 876.766 1627 877.948 1627.18 878.745 1627.35 879.542 1627.66 880.191 1628.11 880.69 1628.56 881.19 1629.2 881.582 1630.03 881.866 1630.87 882.149 1631.93 882.365 1633.2 882.514 1634.47 882.663 1636.14 882.764 1638.22 882.818L1638.22 885.777 1608.27 885.777 1608.27 882.818C1611.27 882.683 1613.41 882.501 1614.69 882.271 1615.98 882.041 1616.96 881.697 1617.63 881.237 1618.31 880.778 1618.8 880.13 1619.11 879.292 1619.42 878.455 1619.58 877.09 1619.58 875.199L1619.58 842.331C1619.58 841.25 1619.39 840.46 1619.01 839.96 1618.63 839.461 1618.08 839.211 1617.35 839.211 1616.48 839.211 1615.26 839.656 1613.66 840.548 1612.07 841.44 1610.1 842.669 1607.74 844.236L1605.96 841.115Z" fill-rule="evenodd"/><text fill="#000000" fill-opacity="0" font-family="Arial,Arial_MSFontService,sans-serif" font-size="56.6167" x="1605.96" y="879.348">100</text><path d="M1767.43 830.457 1780.36 830.457 1791.06 862.028C1792.6 866.567 1793.78 870.403 1794.62 873.537L1795.07 873.537C1795.28 871.889 1795.78 869.147 1796.55 865.31 1797.32 861.474 1798.03 858.123 1798.67 855.259L1801.51 842.493C1802.11 839.819 1802.4 837.644 1802.4 835.968 1802.4 834.699 1802.09 833.814 1801.45 833.314 1800.82 832.814 1799.81 832.524 1798.43 832.443L1798.88 830.457 1813.06 830.457 1812.62 832.443C1811.59 832.659 1810.85 832.902 1810.41 833.172 1809.96 833.442 1809.56 833.848 1809.21 834.388 1808.86 834.928 1808.5 835.773 1808.12 836.921 1807.74 838.069 1807.27 839.94 1806.7 842.534L1797.17 885.777 1791.66 885.777 1779.83 851.004C1778.4 846.843 1777.14 842.696 1776.06 838.562L1775.53 838.562C1775.37 839.94 1774.93 842.568 1774.2 846.445 1773.47 850.322 1772.7 854.111 1771.89 857.813L1768.32 873.983C1767.75 876.55 1767.47 878.657 1767.47 880.305 1767.47 881.521 1767.77 882.379 1768.38 882.879 1768.99 883.379 1770.01 883.683 1771.44 883.791L1770.99 885.777 1756.81 885.777 1757.26 883.791C1758.28 883.629 1759.05 883.365 1759.57 883 1760.08 882.636 1760.51 882.129 1760.86 881.481 1761.21 880.832 1761.54 880.042 1761.84 879.11 1762.13 878.178 1762.58 876.374 1763.17 873.699L1770.06 842.493C1770.33 841.332 1770.55 840.224 1770.71 839.17 1770.87 838.116 1770.95 837.049 1770.95 835.968 1770.95 834.699 1770.64 833.814 1770 833.314 1769.37 832.814 1768.36 832.524 1766.98 832.443Z" fill-rule="evenodd"/><text fill="#000000" fill-opacity="0" font-family="Arial,Arial_MSFontService,sans-serif" font-size="55.3198" x="1756.81" y="878.862">𝑁</text><path d="M647.286 1736.79 647 1531" stroke="#7F7F7F" stroke-width="2.29167" stroke-miterlimit="8" fill="none" fill-rule="evenodd"/><path d="M1164 1681.85 1275.59 1681.85 1275.59 1684.15 1164 1684.15ZM1275.59 1683 1266.42 1669.25 1293.92 1683 1266.42 1696.75Z" fill="#7F7F7F"/><path d="M3.18287e-06-1.14583 111.588-1.14552 111.588 1.14614-3.18287e-06 1.14583ZM111.588 0.000309966 102.421-13.7497 129.921 0.000360892 102.421 13.7503Z" fill="#7F7F7F" transform="matrix(-1 0 0 1 776.921 1683)"/><path d="M909.352 1647.98C907.488 1647.98 905.927 1648.53 904.671 1649.64 903.415 1650.75 902.401 1652.34 901.631 1654.42 900.861 1656.5 900.314 1659.03 899.99 1662.02 899.666 1665.01 899.504 1668.38 899.504 1672.13 899.504 1680.94 900.321 1687.4 901.956 1691.52 903.59 1695.64 906.123 1697.7 909.555 1697.7 912.824 1697.7 915.249 1695.77 916.829 1691.89 918.41 1688.01 919.2 1682.01 919.2 1673.87 919.2 1667.66 918.795 1662.63 917.984 1658.78 917.174 1654.93 916.046 1652.17 914.6 1650.49 913.155 1648.81 911.405 1647.98 909.352 1647.98ZM909.555 1644.53C915.471 1644.53 919.875 1646.82 922.766 1651.38 925.657 1655.95 927.103 1662.85 927.103 1672.09 927.103 1681.66 925.556 1688.89 922.462 1693.79 919.369 1698.7 914.85 1701.15 908.906 1701.15 903.07 1701.15 898.727 1698.85 895.877 1694.26 893.026 1689.67 891.601 1682.7 891.601 1673.35 891.601 1668.38 892.04 1664.08 892.918 1660.46 893.796 1656.84 895.025 1653.85 896.606 1651.48 898.187 1649.12 900.085 1647.37 902.3 1646.23 904.516 1645.1 906.934 1644.53 909.555 1644.53ZM863.676 1644.53C868.701 1644.53 872.498 1645.63 875.064 1647.84 877.631 1650.04 878.914 1653.23 878.914 1657.42 878.914 1658.85 878.773 1660.17 878.489 1661.37 878.205 1662.57 877.759 1663.76 877.151 1664.94 876.544 1666.11 875.726 1667.38 874.7 1668.73 873.673 1670.08 872.538 1671.45 871.295 1672.84 870.052 1674.23 867.904 1676.55 864.851 1679.79 859.718 1685.22 855.949 1689.96 853.544 1694.02L868.823 1694.02C870.147 1694.02 871.214 1693.94 872.025 1693.77 872.835 1693.61 873.484 1693.34 873.97 1692.96 874.456 1692.58 874.841 1692.09 875.125 1691.48 875.409 1690.88 875.767 1689.94 876.199 1688.67L879.644 1688.67 878.955 1700.5 845.601 1700.5 845.601 1698.56C846.763 1695.72 848.33 1692.81 850.302 1689.84 852.274 1686.87 855.071 1683.37 858.691 1679.35 861.825 1675.89 864.081 1673.27 865.459 1671.48 866.972 1669.54 868.1 1667.86 868.843 1666.44 869.586 1665.02 870.12 1663.68 870.444 1662.43 870.768 1661.17 870.93 1659.91 870.93 1658.64 870.93 1656.61 870.606 1654.82 869.958 1653.27 869.309 1651.71 868.316 1650.49 866.979 1649.6 865.642 1648.71 863.96 1648.26 861.933 1648.26 856.881 1648.26 853.477 1651.07 851.721 1656.69L846.817 1656.69 846.817 1648.91C850.086 1647.37 853.146 1646.26 855.996 1645.57 858.847 1644.88 861.407 1644.53 863.676 1644.53Z" fill-rule="evenodd"/><text fill="#000000" fill-opacity="0" font-family="Arial,Arial_MSFontService,sans-serif" font-size="56.6167" x="845.601" y="1694.07">20</text><path d="M1032.14 1661.07C1033.84 1661.07 1035.19 1661.63 1036.17 1662.75 1037.16 1663.87 1037.65 1665.34 1037.65 1667.15 1037.65 1668.63 1037.34 1670.21 1036.72 1671.89L1037.2 1672.05C1039.69 1668.35 1042.16 1665.6 1044.62 1663.8 1047.08 1662.01 1049.57 1661.11 1052.08 1661.11 1054.67 1661.11 1056.64 1661.84 1058 1663.32 1059.35 1664.79 1060.02 1666.92 1060.02 1669.7L1060.02 1670.27C1060.02 1670.46 1060.01 1670.66 1059.98 1670.88 1062.3 1667.58 1064.62 1665.13 1066.93 1663.52 1069.24 1661.91 1071.64 1661.11 1074.13 1661.11 1076.61 1661.11 1078.53 1661.82 1079.88 1663.26 1081.23 1664.69 1081.91 1666.7 1081.91 1669.29 1081.91 1671 1081.51 1673.42 1080.73 1676.55L1078.1 1687.17C1077.37 1690.11 1077 1692.19 1077 1693.41 1077 1694.49 1077.18 1695.27 1077.53 1695.76 1077.88 1696.25 1078.43 1696.49 1079.19 1696.49 1080 1696.49 1080.87 1696.16 1081.78 1695.5 1082.7 1694.83 1084 1693.57 1085.68 1691.71L1087.99 1693.98C1085.66 1696.43 1083.64 1698.24 1081.91 1699.41 1080.18 1700.57 1078.21 1701.15 1075.99 1701.15 1074.23 1701.15 1072.83 1700.52 1071.77 1699.26 1070.72 1698.01 1070.19 1696.41 1070.19 1694.46 1070.19 1692.71 1070.64 1690.13 1071.53 1686.72L1073.31 1679.71C1073.96 1677.17 1074.39 1675.29 1074.59 1674.08 1074.79 1672.86 1074.9 1671.88 1074.9 1671.12 1074.9 1669.25 1074.58 1667.91 1073.96 1667.09 1073.34 1666.26 1072.33 1665.85 1070.92 1665.85 1069.79 1665.85 1068.57 1666.28 1067.28 1667.13 1065.98 1667.98 1064.61 1669.3 1063.18 1671.1 1061.75 1672.9 1060.58 1674.66 1059.68 1676.41 1058.77 1678.15 1058.05 1680.28 1057.51 1682.79L1053.82 1700.5 1046.81 1700.5 1051.47 1679.91C1052.04 1677.4 1052.42 1675.54 1052.63 1674.34 1052.83 1673.14 1052.93 1672.1 1052.93 1671.24 1052.93 1669.29 1052.58 1667.91 1051.9 1667.09 1051.21 1666.26 1050.13 1665.85 1048.67 1665.85 1047.65 1665.85 1046.48 1666.28 1045.17 1667.13 1043.86 1667.98 1042.46 1669.34 1040.97 1671.22 1039.49 1673.1 1038.33 1674.9 1037.49 1676.63 1036.65 1678.36 1035.95 1680.47 1035.38 1682.95L1031.53 1700.5 1024.52 1700.5 1030.44 1674.81C1031.03 1672.21 1031.33 1670.21 1031.33 1668.81 1031.33 1667.73 1031.15 1666.94 1030.8 1666.46 1030.45 1665.97 1029.9 1665.73 1029.14 1665.73 1028.3 1665.73 1027.42 1666.07 1026.49 1666.76 1025.55 1667.45 1024.28 1668.7 1022.66 1670.51L1020.35 1668.24C1022.72 1665.76 1024.77 1663.94 1026.49 1662.79 1028.2 1661.64 1030.09 1661.07 1032.14 1661.07ZM963.139 1661.07C964.841 1661.07 966.185 1661.63 967.171 1662.75 968.158 1663.87 968.651 1665.34 968.651 1667.15 968.651 1668.63 968.34 1670.21 967.719 1671.89L968.205 1672.05C970.691 1668.35 973.163 1665.6 975.621 1663.8 978.08 1662.01 980.566 1661.11 983.078 1661.11 985.672 1661.11 987.645 1661.84 988.995 1663.32 990.346 1664.79 991.022 1666.92 991.022 1669.7L991.022 1670.27C991.022 1670.46 991.008 1670.66 990.981 1670.88 993.305 1667.58 995.622 1665.13 997.932 1663.52 1000.24 1661.91 1002.64 1661.11 1005.13 1661.11 1007.61 1661.11 1009.53 1661.82 1010.88 1663.26 1012.23 1664.69 1012.91 1666.7 1012.91 1669.29 1012.91 1671 1012.51 1673.42 1011.73 1676.55L1009.1 1687.17C1008.37 1690.11 1008 1692.19 1008 1693.41 1008 1694.49 1008.18 1695.27 1008.53 1695.76 1008.88 1696.25 1009.43 1696.49 1010.19 1696.49 1011 1696.49 1011.87 1696.16 1012.78 1695.5 1013.7 1694.83 1015 1693.57 1016.68 1691.71L1018.99 1693.98C1016.66 1696.43 1014.64 1698.24 1012.91 1699.41 1011.18 1700.57 1009.21 1701.15 1006.99 1701.15 1005.23 1701.15 1003.83 1700.52 1002.77 1699.26 1001.72 1698.01 1001.19 1696.41 1001.19 1694.46 1001.19 1692.71 1001.64 1690.13 1002.53 1686.72L1004.31 1679.71C1004.96 1677.17 1005.39 1675.29 1005.59 1674.08 1005.79 1672.86 1005.9 1671.88 1005.9 1671.12 1005.9 1669.25 1005.58 1667.91 1004.96 1667.09 1004.34 1666.26 1003.33 1665.85 1001.92 1665.85 1000.79 1665.85 999.573 1666.28 998.276 1667.13 996.979 1667.98 995.615 1669.3 994.183 1671.1 992.751 1672.9 991.582 1674.66 990.677 1676.41 989.772 1678.15 989.049 1680.28 988.509 1682.79L984.821 1700.5 977.81 1700.5 982.471 1679.91C983.038 1677.4 983.423 1675.54 983.626 1674.34 983.828 1673.14 983.93 1672.1 983.93 1671.24 983.93 1669.29 983.585 1667.91 982.896 1667.09 982.207 1666.26 981.133 1665.85 979.674 1665.85 978.647 1665.85 977.479 1666.28 976.169 1667.13 974.858 1667.98 973.46 1669.34 971.974 1671.22 970.488 1673.1 969.326 1674.9 968.489 1676.63 967.651 1678.36 966.949 1680.47 966.381 1682.95L962.531 1700.5 955.52 1700.5 961.437 1674.81C962.031 1672.21 962.328 1670.21 962.328 1668.81 962.328 1667.73 962.153 1666.94 961.802 1666.46 961.45 1665.97 960.896 1665.73 960.14 1665.73 959.302 1665.73 958.418 1666.07 957.485 1666.76 956.553 1667.45 955.277 1668.7 953.656 1670.51L951.346 1668.24C953.723 1665.76 955.77 1663.94 957.485 1662.79 959.201 1661.64 961.086 1661.07 963.139 1661.07Z" fill-rule="evenodd"/><text fill="#000000" fill-opacity="0" font-family="Arial,Arial_MSFontService,sans-serif" font-size="40.0815" x="951.346" y="1696.14">𝑚𝑚</text><path d="M0.0138215-3.43747 241.523-2.4664 241.495 4.40854-0.0138215 3.43747ZM241.509 0.971069 232.398-12.8157 259.843 1.04478 232.287 14.6841Z" transform="matrix(1 0 0 -1 1309.5 1503.54)"/><rect x="534.5" y="1437.5" width="26.0001" height="130" stroke="#41719C" stroke-width="1.14583" stroke-miterlimit="8" fill="url(#fill5)"/><path d="M563.5 1463.5 640.5 1502.5 563.5 1541.5Z" stroke="#223F59" stroke-width="4.58333" stroke-miterlimit="8" fill="url(#fill6)" fill-rule="evenodd"/><path d="M563.5 818.5 641.5 857.5 563.5 896.5Z" stroke="#223F59" stroke-width="4.58333" stroke-miterlimit="8" fill="url(#fill7)" fill-rule="evenodd"/><path d="M1713.73 1477.54C1711.86 1477.54 1710.3 1478.09 1709.05 1479.2 1707.79 1480.31 1706.78 1481.9 1706.01 1483.98 1705.24 1486.06 1704.69 1488.59 1704.36 1491.58 1704.04 1494.56 1703.88 1497.94 1703.88 1501.69 1703.88 1510.5 1704.7 1516.96 1706.33 1521.08 1707.96 1525.2 1710.5 1527.26 1713.93 1527.26 1717.2 1527.26 1719.62 1525.32 1721.2 1521.45 1722.78 1517.57 1723.57 1511.57 1723.57 1503.43 1723.57 1497.22 1723.17 1492.19 1722.36 1488.34 1721.55 1484.49 1720.42 1481.72 1718.97 1480.05 1717.53 1478.37 1715.78 1477.54 1713.73 1477.54ZM1667.73 1477.54C1665.86 1477.54 1664.3 1478.09 1663.05 1479.2 1661.79 1480.31 1660.78 1481.9 1660.01 1483.98 1659.24 1486.06 1658.69 1488.59 1658.36 1491.58 1658.04 1494.56 1657.88 1497.94 1657.88 1501.69 1657.88 1510.5 1658.7 1516.96 1660.33 1521.08 1661.96 1525.2 1664.5 1527.26 1667.93 1527.26 1671.2 1527.26 1673.62 1525.32 1675.2 1521.45 1676.78 1517.57 1677.57 1511.57 1677.57 1503.43 1677.57 1497.22 1677.17 1492.19 1676.36 1488.34 1675.55 1484.49 1674.42 1481.72 1672.97 1480.05 1671.53 1478.37 1669.78 1477.54 1667.73 1477.54ZM1713.93 1474.09C1719.85 1474.09 1724.25 1476.37 1727.14 1480.94 1730.03 1485.51 1731.48 1492.41 1731.48 1501.65 1731.48 1511.21 1729.93 1518.45 1726.84 1523.35 1723.74 1528.26 1719.22 1530.71 1713.28 1530.71 1707.44 1530.71 1703.1 1528.41 1700.25 1523.82 1697.4 1519.23 1695.98 1512.25 1695.98 1502.91 1695.98 1497.94 1696.41 1493.64 1697.29 1490.02 1698.17 1486.4 1699.4 1483.41 1700.98 1481.04 1702.56 1478.68 1704.46 1476.93 1706.67 1475.79 1708.89 1474.66 1711.31 1474.09 1713.93 1474.09ZM1667.93 1474.09C1673.85 1474.09 1678.25 1476.37 1681.14 1480.94 1684.03 1485.51 1685.48 1492.41 1685.48 1501.65 1685.48 1511.21 1683.93 1518.45 1680.84 1523.35 1677.74 1528.26 1673.22 1530.71 1667.28 1530.71 1661.44 1530.71 1657.1 1528.41 1654.25 1523.82 1651.4 1519.23 1649.98 1512.25 1649.98 1502.91 1649.98 1497.94 1650.41 1493.64 1651.29 1490.02 1652.17 1486.4 1653.4 1483.41 1654.98 1481.04 1656.56 1478.68 1658.46 1476.93 1660.67 1475.79 1662.89 1474.66 1665.31 1474.09 1667.93 1474.09ZM1624.93 1474.09 1627.16 1474.09C1626.99 1476.69 1626.91 1480.28 1626.91 1484.87L1626.91 1519.48C1626.91 1521.05 1627 1522.23 1627.18 1523.03 1627.35 1523.83 1627.66 1524.47 1628.11 1524.97 1628.56 1525.47 1629.2 1525.87 1630.03 1526.15 1630.87 1526.43 1631.93 1526.65 1633.2 1526.8 1634.47 1526.95 1636.14 1527.05 1638.22 1527.1L1638.22 1530.06 1608.27 1530.06 1608.27 1527.1C1611.27 1526.97 1613.41 1526.78 1614.69 1526.55 1615.98 1526.32 1616.96 1525.98 1617.63 1525.52 1618.31 1525.06 1618.8 1524.41 1619.11 1523.58 1619.42 1522.74 1619.58 1521.37 1619.58 1519.48L1619.58 1486.61C1619.58 1485.53 1619.39 1484.74 1619.01 1484.24 1618.63 1483.74 1618.08 1483.49 1617.35 1483.49 1616.48 1483.49 1615.26 1483.94 1613.66 1484.83 1612.07 1485.72 1610.1 1486.95 1607.74 1488.52L1605.96 1485.4Z" fill-rule="evenodd"/><text fill="#000000" fill-opacity="0" font-family="Arial,Arial_MSFontService,sans-serif" font-size="56.6167" x="1605.96" y="1523.63">100</text><path d="M1767.43 1474.74 1780.36 1474.74 1791.06 1506.31C1792.6 1510.85 1793.78 1514.69 1794.62 1517.82L1795.07 1517.82C1795.28 1516.17 1795.78 1513.43 1796.55 1509.59 1797.32 1505.76 1798.03 1502.41 1798.67 1499.54L1801.51 1486.78C1802.11 1484.1 1802.4 1481.93 1802.4 1480.25 1802.4 1478.98 1802.09 1478.1 1801.45 1477.6 1800.82 1477.1 1799.81 1476.81 1798.43 1476.73L1798.88 1474.74 1813.06 1474.74 1812.62 1476.73C1811.59 1476.94 1810.85 1477.19 1810.41 1477.46 1809.96 1477.73 1809.56 1478.13 1809.21 1478.67 1808.86 1479.21 1808.5 1480.06 1808.12 1481.2 1807.74 1482.35 1807.27 1484.22 1806.7 1486.82L1797.17 1530.06 1791.66 1530.06 1779.83 1495.29C1778.4 1491.13 1777.14 1486.98 1776.06 1482.85L1775.53 1482.85C1775.37 1484.22 1774.93 1486.85 1774.2 1490.73 1773.47 1494.6 1772.7 1498.39 1771.89 1502.1L1768.32 1518.27C1767.75 1520.83 1767.47 1522.94 1767.47 1524.59 1767.47 1525.8 1767.77 1526.66 1768.38 1527.16 1768.99 1527.66 1770.01 1527.97 1771.44 1528.07L1770.99 1530.06 1756.81 1530.06 1757.26 1528.07C1758.28 1527.91 1759.05 1527.65 1759.57 1527.28 1760.08 1526.92 1760.51 1526.41 1760.86 1525.76 1761.21 1525.12 1761.54 1524.33 1761.84 1523.39 1762.13 1522.46 1762.58 1520.66 1763.17 1517.98L1770.06 1486.78C1770.33 1485.61 1770.55 1484.51 1770.71 1483.45 1770.87 1482.4 1770.95 1481.33 1770.95 1480.25 1770.95 1478.98 1770.64 1478.1 1770 1477.6 1769.37 1477.1 1768.36 1476.81 1766.98 1476.73Z" fill-rule="evenodd"/><text fill="#000000" fill-opacity="0" font-family="Arial,Arial_MSFontService,sans-serif" font-size="55.3198" x="1756.81" y="1523.14">𝑁</text><path d="M1296.29 1736.79 1296 1531" stroke="#7F7F7F" stroke-width="2.29167" stroke-miterlimit="8" fill="none" fill-rule="evenodd"/><path d="M267 1508.29 472.795 1508" stroke="#7F7F7F" stroke-width="2.29167" stroke-miterlimit="8" fill="none" fill-rule="evenodd"/><path d="M320.146 1369 320.146 1480.59 317.854 1480.59 317.854 1369ZM319 1480.59 332.75 1471.42 319 1498.92 305.25 1471.42Z" fill="#7F7F7F"/><path d="M3.18287e-06-1.14583 111.588-1.14552 111.588 1.14614-3.18287e-06 1.14583ZM111.588 0.000309966 102.421-13.7497 129.921 0.000360892 102.421 13.7503Z" fill="#7F7F7F" transform="matrix(-6.12323e-17 -1 -1 6.12323e-17 319 982.921)"/><path d="M272.307 1170.35C270.443 1170.35 268.882 1170.91 267.626 1172.01 266.37 1173.12 265.356 1174.72 264.586 1176.8 263.816 1178.88 263.269 1181.41 262.945 1184.4 262.621 1187.38 262.459 1190.75 262.459 1194.51 262.459 1203.32 263.276 1209.78 264.911 1213.9 266.545 1218.02 269.078 1220.08 272.509 1220.08 275.779 1220.08 278.204 1218.14 279.784 1214.26 281.365 1210.39 282.155 1204.38 282.155 1196.25 282.155 1190.04 281.75 1185 280.939 1181.15 280.129 1177.3 279.001 1174.54 277.555 1172.87 276.11 1171.19 274.36 1170.35 272.307 1170.35ZM272.509 1166.91C278.426 1166.91 282.83 1169.19 285.721 1173.76 288.612 1178.32 290.058 1185.23 290.058 1194.47 290.058 1204.03 288.511 1211.27 285.417 1216.17 282.324 1221.07 277.805 1223.52 271.861 1223.52 266.025 1223.52 261.682 1221.23 258.832 1216.64 255.981 1212.04 254.556 1205.07 254.556 1195.72 254.556 1190.75 254.995 1186.46 255.873 1182.84 256.751 1179.21 257.98 1176.22 259.561 1173.86 261.142 1171.49 263.04 1169.74 265.255 1168.61 267.471 1167.48 269.889 1166.91 272.509 1166.91ZM226.631 1166.91C231.656 1166.91 235.453 1168.01 238.019 1170.21 240.586 1172.41 241.869 1175.61 241.869 1179.8 241.869 1181.23 241.728 1182.54 241.444 1183.75 241.16 1184.95 240.714 1186.14 240.106 1187.31 239.499 1188.49 238.681 1189.75 237.655 1191.1 236.628 1192.45 235.493 1193.82 234.25 1195.22 233.007 1196.61 230.859 1198.92 227.806 1202.17 222.673 1207.6 218.904 1212.34 216.499 1216.39L231.778 1216.39C233.102 1216.39 234.169 1216.31 234.98 1216.15 235.79 1215.99 236.439 1215.72 236.925 1215.34 237.411 1214.96 237.796 1214.47 238.08 1213.86 238.364 1213.25 238.722 1212.31 239.154 1211.04L242.599 1211.04 241.91 1222.88 208.556 1222.88 208.556 1220.93C209.718 1218.09 211.285 1215.19 213.257 1212.22 215.229 1209.25 218.026 1205.75 221.646 1201.72 224.78 1198.26 227.036 1195.64 228.414 1193.86 229.927 1191.91 231.055 1190.23 231.798 1188.81 232.541 1187.39 233.075 1186.06 233.399 1184.8 233.723 1183.54 233.885 1182.28 233.885 1181.01 233.885 1178.99 233.561 1177.2 232.913 1175.64 232.264 1174.09 231.271 1172.87 229.934 1171.97 228.597 1171.08 226.915 1170.64 224.888 1170.64 219.836 1170.64 216.432 1173.45 214.676 1179.07L209.772 1179.07 209.772 1171.29C213.041 1169.74 216.101 1168.63 218.951 1167.94 221.802 1167.25 224.362 1166.91 226.631 1166.91Z" fill-rule="evenodd"/><text fill="#000000" fill-opacity="0" font-family="Arial,Arial_MSFontService,sans-serif" font-size="56.6167" x="208.556" y="1216.45">20</text><path d="M395.094 1183.44C396.796 1183.44 398.14 1184 399.126 1185.13 400.113 1186.25 400.606 1187.71 400.606 1189.52 400.606 1191.01 400.295 1192.59 399.674 1194.26L400.16 1194.43C402.646 1190.72 405.118 1187.98 407.576 1186.18 410.035 1184.38 412.521 1183.48 415.033 1183.48 417.627 1183.48 419.599 1184.22 420.95 1185.69 422.301 1187.17 422.977 1189.29 422.977 1192.08L422.977 1192.64C422.977 1192.83 422.963 1193.03 422.936 1193.25 425.26 1189.95 427.577 1187.5 429.887 1185.9 432.197 1184.29 434.595 1183.48 437.08 1183.48 439.566 1183.48 441.484 1184.2 442.835 1185.63 444.186 1187.06 444.862 1189.08 444.862 1191.67 444.862 1193.37 444.47 1195.79 443.686 1198.92L441.052 1209.54C440.322 1212.49 439.958 1214.57 439.958 1215.78 439.958 1216.86 440.133 1217.65 440.485 1218.13 440.836 1218.62 441.39 1218.86 442.146 1218.86 442.957 1218.86 443.821 1218.53 444.74 1217.87 445.659 1217.21 446.955 1215.95 448.631 1214.08L450.941 1216.35C448.617 1218.81 446.591 1220.62 444.862 1221.78 443.132 1222.94 441.16 1223.52 438.945 1223.52 437.188 1223.52 435.783 1222.9 434.73 1221.64 433.676 1220.38 433.149 1218.78 433.149 1216.84 433.149 1215.08 433.595 1212.5 434.487 1209.1L436.27 1202.09C436.918 1199.55 437.344 1197.67 437.546 1196.45 437.749 1195.24 437.85 1194.25 437.85 1193.49 437.85 1191.63 437.54 1190.29 436.918 1189.46 436.297 1188.64 435.284 1188.23 433.879 1188.23 432.744 1188.23 431.528 1188.65 430.231 1189.5 428.934 1190.35 427.57 1191.68 426.138 1193.47 424.706 1195.27 423.537 1197.04 422.632 1198.78 421.727 1200.53 421.004 1202.65 420.464 1205.17L416.776 1222.88 409.765 1222.88 414.426 1202.29C414.993 1199.78 415.378 1197.92 415.581 1196.72 415.783 1195.51 415.884 1194.48 415.884 1193.62 415.884 1191.67 415.54 1190.29 414.851 1189.46 414.162 1188.64 413.088 1188.23 411.629 1188.23 410.602 1188.23 409.434 1188.65 408.124 1189.5 406.813 1190.35 405.415 1191.72 403.929 1193.6 402.443 1195.47 401.281 1197.28 400.444 1199.01 399.606 1200.73 398.904 1202.84 398.336 1205.33L394.486 1222.88 387.475 1222.88 393.392 1197.18C393.986 1194.59 394.283 1192.59 394.283 1191.18 394.283 1190.1 394.108 1189.32 393.757 1188.83 393.405 1188.35 392.851 1188.1 392.095 1188.1 391.257 1188.1 390.373 1188.45 389.44 1189.14 388.508 1189.83 387.232 1191.08 385.611 1192.89L383.301 1190.62C385.678 1188.13 387.725 1186.31 389.44 1185.17 391.156 1184.02 393.041 1183.44 395.094 1183.44ZM326.094 1183.44C327.796 1183.44 329.14 1184 330.126 1185.13 331.113 1186.25 331.606 1187.71 331.606 1189.52 331.606 1191.01 331.295 1192.59 330.674 1194.26L331.16 1194.43C333.646 1190.72 336.118 1187.98 338.576 1186.18 341.035 1184.38 343.521 1183.48 346.033 1183.48 348.627 1183.48 350.599 1184.22 351.95 1185.69 353.301 1187.17 353.977 1189.29 353.977 1192.08L353.977 1192.64C353.977 1192.83 353.963 1193.03 353.936 1193.25 356.26 1189.95 358.577 1187.5 360.887 1185.9 363.197 1184.29 365.595 1183.48 368.08 1183.48 370.566 1183.48 372.484 1184.2 373.835 1185.63 375.186 1187.06 375.862 1189.08 375.862 1191.67 375.862 1193.37 375.47 1195.79 374.686 1198.92L372.052 1209.54C371.322 1212.49 370.958 1214.57 370.958 1215.78 370.958 1216.86 371.133 1217.65 371.485 1218.13 371.836 1218.62 372.39 1218.86 373.146 1218.86 373.957 1218.86 374.821 1218.53 375.74 1217.87 376.659 1217.21 377.955 1215.95 379.631 1214.08L381.941 1216.35C379.617 1218.81 377.591 1220.62 375.862 1221.78 374.132 1222.94 372.16 1223.52 369.945 1223.52 368.188 1223.52 366.783 1222.9 365.73 1221.64 364.676 1220.38 364.149 1218.78 364.149 1216.84 364.149 1215.08 364.595 1212.5 365.487 1209.1L367.27 1202.09C367.918 1199.55 368.344 1197.67 368.546 1196.45 368.749 1195.24 368.85 1194.25 368.85 1193.49 368.85 1191.63 368.54 1190.29 367.918 1189.46 367.297 1188.64 366.284 1188.23 364.879 1188.23 363.744 1188.23 362.528 1188.65 361.231 1189.5 359.934 1190.35 358.57 1191.68 357.138 1193.47 355.706 1195.27 354.537 1197.04 353.632 1198.78 352.727 1200.53 352.004 1202.65 351.464 1205.17L347.776 1222.88 340.765 1222.88 345.426 1202.29C345.993 1199.78 346.378 1197.92 346.581 1196.72 346.783 1195.51 346.884 1194.48 346.884 1193.62 346.884 1191.67 346.54 1190.29 345.851 1189.46 345.162 1188.64 344.088 1188.23 342.629 1188.23 341.602 1188.23 340.434 1188.65 339.124 1189.5 337.813 1190.35 336.415 1191.72 334.929 1193.6 333.443 1195.47 332.281 1197.28 331.444 1199.01 330.606 1200.73 329.904 1202.84 329.336 1205.33L325.486 1222.88 318.475 1222.88 324.392 1197.18C324.986 1194.59 325.283 1192.59 325.283 1191.18 325.283 1190.1 325.108 1189.32 324.757 1188.83 324.405 1188.35 323.851 1188.1 323.095 1188.1 322.257 1188.1 321.373 1188.45 320.44 1189.14 319.508 1189.83 318.232 1191.08 316.611 1192.89L314.301 1190.62C316.678 1188.13 318.725 1186.31 320.44 1185.17 322.156 1184.02 324.041 1183.44 326.094 1183.44Z" fill-rule="evenodd"/><text fill="#000000" fill-opacity="0" font-family="Arial,Arial_MSFontService,sans-serif" font-size="40.0815" x="314.301" y="1218.51">𝑚𝑚</text><path d="M267 857.286 472.795 857" stroke="#7F7F7F" stroke-width="2.29167" stroke-miterlimit="8" fill="none" fill-rule="evenodd"/><path d="M529.5 792.5 529.5 924.069" stroke="#000000" stroke-width="4.58333" stroke-miterlimit="8" fill="none" fill-rule="evenodd"/><path d="M562.5 793.5 562.5 925.069" stroke="#000000" stroke-width="4.58333" stroke-miterlimit="8" fill="none" fill-rule="evenodd"/><rect x="2200.5" y="858.5" width="650" height="650" stroke="#000000" stroke-width="1.14583" stroke-miterlimit="8" fill="none"/><path d="M0 0 649.606 649.052" stroke="#000000" stroke-width="2.29167" stroke-miterlimit="8" fill="none" fill-rule="evenodd" transform="matrix(1 0 0 -1 2200 1508.05)"/><path d="M2165.83 1588.56C2167.53 1588.56 2168.88 1589.12 2169.87 1590.24 2170.85 1591.36 2171.34 1592.83 2171.34 1594.64 2171.34 1596.07 2171.02 1597.67 2170.37 1599.42L2170.86 1599.59C2173.51 1595.86 2176.03 1593.09 2178.42 1591.3 2180.81 1589.5 2183.27 1588.6 2185.81 1588.6 2188.33 1588.6 2190.26 1589.33 2191.61 1590.77 2192.96 1592.22 2193.63 1594.22 2193.63 1596.79 2193.63 1598.49 2193.24 1600.91 2192.46 1604.04L2189.82 1614.66C2189.1 1617.61 2188.73 1619.69 2188.73 1620.9 2188.73 1621.98 2188.91 1622.77 2189.26 1623.25 2189.61 1623.74 2190.16 1623.98 2190.92 1623.98 2191.73 1623.98 2192.59 1623.65 2193.51 1622.99 2194.43 1622.33 2195.73 1621.06 2197.4 1619.2L2199.71 1621.47C2197.39 1623.96 2195.36 1625.77 2193.63 1626.92 2191.91 1628.07 2189.93 1628.64 2187.72 1628.64 2185.96 1628.64 2184.56 1628.02 2183.5 1626.76 2182.45 1625.5 2181.92 1623.9 2181.92 1621.96 2181.92 1620.2 2182.37 1617.62 2183.26 1614.22L2185.04 1607.2C2185.69 1604.66 2186.12 1602.79 2186.32 1601.57 2186.52 1600.36 2186.62 1599.37 2186.62 1598.61 2186.62 1596.75 2186.31 1595.4 2185.69 1594.58 2185.07 1593.76 2184.06 1593.34 2182.65 1593.34 2181.52 1593.34 2180.29 1593.8 2178.98 1594.7 2177.67 1595.61 2176.28 1596.97 2174.81 1598.8 2173.34 1600.62 2172.16 1602.39 2171.26 1604.1 2170.37 1605.82 2169.64 1607.93 2169.07 1610.45L2165.22 1627.99 2158.21 1627.99 2164.13 1602.3C2164.73 1599.71 2165.02 1597.71 2165.02 1596.3 2165.02 1595.22 2164.85 1594.44 2164.5 1593.95 2164.14 1593.47 2163.59 1593.22 2162.83 1593.22 2162 1593.22 2161.11 1593.57 2160.18 1594.26 2159.25 1594.94 2157.97 1596.19 2156.35 1598L2154.04 1595.74C2156.52 1593.14 2158.59 1591.3 2160.24 1590.2 2161.89 1589.11 2163.75 1588.56 2165.83 1588.56ZM2224.05 1575.47C2222.18 1575.47 2220.62 1576.03 2219.36 1577.13 2218.11 1578.24 2217.1 1579.83 2216.33 1581.92 2215.56 1584 2215.01 1586.53 2214.68 1589.51 2214.36 1592.5 2214.2 1595.87 2214.2 1599.63 2214.2 1608.43 2215.01 1614.9 2216.65 1619.02 2218.28 1623.14 2220.82 1625.2 2224.25 1625.2 2227.52 1625.2 2229.94 1623.26 2231.52 1619.38 2233.1 1615.51 2233.89 1609.5 2233.89 1601.37 2233.89 1595.15 2233.49 1590.12 2232.68 1586.27 2231.87 1582.42 2230.74 1579.66 2229.29 1577.98 2227.85 1576.31 2226.1 1575.47 2224.05 1575.47ZM2224.25 1572.03C2230.17 1572.03 2234.57 1574.31 2237.46 1578.88 2240.35 1583.44 2241.8 1590.35 2241.8 1599.59 2241.8 1609.15 2240.25 1616.38 2237.16 1621.29 2234.06 1626.19 2229.54 1628.64 2223.6 1628.64 2217.76 1628.64 2213.42 1626.35 2210.57 1621.75 2207.72 1617.16 2206.29 1610.19 2206.29 1600.84 2206.29 1595.87 2206.73 1591.57 2207.61 1587.95 2208.49 1584.33 2209.72 1581.34 2211.3 1578.98 2212.88 1576.61 2214.78 1574.86 2216.99 1573.73 2219.21 1572.59 2221.63 1572.03 2224.25 1572.03Z" fill-rule="evenodd"/><text fill="#000000" fill-opacity="0" font-family="Arial,Arial_MSFontService,sans-serif" font-size="56.6167" x="2154.04" y="1621.57">𝑛0</text><path d="M2165.83 766.603C2167.53 766.603 2168.88 767.163 2169.87 768.285 2170.85 769.406 2171.34 770.872 2171.34 772.682 2171.34 774.114 2171.02 775.708 2170.37 777.464L2170.86 777.626C2173.51 773.898 2176.03 771.135 2178.42 769.338 2180.81 767.542 2183.27 766.643 2185.81 766.643 2188.33 766.643 2190.26 767.366 2191.61 768.812 2192.96 770.257 2193.63 772.263 2193.63 774.83 2193.63 776.532 2193.24 778.95 2192.46 782.084L2189.82 792.702C2189.1 795.647 2188.73 797.728 2188.73 798.944 2188.73 800.024 2188.91 800.808 2189.26 801.294 2189.61 801.781 2190.16 802.024 2190.92 802.024 2191.73 802.024 2192.59 801.693 2193.51 801.031 2194.43 800.369 2195.73 799.106 2197.4 797.242L2199.71 799.511C2197.39 801.997 2195.36 803.814 2193.63 804.962 2191.91 806.11 2189.93 806.684 2187.72 806.684 2185.96 806.684 2184.56 806.056 2183.5 804.8 2182.45 803.544 2181.92 801.943 2181.92 799.997 2181.92 798.241 2182.37 795.661 2183.26 792.257L2185.04 785.245C2185.69 782.706 2186.12 780.828 2186.32 779.612 2186.52 778.396 2186.62 777.41 2186.62 776.654 2186.62 774.789 2186.31 773.445 2185.69 772.621 2185.07 771.797 2184.06 771.385 2182.65 771.385 2181.52 771.385 2180.29 771.838 2178.98 772.743 2177.67 773.648 2176.28 775.012 2174.81 776.836 2173.34 778.66 2172.16 780.429 2171.26 782.145 2170.37 783.861 2169.64 785.975 2169.07 788.488L2165.22 806.036 2158.21 806.036 2164.13 780.342C2164.73 777.748 2165.02 775.749 2165.02 774.344 2165.02 773.263 2164.85 772.479 2164.5 771.993 2164.14 771.507 2163.59 771.263 2162.83 771.263 2162 771.263 2161.11 771.608 2160.18 772.297 2159.25 772.986 2157.97 774.235 2156.35 776.046L2154.04 773.776C2156.52 771.182 2158.59 769.338 2160.24 768.244 2161.89 767.15 2163.75 766.603 2165.83 766.603ZM2227.25 750.068 2229.48 750.068C2229.31 752.661 2229.23 756.255 2229.23 760.848L2229.23 795.458C2229.23 797.025 2229.32 798.207 2229.5 799.004 2229.67 799.802 2229.98 800.45 2230.43 800.95 2230.87 801.45 2231.52 801.841 2232.35 802.125 2233.19 802.409 2234.25 802.625 2235.51 802.773 2236.78 802.922 2238.46 803.023 2240.54 803.077L2240.54 806.036 2210.59 806.036 2210.59 803.077C2213.59 802.942 2215.73 802.76 2217.01 802.53 2218.3 802.301 2219.28 801.956 2219.95 801.497 2220.63 801.038 2221.12 800.389 2221.43 799.552 2221.74 798.714 2221.9 797.35 2221.9 795.458L2221.9 762.591C2221.9 761.51 2221.71 760.72 2221.33 760.22 2220.95 759.72 2220.4 759.47 2219.67 759.47 2218.8 759.47 2217.57 759.916 2215.98 760.807 2214.39 761.699 2212.41 762.928 2210.06 764.495L2208.28 761.375Z" fill-rule="evenodd"/><text fill="#000000" fill-opacity="0" font-family="Arial,Arial_MSFontService,sans-serif" font-size="56.6167" x="2154.04" y="799.607">𝑛1</text><path d="M2815.44 1593.26C2817.14 1593.26 2818.49 1593.83 2819.47 1594.95 2820.46 1596.07 2820.95 1597.53 2820.95 1599.34 2820.95 1600.78 2820.63 1602.37 2819.98 1604.13L2820.46 1604.29C2823.11 1600.56 2825.63 1597.8 2828.02 1596 2830.41 1594.2 2832.88 1593.3 2835.42 1593.3 2837.93 1593.3 2839.86 1594.03 2841.21 1595.47 2842.57 1596.92 2843.24 1598.92 2843.24 1601.49 2843.24 1603.19 2842.85 1605.61 2842.07 1608.75L2839.43 1619.36C2838.7 1622.31 2838.34 1624.39 2838.34 1625.61 2838.34 1626.69 2838.51 1627.47 2838.86 1627.96 2839.22 1628.44 2839.77 1628.69 2840.53 1628.69 2841.34 1628.69 2842.2 1628.35 2843.12 1627.69 2844.04 1627.03 2845.33 1625.77 2847.01 1623.9L2849.32 1626.17C2847 1628.66 2844.97 1630.48 2843.24 1631.62 2841.51 1632.77 2839.54 1633.35 2837.32 1633.35 2835.57 1633.35 2834.16 1632.72 2833.11 1631.46 2832.06 1630.21 2831.53 1628.6 2831.53 1626.66 2831.53 1624.9 2831.97 1622.32 2832.87 1618.92L2834.65 1611.91C2835.3 1609.37 2835.72 1607.49 2835.93 1606.27 2836.13 1605.06 2836.23 1604.07 2836.23 1603.32 2836.23 1601.45 2835.92 1600.11 2835.3 1599.28 2834.68 1598.46 2833.66 1598.05 2832.26 1598.05 2831.12 1598.05 2829.9 1598.5 2828.59 1599.4 2827.28 1600.31 2825.89 1601.67 2824.42 1603.5 2822.94 1605.32 2821.76 1607.09 2820.87 1608.81 2819.98 1610.52 2819.25 1612.64 2818.68 1615.15L2814.83 1632.7 2807.82 1632.7 2813.74 1607C2814.33 1604.41 2814.63 1602.41 2814.63 1601.01 2814.63 1599.92 2814.45 1599.14 2814.1 1598.65 2813.75 1598.17 2813.2 1597.93 2812.44 1597.93 2811.6 1597.93 2810.72 1598.27 2809.79 1598.96 2808.85 1599.65 2807.58 1600.9 2805.96 1602.71L2803.65 1600.44C2806.13 1597.84 2808.2 1596 2809.85 1594.91 2811.49 1593.81 2813.36 1593.26 2815.44 1593.26ZM2873.98 1576.73C2879 1576.73 2882.8 1577.83 2885.36 1580.03 2887.93 1582.23 2889.21 1585.43 2889.21 1589.62 2889.21 1591.05 2889.07 1592.37 2888.79 1593.57 2888.51 1594.77 2888.06 1595.96 2887.45 1597.13 2886.84 1598.31 2886.03 1599.57 2885 1600.92 2883.97 1602.28 2882.84 1603.65 2881.6 1605.04 2880.35 1606.43 2878.2 1608.75 2875.15 1611.99 2870.02 1617.42 2866.25 1622.16 2863.84 1626.21L2879.12 1626.21C2880.45 1626.21 2881.51 1626.13 2882.32 1625.97 2883.14 1625.81 2883.78 1625.54 2884.27 1625.16 2884.76 1624.78 2885.14 1624.29 2885.43 1623.68 2885.71 1623.07 2886.07 1622.13 2886.5 1620.86L2889.94 1620.86 2889.25 1632.7 2855.9 1632.7 2855.9 1630.75C2857.06 1627.92 2858.63 1625.01 2860.6 1622.04 2862.57 1619.07 2865.37 1615.57 2868.99 1611.54 2872.13 1608.08 2874.38 1605.46 2875.76 1603.68 2877.27 1601.73 2878.4 1600.05 2879.14 1598.63 2879.89 1597.22 2880.42 1595.88 2880.74 1594.62 2881.07 1593.37 2881.23 1592.1 2881.23 1590.83 2881.23 1588.81 2880.91 1587.02 2880.26 1585.46 2879.61 1583.91 2878.62 1582.69 2877.28 1581.8 2875.94 1580.9 2874.26 1580.46 2872.23 1580.46 2867.18 1580.46 2863.78 1583.27 2862.02 1588.89L2857.12 1588.89 2857.12 1581.11C2860.39 1579.57 2863.45 1578.45 2866.3 1577.76 2869.15 1577.07 2871.71 1576.73 2873.98 1576.73Z" fill-rule="evenodd"/><text fill="#000000" fill-opacity="0" font-family="Arial,Arial_MSFontService,sans-serif" font-size="56.6167" x="2803.65" y="1626.27">𝑛2</text><path d="M2815.44 766.603C2817.14 766.603 2818.49 767.163 2819.47 768.285 2820.46 769.406 2820.95 770.872 2820.95 772.682 2820.95 774.114 2820.63 775.708 2819.98 777.464L2820.46 777.626C2823.11 773.898 2825.63 771.135 2828.02 769.338 2830.41 767.542 2832.88 766.643 2835.42 766.643 2837.93 766.643 2839.86 767.366 2841.21 768.812 2842.57 770.257 2843.24 772.263 2843.24 774.83 2843.24 776.532 2842.85 778.95 2842.07 782.084L2839.43 792.702C2838.7 795.647 2838.34 797.728 2838.34 798.944 2838.34 800.024 2838.51 800.808 2838.86 801.294 2839.22 801.781 2839.77 802.024 2840.53 802.024 2841.34 802.024 2842.2 801.693 2843.12 801.031 2844.04 800.369 2845.33 799.106 2847.01 797.242L2849.32 799.511C2847 801.997 2844.97 803.814 2843.24 804.962 2841.51 806.11 2839.54 806.684 2837.32 806.684 2835.57 806.684 2834.16 806.056 2833.11 804.8 2832.06 803.544 2831.53 801.943 2831.53 799.997 2831.53 798.241 2831.97 795.661 2832.87 792.257L2834.65 785.245C2835.3 782.706 2835.72 780.828 2835.93 779.612 2836.13 778.396 2836.23 777.41 2836.23 776.654 2836.23 774.789 2835.92 773.445 2835.3 772.621 2834.68 771.797 2833.66 771.385 2832.26 771.385 2831.12 771.385 2829.9 771.838 2828.59 772.743 2827.28 773.648 2825.89 775.012 2824.42 776.836 2822.94 778.66 2821.76 780.429 2820.87 782.145 2819.98 783.861 2819.25 785.975 2818.68 788.488L2814.83 806.036 2807.82 806.036 2813.74 780.342C2814.33 777.748 2814.63 775.749 2814.63 774.344 2814.63 773.263 2814.45 772.479 2814.1 771.993 2813.75 771.507 2813.2 771.263 2812.44 771.263 2811.6 771.263 2810.72 771.608 2809.79 772.297 2808.85 772.986 2807.58 774.235 2805.96 776.046L2803.65 773.776C2806.13 771.182 2808.2 769.338 2809.85 768.244 2811.49 767.15 2813.36 766.603 2815.44 766.603ZM2873.81 750.068C2876.87 750.068 2879.54 750.541 2881.84 751.486 2884.14 752.432 2885.89 753.789 2887.11 755.559 2888.32 757.329 2888.93 759.443 2888.93 761.902 2888.93 764.198 2888.47 766.218 2887.55 767.961 2886.63 769.703 2885.34 771.223 2883.68 772.52 2882.02 773.817 2879.87 775.087 2877.22 776.329L2877.22 776.694C2878.87 776.991 2880.45 777.498 2881.98 778.214 2883.51 778.93 2884.86 779.855 2886.05 780.99 2887.24 782.125 2888.19 783.482 2888.91 785.063 2889.63 786.644 2889.98 788.447 2889.98 790.473 2889.98 793.608 2889.3 796.39 2887.94 798.822 2886.57 801.254 2884.49 803.172 2881.68 804.577 2878.87 805.982 2875.45 806.684 2871.42 806.684 2869.1 806.684 2866.59 806.421 2863.91 805.894 2861.22 805.367 2858.75 804.672 2856.51 803.807L2856.51 795.215 2861.37 795.215C2862.32 798.025 2863.57 800.065 2865.12 801.335 2866.67 802.605 2868.79 803.24 2871.46 803.24 2874.98 803.24 2877.63 802.28 2879.43 800.362 2881.22 798.444 2882.12 795.607 2882.12 791.851 2882.12 787.907 2880.93 784.894 2878.56 782.814 2876.18 780.733 2872.69 779.693 2868.1 779.693L2864.45 779.693 2864.45 776.127C2868.1 775.911 2871.17 775.208 2873.67 774.019 2876.17 772.831 2878.03 771.304 2879.24 769.44 2880.46 767.576 2881.07 765.482 2881.07 763.158 2881.07 760.159 2880.27 757.849 2878.68 756.228 2877.08 754.607 2874.76 753.796 2871.71 753.796 2869.17 753.796 2867.1 754.485 2865.51 755.863 2863.91 757.241 2862.74 759.348 2861.98 762.185L2857.12 762.185 2857.12 754.485C2860.25 752.999 2863.18 751.891 2865.91 751.162 2868.64 750.432 2871.27 750.068 2873.81 750.068Z" fill-rule="evenodd"/><text fill="#000000" fill-opacity="0" font-family="Arial,Arial_MSFontService,sans-serif" font-size="56.6167" x="2803.65" y="799.607">𝑛3</text><path d="M2603.62 1290.34C2600.89 1290.34 2598.26 1291.72 2595.73 1294.47 2593.21 1297.23 2591.27 1300.96 2589.92 1305.66 2593.73 1305.63 2597 1305.29 2599.73 1304.62 2602.45 1303.96 2604.55 1302.91 2606.01 1301.46 2607.47 1300.02 2608.2 1298.07 2608.2 1295.61 2608.2 1293.96 2607.81 1292.67 2607.04 1291.74 2606.27 1290.8 2605.13 1290.34 2603.62 1290.34ZM2605.08 1287.14C2608.34 1287.14 2610.8 1287.8 2612.43 1289.12 2614.07 1290.45 2614.88 1292.51 2614.88 1295.32 2614.88 1299.92 2612.73 1303.36 2608.42 1305.66 2604.11 1307.95 2597.71 1309.1 2589.23 1309.1 2588.9 1310.72 2588.74 1312.48 2588.74 1314.37 2588.74 1317.21 2589.3 1319.27 2590.4 1320.55 2591.51 1321.84 2593.32 1322.48 2595.83 1322.48 2598.32 1322.48 2600.57 1321.94 2602.58 1320.86 2604.6 1319.78 2606.72 1318.11 2608.97 1315.87L2611.48 1318.51C2608.86 1321.4 2606.2 1323.57 2603.51 1325.03 2600.83 1326.49 2597.7 1327.22 2594.13 1327.22 2590.22 1327.22 2587.18 1326.02 2585.03 1323.63 2582.89 1321.24 2581.81 1317.91 2581.81 1313.64 2581.81 1310.75 2582.33 1307.65 2583.37 1304.34 2584.41 1301.03 2585.99 1298.06 2588.09 1295.42 2590.2 1292.79 2592.73 1290.75 2595.67 1289.31 2598.62 1287.86 2601.75 1287.14 2605.08 1287.14ZM2641.54 1274.05C2639.67 1274.05 2638.11 1274.6 2636.86 1275.71 2635.6 1276.82 2634.59 1278.41 2633.82 1280.49 2633.05 1282.57 2632.5 1285.1 2632.17 1288.09 2631.85 1291.07 2631.69 1294.45 2631.69 1298.2 2631.69 1307.01 2632.51 1313.47 2634.14 1317.59 2635.77 1321.71 2638.31 1323.77 2641.74 1323.77 2645.01 1323.77 2647.43 1321.84 2649.01 1317.96 2650.59 1314.08 2651.38 1308.08 2651.38 1299.94 2651.38 1293.73 2650.98 1288.7 2650.17 1284.85 2649.36 1281 2648.23 1278.23 2646.78 1276.56 2645.34 1274.88 2643.59 1274.05 2641.54 1274.05ZM2641.74 1270.6C2647.66 1270.6 2652.06 1272.89 2654.95 1277.45 2657.84 1282.02 2659.29 1288.92 2659.29 1298.16 2659.29 1307.72 2657.74 1314.96 2654.65 1319.86 2651.55 1324.77 2647.03 1327.22 2641.09 1327.22 2635.25 1327.22 2630.91 1324.92 2628.06 1320.33 2625.21 1315.74 2623.79 1308.77 2623.79 1299.42 2623.79 1294.45 2624.22 1290.15 2625.1 1286.53 2625.98 1282.91 2627.21 1279.92 2628.79 1277.55 2630.37 1275.19 2632.27 1273.44 2634.48 1272.3 2636.7 1271.17 2639.12 1270.6 2641.74 1270.6Z" fill-rule="evenodd"/><text fill="#000000" fill-opacity="0" font-family="Arial,Arial_MSFontService,sans-serif" font-size="56.6167" x="2581.81" y="1320.14">𝑒0</text><path d="M2375.06 1047.49C2372.33 1047.49 2369.71 1048.87 2367.18 1051.63 2364.65 1054.38 2362.72 1058.11 2361.36 1062.81 2365.17 1062.79 2368.44 1062.44 2371.17 1061.78 2373.9 1061.12 2376 1060.07 2377.45 1058.62 2378.91 1057.17 2379.64 1055.22 2379.64 1052.76 2379.64 1051.12 2379.26 1049.83 2378.49 1048.89 2377.72 1047.96 2376.58 1047.49 2375.06 1047.49ZM2376.52 1044.29C2379.79 1044.29 2382.24 1044.96 2383.88 1046.28 2385.51 1047.6 2386.33 1049.67 2386.33 1052.48 2386.33 1057.07 2384.18 1060.52 2379.87 1062.81 2375.56 1065.11 2369.16 1066.26 2360.68 1066.26 2360.35 1067.88 2360.19 1069.64 2360.19 1071.53 2360.19 1074.36 2360.74 1076.42 2361.85 1077.71 2362.96 1078.99 2364.77 1079.63 2367.28 1079.63 2369.77 1079.63 2372.02 1079.09 2374.03 1078.01 2376.04 1076.93 2378.17 1075.27 2380.41 1073.03L2382.93 1075.66C2380.3 1078.55 2377.65 1080.73 2374.96 1082.19 2372.27 1083.65 2369.15 1084.37 2365.58 1084.37 2361.66 1084.37 2358.63 1083.18 2356.48 1080.79 2354.33 1078.4 2353.26 1075.07 2353.26 1070.8 2353.26 1067.91 2353.78 1064.81 2354.82 1061.5 2355.86 1058.19 2357.43 1055.22 2359.54 1052.58 2361.65 1049.95 2364.17 1047.91 2367.12 1046.46 2370.06 1045.02 2373.2 1044.29 2376.52 1044.29ZM2416.18 1027.76 2418.41 1027.76C2418.25 1030.35 2418.17 1033.95 2418.17 1038.54L2418.17 1073.15C2418.17 1074.72 2418.26 1075.9 2418.43 1076.69 2418.61 1077.49 2418.92 1078.14 2419.37 1078.64 2419.81 1079.14 2420.45 1079.53 2421.29 1079.82 2422.13 1080.1 2423.18 1080.32 2424.45 1080.46 2425.72 1080.61 2427.4 1080.71 2429.48 1080.77L2429.48 1083.73 2399.53 1083.73 2399.53 1080.77C2402.53 1080.63 2404.67 1080.45 2405.95 1080.22 2407.24 1079.99 2408.21 1079.65 2408.89 1079.19 2409.57 1078.73 2410.06 1078.08 2410.37 1077.24 2410.68 1076.4 2410.84 1075.04 2410.84 1073.15L2410.84 1040.28C2410.84 1039.2 2410.65 1038.41 2410.27 1037.91 2409.89 1037.41 2409.34 1037.16 2408.61 1037.16 2407.74 1037.16 2406.51 1037.61 2404.92 1038.5 2403.32 1039.39 2401.35 1040.62 2399 1042.19L2397.22 1039.07Z" fill-rule="evenodd"/><text fill="#000000" fill-opacity="0" font-family="Arial,Arial_MSFontService,sans-serif" font-size="56.6167" x="2353.26" y="1077.3">𝑒1</text><path d="M2347.5 1439C2347.5 1413.87 2367.87 1393.5 2393 1393.5 2418.13 1393.5 2438.5 1413.87 2438.5 1439 2438.5 1464.13 2418.13 1484.5 2393 1484.5 2367.87 1484.5 2347.5 1464.13 2347.5 1439Z" stroke="#223F59" stroke-width="4.58333" stroke-miterlimit="8" fill="#FFFFFF" fill-rule="evenodd"/><text font-family="Arial,Arial_MSFontService,sans-serif" font-weight="400" font-size="50" transform="matrix(1 0 0 1 2378.46 1457)">1</text><path d="M2711.5 1434C2711.5 1408.87 2731.65 1388.5 2756.5 1388.5 2781.35 1388.5 2801.5 1408.87 2801.5 1434 2801.5 1459.13 2781.35 1479.5 2756.5 1479.5 2731.65 1479.5 2711.5 1459.13 2711.5 1434Z" stroke="#223F59" stroke-width="4.58333" stroke-miterlimit="8" fill="#FFFFFF" fill-rule="evenodd"/><text font-family="Arial,Arial_MSFontService,sans-serif" font-weight="400" font-size="50" transform="matrix(1 0 0 1 2741.97 1452)">2</text><path d="M2711.5 1058C2711.5 1032.87 2731.87 1012.5 2757 1012.5 2782.13 1012.5 2802.5 1032.87 2802.5 1058 2802.5 1083.13 2782.13 1103.5 2757 1103.5 2731.87 1103.5 2711.5 1083.13 2711.5 1058Z" stroke="#223F59" stroke-width="4.58333" stroke-miterlimit="8" fill="#FFFFFF" fill-rule="evenodd"/><text font-family="Arial,Arial_MSFontService,sans-serif" font-weight="400" font-size="50" transform="matrix(1 0 0 1 2742.52 1076)">3</text><path d="M2226.5 1319C2226.5 1293.87 2246.87 1273.5 2272 1273.5 2297.13 1273.5 2317.5 1293.87 2317.5 1319 2317.5 1344.13 2297.13 1364.5 2272 1364.5 2246.87 1364.5 2226.5 1344.13 2226.5 1319Z" stroke="#223F59" stroke-width="4.58333" stroke-miterlimit="8" fill="#FFFFFF" fill-rule="evenodd"/><text font-family="Arial,Arial_MSFontService,sans-serif" font-weight="400" font-size="50" transform="matrix(1 0 0 1 2257.42 1337)">1</text><path d="M2606.5 929.5C2606.5 904.647 2626.87 884.5 2652 884.5 2677.13 884.5 2697.5 904.647 2697.5 929.5 2697.5 954.353 2677.13 974.5 2652 974.5 2626.87 974.5 2606.5 954.353 2606.5 929.5Z" stroke="#223F59" stroke-width="4.58333" stroke-miterlimit="8" fill="#FFFFFF" fill-rule="evenodd"/><text font-family="Arial,Arial_MSFontService,sans-serif" font-weight="400" font-size="50" transform="matrix(1 0 0 1 2637.53 948)">2</text><path d="M2226.5 926.5C2226.5 901.647 2246.87 881.5 2272 881.5 2297.13 881.5 2317.5 901.647 2317.5 926.5 2317.5 951.353 2297.13 971.5 2272 971.5 2246.87 971.5 2226.5 951.353 2226.5 926.5Z" stroke="#223F59" stroke-width="4.58333" stroke-miterlimit="8" fill="#FFFFFF" fill-rule="evenodd"/><text font-family="Arial,Arial_MSFontService,sans-serif" font-weight="400" font-size="50" transform="matrix(1 0 0 1 2257.42 945)">3</text></g></svg>