<svg width="2680" height="1532" xmlns="http://www.w3.org/2000/svg" xmlns:xlink="http://www.w3.org/1999/xlink" xml:space="preserve" overflow="hidden"><defs><filter id="fx0" x="-10%" y="-10%" width="120%" height="120%" filterUnits="userSpaceOnUse" primitiveUnits="userSpaceOnUse"><feComponentTransfer color-interpolation-filters="sRGB"><feFuncR type="discrete" tableValues="0 0"/><feFuncG type="discrete" tableValues="0 0"/><feFuncB type="discrete" tableValues="0 0"/><feFuncA type="linear" slope="0.4" intercept="0"/></feComponentTransfer><feGaussianBlur stdDeviation="6.11111 6.11111"/></filter><clipPath id="clip1"><path d="M1456.5 814.5 1456.5 1659.5 2041.5 1659.5 2041.5 814.5ZM681 475 3361 475 3361 2007 681 2007Z" fill-rule="evenodd" clip-rule="evenodd"/></clipPath></defs><g transform="translate(-681 -475)"><path d="M1259.8 617.941 1259.8 617.941C1252.47 623.813 1244.84 629.247 1237.8 635.557 1234.33 638.67 1231.79 642.938 1228.38 646.127 1215.92 657.766 1215.48 650.206 1203.24 670.79L1178.11 713.068C1176.01 716.592 1174.49 720.644 1171.82 723.638 1164.88 731.431 1160.49 734.967 1156.11 744.777 1154.63 748.099 1154.02 751.824 1152.97 755.347 1154.02 762.393 1154.73 769.513 1156.11 776.486 1157.35 782.702 1164.32 801.24 1165.54 804.672 1166.59 814.068 1168.68 823.39 1168.68 832.858 1168.68 845.83 1167.18 858.772 1165.54 871.614 1164.03 883.452 1155.06 894.52 1149.83 903.323 1144.76 911.857 1143.98 914.663 1137.26 920.939 1133.24 924.698 1128.61 927.608 1124.7 931.509 1124.69 931.512 1102.91 955.934 1099.56 959.694 1097.47 962.043 1094.92 963.977 1093.28 966.741L1080.71 987.88C1079.66 992.578 1078.5 997.246 1077.57 1001.97 1076.41 1007.82 1075.83 1013.81 1074.43 1019.59 1072.68 1026.76 1068.14 1040.73 1068.14 1040.73 1067.09 1050.12 1065 1059.45 1065 1068.91 1065 1086.57 1067.69 1104.11 1068.14 1121.76 1073.42 1326.1 1084.84 1372.85 1068.14 1297.92 1070.24 1290.88 1074.87 1269.37 1074.43 1276.78 1070.79 1337.92 1073.51 1312.16 1068.14 1354.3 1068.97 1366.42 1070.91 1407.69 1074.43 1424.76 1075.91 1432 1076.03 1440.65 1080.71 1445.9L1090.14 1456.47C1102.8 1484.88 1089.91 1459.67 1102.7 1477.61 1114.95 1494.77 1102.48 1482.43 1118.41 1502.27 1118.43 1502.29 1137.96 1524.19 1143.55 1530.46 1152.21 1540.17 1153.42 1540.15 1159.26 1551.6 1161.58 1556.16 1163.06 1561.24 1165.54 1565.69 1168.32 1570.67 1172.19 1574.8 1174.97 1579.78 1177.45 1584.24 1178.93 1589.32 1181.25 1593.88 1183.12 1597.55 1185.84 1600.66 1187.53 1604.44 1189.01 1607.77 1189.19 1611.69 1190.68 1615.01 1192.36 1618.8 1195.43 1621.71 1196.96 1625.58 1199.65 1632.37 1200.28 1640.08 1203.24 1646.72 1205.34 1651.42 1208.05 1655.83 1209.53 1660.82 1224.37 1710.74 1207.92 1671.32 1222.09 1703.1 1223.14 1707.79 1223.54 1712.74 1225.24 1717.19 1228.21 1724.97 1232.74 1729.12 1237.8 1734.8 1245.98 1762.31 1232.59 1722.5 1256.66 1762.99 1267.43 1781.11 1257.4 1767.19 1272.36 1780.61 1274.68 1782.68 1276.37 1785.53 1278.65 1787.65 1280.78 1789.65 1296.56 1802.98 1300.64 1805.27 1303.6 1806.93 1307.11 1807.13 1310.07 1808.79 1315.53 1811.85 1320.81 1815.38 1325.78 1819.36 1339.41 1830.28 1323.63 1823.44 1341.49 1833.45 1346.53 1836.28 1352.15 1837.67 1357.2 1840.5 1363.85 1844.23 1373.49 1854.12 1379.19 1858.12 1383.16 1860.9 1387.69 1862.56 1391.76 1865.16 1407.53 1875.27 1394.76 1870.13 1413.75 1879.26 1425.48 1884.89 1423.24 1880.48 1435.74 1889.83 1438.21 1891.67 1439.62 1894.94 1442.03 1896.87 1455.01 1907.27 1454.96 1906.41 1467.16 1910.97 1476.63 1918.04 1477.99 1919.69 1489.16 1925.06 1492.2 1926.52 1495.54 1927.12 1498.58 1928.58 1502.89 1930.65 1506.71 1933.97 1511.15 1935.63 1516.21 1937.52 1521.65 1937.81 1526.86 1939.15 1535.27 1941.33 1543.8 1943.14 1551.99 1946.2 1576.89 1955.5 1564.31 1952.02 1589.7 1956.77 1594.93 1959.12 1600.05 1961.81 1605.41 1963.81 1613.73 1966.93 1629.09 1969.7 1636.82 1970.86 1667.68 1975.47 1680.6 1975.47 1715.37 1977.91 1719.56 1979.08 1723.72 1980.38 1727.94 1981.43 1739.51 1984.31 1754.17 1987.25 1765.64 1988.48 1780.27 1990.04 1794.97 1990.83 1809.63 1992L1969.86 1988.48C1975.2 1988.26 1980.54 1986.95 1985.57 1984.95 1998.41 1979.87 2010.73 1973.26 2023.28 1967.34 2030.63 1963.87 2037.6 1959.23 2045.27 1956.77 2087.26 1943.32 2047.36 1957.22 2089.26 1939.15 2095.44 1936.49 2101.96 1934.86 2108.11 1932.11 2129.05 1922.71 2112.4 1927.21 2130.1 1921.54 2143.51 1917.24 2143.8 1918.12 2158.38 1914.49 2162.59 1913.44 2166.65 1911.47 2170.95 1910.97 2186.6 1909.12 2202.36 1908.62 2218.07 1907.44 2222.26 1906.27 2226.78 1906.08 2230.64 1903.92 2235.33 1901.29 2238.95 1896.76 2243.21 1893.35 2246.28 1890.89 2249.26 1888.2 2252.64 1886.3 2257.68 1883.47 2263.19 1881.83 2268.34 1879.26 2272.62 1877.12 2276.47 1873.87 2280.91 1872.21 2285.98 1870.32 2291.38 1869.86 2296.62 1868.69 2299.76 1866.34 2303.1 1864.29 2306.05 1861.64 2328.43 1841.56 2292.75 1869.24 2321.76 1847.55 2323.85 1842.85 2326.4 1838.37 2328.04 1833.45 2330.85 1825.04 2333.24 1805.53 2334.32 1798.22 2335.37 1779.43 2336.31 1760.63 2337.47 1741.85 2338.41 1726.57 2339.7 1711.33 2340.61 1696.05 2341.79 1676.09 2342.33 1656.09 2343.75 1636.15 2344.7 1622.86 2352.77 1562.3 2353.18 1558.64 2354.22 1549.25 2354.81 1539.77 2356.32 1530.46 2356.91 1526.8 2358.66 1523.49 2359.46 1519.89 2360.75 1514.08 2361.55 1508.14 2362.6 1502.27 2360.51 1496.4 2361.01 1488.16 2356.32 1484.66 2352.72 1481.97 2345.12 1492.77 2343.75 1488.18 2343.07 1485.91 2355.25 1445.97 2356.32 1442.38 2365.56 1380.22 2351.45 1480.48 2362.6 1336.68 2364.62 1310.7 2367.2 1284.68 2372.03 1259.17 2376.11 1237.58 2392.74 1201.44 2400.3 1181.66 2404.75 1170.03 2408.04 1157.86 2412.87 1146.43 2417.49 1135.5 2423.54 1125.4 2428.58 1114.72 2438.33 1094.06 2444.37 1080.6 2450.57 1058.34 2457.52 1033.43 2457.14 1027.59 2460 1001.97 2458.95 976.136 2458.5 950.26 2456.86 924.462 2456.46 918.191 2451.75 887.022 2447.43 882.183L2441.15 875.137C2434.06 851.301 2443.42 880.233 2428.58 846.951 2427.1 843.63 2427.36 839.403 2425.44 836.381 2422 830.975 2416.77 827.288 2412.87 822.289 2382.58 783.47 2426.73 834.309 2390.88 794.103 2387.74 790.579 2385.15 786.297 2381.45 783.533 2375.17 778.835 2367.94 775.429 2362.6 769.44 2353.98 759.767 2359.13 763.444 2346.89 758.87 2340.61 754.173 2334.08 749.859 2328.04 744.777 2323.85 741.254 2319.91 737.32 2315.47 734.208 2311.5 731.424 2306.97 729.767 2302.91 727.161 2299.63 725.06 2296.76 722.216 2293.48 720.115 2289.41 717.509 2284.93 715.77 2280.91 713.068 2264.2 701.823 2267.08 699.502 2252.64 695.452 2247.45 694 2242.16 693.104 2236.93 691.929 2232.74 689.58 2228.84 686.392 2224.36 684.883 2218.26 682.83 2211.73 682.909 2205.51 681.359 2202.27 680.554 2199.29 678.737 2196.08 677.836 2170.16 670.57 2190.38 678.024 2167.8 670.79 2134.17 660.014 2192.49 676.635 2142.67 663.743 2134.25 661.565 2125.26 661.028 2117.53 656.697 2113.34 654.348 2109.41 651.311 2104.97 649.65 2100.57 648.009 2073.57 643.195 2070.41 642.604 2065.17 640.255 2060.14 637.221 2054.7 635.557 2048.55 633.678 2042.11 633.351 2035.84 632.034 2025.35 629.827 2014.9 627.337 2004.43 624.988L1988.72 621.465C1983.48 620.29 1978.27 618.926 1973.01 617.941 1966.72 616.767 1960.42 615.734 1954.16 614.418 1904.65 604.008 1940.82 610.268 1900.74 603.848 1873.88 593.808 1888.46 597.723 1856.76 593.279 1853.61 592.104 1850.56 590.561 1847.33 589.755 1828 584.937 1811.16 584.786 1790.78 582.709L1724.8 575.663C1699.09 568.455 1723.67 574.624 1680.81 568.616 1659.87 565.68 1665.55 565.176 1646.25 561.57 1638.95 560.205 1631.6 559.144 1624.26 558.046 1602.66 554.817 1592.97 553.757 1570.84 551 1566.66 552.174 1562.51 553.573 1558.28 554.523 1552.03 555.924 1545.64 556.497 1539.43 558.046 1536.19 558.852 1533.23 560.735 1530 561.57 1519.59 564.263 1508.94 565.711 1498.58 568.616 1478.83 574.153 1490.29 571.454 1464.02 575.663 1447.55 573.024 1439.16 571.875 1423.18 568.616 1417.92 567.545 1412.76 565.884 1407.47 565.093 1397.03 563.533 1386.52 562.744 1376.05 561.57 1362.43 562.744 1348.69 562.704 1335.2 565.093 1325.87 566.745 1314.39 571.858 1306.93 579.186 1277.52 608.04 1303 587.992 1281.79 603.848 1279.7 607.372 1277.87 611.111 1275.51 614.418 1270.39 621.59 1266.8 623.279 1259.8 628.511L1259.8 617.941Z" fill="#BFBFBF" fill-rule="evenodd" fill-opacity="0.2"/><rect x="1456.5" y="749.5" width="617" height="910" stroke="#000000" stroke-width="1.14583" stroke-miterlimit="8" fill="#BFBFBF"/><g clip-path="url(#clip1)"><g filter="url(#fx0)" transform="translate(1446 804)"><g><rect x="20.2229" y="20.2224" width="585" height="845" stroke="#000000" stroke-miterlimit="8" fill="#BDD7EE"/></g></g></g><rect x="1456.5" y="814.5" width="585" height="845" stroke="#000000" stroke-width="1.14583" stroke-miterlimit="8" fill="#BDD7EE"/><path d="M1454.29 1875.79 1454 1670" stroke="#7F7F7F" stroke-width="2.29167" stroke-miterlimit="8" fill="none" fill-rule="evenodd"/><path d="M1908 1819.85 2019.59 1819.85 2019.59 1822.15 1908 1822.15ZM2019.59 1821 2010.42 1807.25 2037.92 1821 2010.42 1834.75Z" fill="#7F7F7F"/><path d="M3.18287e-06-1.14583 111.588-1.14552 111.588 1.14614-3.18287e-06 1.14583ZM111.588 0.000309966 102.421-13.7497 129.921 0.000360892 102.421 13.7503Z" fill="#7F7F7F" transform="matrix(-1 0 0 1 1583.92 1821)"/><path d="M1715.08 1789.57C1713.21 1789.57 1711.65 1790.12 1710.39 1791.23 1709.14 1792.33 1708.12 1793.93 1707.35 1796.01 1706.58 1798.09 1706.04 1800.62 1705.71 1803.61 1705.39 1806.59 1705.23 1809.96 1705.23 1813.72 1705.23 1822.53 1706.04 1828.99 1707.68 1833.11 1709.31 1837.23 1711.85 1839.29 1715.28 1839.29 1718.55 1839.29 1720.97 1837.35 1722.55 1833.48 1724.13 1829.6 1724.92 1823.59 1724.92 1815.46 1724.92 1809.25 1724.52 1804.22 1723.71 1800.37 1722.9 1796.52 1721.77 1793.75 1720.32 1792.08 1718.88 1790.4 1717.13 1789.57 1715.08 1789.57ZM1669.08 1789.57C1667.21 1789.57 1665.65 1790.12 1664.39 1791.23 1663.14 1792.33 1662.12 1793.93 1661.35 1796.01 1660.58 1798.09 1660.04 1800.62 1659.71 1803.61 1659.39 1806.59 1659.23 1809.96 1659.23 1813.72 1659.23 1822.53 1660.04 1828.99 1661.68 1833.11 1663.31 1837.23 1665.85 1839.29 1669.28 1839.29 1672.55 1839.29 1674.97 1837.35 1676.55 1833.48 1678.13 1829.6 1678.92 1823.59 1678.92 1815.46 1678.92 1809.25 1678.52 1804.22 1677.71 1800.37 1676.9 1796.52 1675.77 1793.75 1674.32 1792.08 1672.88 1790.4 1671.13 1789.57 1669.08 1789.57ZM1715.28 1786.12C1721.2 1786.12 1725.6 1788.4 1728.49 1792.97 1731.38 1797.54 1732.83 1804.44 1732.83 1813.68 1732.83 1823.24 1731.28 1830.48 1728.19 1835.38 1725.09 1840.29 1720.57 1842.74 1714.63 1842.74 1708.79 1842.74 1704.45 1840.44 1701.6 1835.85 1698.75 1831.25 1697.32 1824.28 1697.32 1814.94 1697.32 1809.96 1697.76 1805.67 1698.64 1802.05 1699.52 1798.43 1700.75 1795.44 1702.33 1793.07 1703.91 1790.71 1705.81 1788.96 1708.02 1787.82 1710.24 1786.69 1712.66 1786.12 1715.28 1786.12ZM1669.28 1786.12C1675.2 1786.12 1679.6 1788.4 1682.49 1792.97 1685.38 1797.54 1686.83 1804.44 1686.83 1813.68 1686.83 1823.24 1685.28 1830.48 1682.19 1835.38 1679.09 1840.29 1674.57 1842.74 1668.63 1842.74 1662.79 1842.74 1658.45 1840.44 1655.6 1835.85 1652.75 1831.25 1651.32 1824.28 1651.32 1814.94 1651.32 1809.96 1651.76 1805.67 1652.64 1802.05 1653.52 1798.43 1654.75 1795.44 1656.33 1793.07 1657.91 1790.71 1659.81 1788.96 1662.02 1787.82 1664.24 1786.69 1666.66 1786.12 1669.28 1786.12ZM1634.75 1784.09 1637.91 1784.09 1637.3 1793.5 1614 1793.5 1614 1811.29C1615.4 1810.69 1616.93 1810.25 1618.58 1809.95 1620.22 1809.65 1621.87 1809.51 1623.52 1809.51 1626.74 1809.51 1629.59 1810.16 1632.07 1811.47 1634.56 1812.78 1636.48 1814.65 1637.83 1817.06 1639.18 1819.48 1639.85 1822.28 1639.85 1825.47 1639.85 1829.09 1639.1 1832.2 1637.58 1834.79 1636.07 1837.39 1633.88 1839.36 1631.02 1840.71 1628.15 1842.06 1624.76 1842.74 1620.85 1842.74 1616.17 1842.74 1611.28 1841.78 1606.18 1839.86L1606.18 1831.27 1611.08 1831.27C1611.89 1834.02 1613.11 1836.05 1614.75 1837.35 1616.38 1838.64 1618.5 1839.29 1621.09 1839.29 1624.68 1839.29 1627.4 1838.21 1629.24 1836.05 1631.07 1833.89 1631.99 1830.66 1631.99 1826.36 1631.99 1823.5 1631.51 1821.13 1630.53 1819.25 1629.56 1817.37 1628.25 1816.02 1626.6 1815.18 1624.95 1814.34 1623.03 1813.92 1620.85 1813.92 1619.01 1813.92 1617.43 1814.04 1616.1 1814.27 1614.78 1814.5 1613.36 1814.85 1611.85 1815.34L1608.61 1813.44 1608.61 1786.77 1630.94 1786.77C1631.86 1786.77 1632.52 1786.69 1632.92 1786.55 1633.33 1786.4 1633.65 1786.17 1633.9 1785.86 1634.14 1785.55 1634.42 1784.96 1634.75 1784.09Z" fill-rule="evenodd"/><text fill="#000000" fill-opacity="0" font-family="Arial,Arial_MSFontService,sans-serif" font-size="58.6431" x="1606.18" y="1835.41">500</text><path d="M1837.7 1802.66C1839.4 1802.66 1840.74 1803.22 1841.73 1804.34 1842.71 1805.46 1843.21 1806.92 1843.21 1808.73 1843.21 1810.22 1842.9 1811.8 1842.28 1813.48L1842.76 1813.64C1845.25 1809.94 1847.72 1807.19 1850.18 1805.39 1852.64 1803.59 1855.12 1802.7 1857.64 1802.7 1860.23 1802.7 1862.2 1803.43 1863.55 1804.91 1864.9 1806.38 1865.58 1808.51 1865.58 1811.29L1865.58 1811.86C1865.58 1812.04 1865.57 1812.25 1865.54 1812.46 1867.86 1809.17 1870.18 1806.72 1872.49 1805.11 1874.8 1803.5 1877.2 1802.7 1879.68 1802.7 1882.17 1802.7 1884.09 1803.41 1885.44 1804.84 1886.79 1806.28 1887.46 1808.29 1887.46 1810.88 1887.46 1812.59 1887.07 1815 1886.29 1818.14L1883.65 1828.76C1882.92 1831.7 1882.56 1833.78 1882.56 1835 1882.56 1836.08 1882.74 1836.86 1883.09 1837.35 1883.44 1837.83 1883.99 1838.08 1884.75 1838.08 1885.56 1838.08 1886.42 1837.75 1887.34 1837.08 1888.26 1836.42 1889.56 1835.16 1891.23 1833.29L1893.54 1835.56C1891.22 1838.02 1889.19 1839.83 1887.46 1840.99 1885.73 1842.16 1883.76 1842.74 1881.55 1842.74 1879.79 1842.74 1878.39 1842.11 1877.33 1840.85 1876.28 1839.6 1875.75 1838 1875.75 1836.05 1875.75 1834.29 1876.2 1831.71 1877.09 1828.31L1878.87 1821.3C1879.52 1818.76 1879.95 1816.88 1880.15 1815.67 1880.35 1814.45 1880.45 1813.46 1880.45 1812.71 1880.45 1810.84 1880.14 1809.5 1879.52 1808.67 1878.9 1807.85 1877.89 1807.44 1876.48 1807.44 1875.35 1807.44 1874.13 1807.86 1872.83 1808.71 1871.54 1809.57 1870.17 1810.89 1868.74 1812.69 1867.31 1814.48 1866.14 1816.25 1865.23 1818 1864.33 1819.74 1863.61 1821.87 1863.07 1824.38L1859.38 1842.09 1852.37 1842.09 1857.03 1821.5C1857.59 1818.99 1857.98 1817.13 1858.18 1815.93 1858.39 1814.73 1858.49 1813.69 1858.49 1812.83 1858.49 1810.88 1858.14 1809.5 1857.45 1808.67 1856.76 1807.85 1855.69 1807.44 1854.23 1807.44 1853.2 1807.44 1852.04 1807.86 1850.73 1808.71 1849.42 1809.57 1848.02 1810.93 1846.53 1812.81 1845.04 1814.69 1843.88 1816.49 1843.05 1818.22 1842.21 1819.95 1841.51 1822.05 1840.94 1824.54L1837.09 1842.09 1830.08 1842.09 1835.99 1816.39C1836.59 1813.8 1836.89 1811.8 1836.89 1810.4 1836.89 1809.32 1836.71 1808.53 1836.36 1808.05 1836.01 1807.56 1835.45 1807.32 1834.7 1807.32 1833.86 1807.32 1832.97 1807.66 1832.04 1808.35 1831.11 1809.04 1829.83 1810.29 1828.21 1812.1L1825.9 1809.83C1828.28 1807.34 1830.33 1805.53 1832.04 1804.38 1833.76 1803.23 1835.64 1802.66 1837.7 1802.66ZM1768.7 1802.66C1770.4 1802.66 1771.74 1803.22 1772.73 1804.34 1773.71 1805.46 1774.21 1806.92 1774.21 1808.73 1774.21 1810.22 1773.9 1811.8 1773.28 1813.48L1773.76 1813.64C1776.25 1809.94 1778.72 1807.19 1781.18 1805.39 1783.64 1803.59 1786.12 1802.7 1788.64 1802.7 1791.23 1802.7 1793.2 1803.43 1794.55 1804.91 1795.9 1806.38 1796.58 1808.51 1796.58 1811.29L1796.58 1811.86C1796.58 1812.04 1796.57 1812.25 1796.54 1812.46 1798.86 1809.17 1801.18 1806.72 1803.49 1805.11 1805.8 1803.5 1808.2 1802.7 1810.68 1802.7 1813.17 1802.7 1815.09 1803.41 1816.44 1804.84 1817.79 1806.28 1818.46 1808.29 1818.46 1810.88 1818.46 1812.59 1818.07 1815 1817.29 1818.14L1814.65 1828.76C1813.92 1831.7 1813.56 1833.78 1813.56 1835 1813.56 1836.08 1813.74 1836.86 1814.09 1837.35 1814.44 1837.83 1814.99 1838.08 1815.75 1838.08 1816.56 1838.08 1817.42 1837.75 1818.34 1837.08 1819.26 1836.42 1820.56 1835.16 1822.23 1833.29L1824.54 1835.56C1822.22 1838.02 1820.19 1839.83 1818.46 1840.99 1816.73 1842.16 1814.76 1842.74 1812.55 1842.74 1810.79 1842.74 1809.39 1842.11 1808.33 1840.85 1807.28 1839.6 1806.75 1838 1806.75 1836.05 1806.75 1834.29 1807.2 1831.71 1808.09 1828.31L1809.87 1821.3C1810.52 1818.76 1810.95 1816.88 1811.15 1815.67 1811.35 1814.45 1811.45 1813.46 1811.45 1812.71 1811.45 1810.84 1811.14 1809.5 1810.52 1808.67 1809.9 1807.85 1808.89 1807.44 1807.48 1807.44 1806.35 1807.44 1805.13 1807.86 1803.83 1808.71 1802.54 1809.57 1801.17 1810.89 1799.74 1812.69 1798.31 1814.48 1797.14 1816.25 1796.23 1818 1795.33 1819.74 1794.61 1821.87 1794.07 1824.38L1790.38 1842.09 1783.37 1842.09 1788.03 1821.5C1788.59 1818.99 1788.98 1817.13 1789.18 1815.93 1789.39 1814.73 1789.49 1813.69 1789.49 1812.83 1789.49 1810.88 1789.14 1809.5 1788.45 1808.67 1787.76 1807.85 1786.69 1807.44 1785.23 1807.44 1784.2 1807.44 1783.04 1807.86 1781.73 1808.71 1780.42 1809.57 1779.02 1810.93 1777.53 1812.81 1776.04 1814.69 1774.88 1816.49 1774.05 1818.22 1773.21 1819.95 1772.51 1822.05 1771.94 1824.54L1768.09 1842.09 1761.08 1842.09 1766.99 1816.39C1767.59 1813.8 1767.89 1811.8 1767.89 1810.4 1767.89 1809.32 1767.71 1808.53 1767.36 1808.05 1767.01 1807.56 1766.45 1807.32 1765.7 1807.32 1764.86 1807.32 1763.97 1807.66 1763.04 1808.35 1762.11 1809.04 1760.83 1810.29 1759.21 1812.1L1756.9 1809.83C1759.28 1807.34 1761.33 1805.53 1763.04 1804.38 1764.76 1803.23 1766.64 1802.66 1768.7 1802.66Z" fill-rule="evenodd"/><text fill="#000000" fill-opacity="0" font-family="Arial,Arial_MSFontService,sans-serif" font-size="40.0815" x="1756.9" y="1837.73">𝑚𝑚</text><path d="M2041.29 1992.8 2041 1668" stroke="#7F7F7F" stroke-width="2.29167" stroke-miterlimit="8" fill="none" fill-rule="evenodd"/><path d="M1231 1658.29 1436.79 1658" stroke="#7F7F7F" stroke-width="2.29167" stroke-miterlimit="8" fill="none" fill-rule="evenodd"/><path d="M1285.15 1330 1285.15 1636.47 1282.85 1636.47 1282.85 1330ZM1284 1636.47 1297.75 1627.3 1284 1654.8 1270.25 1627.3Z" fill="#7F7F7F"/><path d="M1.27315e-06-1.14583 306.47-1.14549 306.47 1.14617-1.27315e-06 1.14583ZM306.47 0.000340522 297.303-13.7497 324.803 0.000360892 297.303 13.7503Z" fill="#7F7F7F" transform="matrix(-6.12323e-17 -1 -1 6.12323e-17 1284 1139.8)"/><path d="M1267.31 1210.58C1265.44 1210.58 1263.88 1211.14 1262.63 1212.25 1261.37 1213.35 1260.36 1214.95 1259.59 1217.03 1258.82 1219.11 1258.27 1221.64 1257.95 1224.63 1257.62 1227.61 1257.46 1230.98 1257.46 1234.74 1257.46 1243.55 1258.28 1250.01 1259.91 1254.13 1261.55 1258.25 1264.08 1260.31 1267.51 1260.31 1270.78 1260.31 1273.2 1258.37 1274.78 1254.5 1276.36 1250.62 1277.16 1244.61 1277.16 1236.48 1277.16 1230.27 1276.75 1225.23 1275.94 1221.38 1275.13 1217.53 1274 1214.77 1272.56 1213.1 1271.11 1211.42 1269.36 1210.58 1267.31 1210.58ZM1159.14 1207.79 1193.91 1207.79 1193.91 1209.73 1170.32 1263.39 1164.45 1263.39 1164.45 1261.41 1186.29 1215.16 1186.29 1214.56 1168.46 1214.56C1167.35 1214.56 1166.47 1214.66 1165.8 1214.86 1165.14 1215.06 1164.59 1215.35 1164.14 1215.73 1163.7 1216.11 1163.32 1216.61 1163.03 1217.23 1162.73 1217.85 1162.32 1219.08 1161.81 1220.92L1158.33 1220.92ZM1267.51 1207.14C1273.43 1207.14 1277.83 1209.42 1280.72 1213.99 1283.61 1218.55 1285.06 1225.46 1285.06 1234.7 1285.06 1244.26 1283.51 1251.5 1280.42 1256.4 1277.32 1261.3 1272.81 1263.76 1266.86 1263.76 1261.03 1263.76 1256.68 1261.46 1253.83 1256.87 1250.98 1252.27 1249.56 1245.3 1249.56 1235.95 1249.56 1230.98 1249.99 1226.69 1250.87 1223.07 1251.75 1219.45 1252.98 1216.45 1254.56 1214.09 1256.14 1211.73 1258.04 1209.98 1260.26 1208.84 1262.47 1207.71 1264.89 1207.14 1267.51 1207.14ZM1232.98 1205.11 1236.14 1205.11 1235.53 1214.51 1212.23 1214.51 1212.23 1232.31C1213.63 1231.71 1215.16 1231.27 1216.81 1230.97 1218.46 1230.67 1220.1 1230.52 1221.75 1230.52 1224.97 1230.52 1227.82 1231.18 1230.3 1232.49 1232.79 1233.8 1234.71 1235.66 1236.06 1238.08 1237.41 1240.5 1238.09 1243.3 1238.09 1246.49 1238.09 1250.11 1237.33 1253.22 1235.82 1255.81 1234.3 1258.41 1232.11 1260.38 1229.25 1261.73 1226.39 1263.08 1223 1263.76 1219.08 1263.76 1214.4 1263.76 1209.51 1262.8 1204.41 1260.88L1204.41 1252.29 1209.31 1252.29C1210.12 1255.04 1211.34 1257.07 1212.98 1258.37 1214.61 1259.66 1216.73 1260.31 1219.32 1260.31 1222.91 1260.31 1225.63 1259.23 1227.47 1257.07 1229.3 1254.91 1230.22 1251.68 1230.22 1247.38 1230.22 1244.52 1229.74 1242.15 1228.76 1240.27 1227.79 1238.39 1226.48 1237.03 1224.83 1236.2 1223.18 1235.36 1221.27 1234.94 1219.08 1234.94 1217.24 1234.94 1215.66 1235.06 1214.34 1235.29 1213.01 1235.51 1211.59 1235.87 1210.08 1236.36L1206.84 1234.45 1206.84 1207.79 1229.17 1207.79C1230.09 1207.79 1230.75 1207.71 1231.16 1207.56 1231.56 1207.42 1231.88 1207.19 1232.13 1206.88 1232.37 1206.56 1232.65 1205.98 1232.98 1205.11Z" fill-rule="evenodd"/><text fill="#000000" fill-opacity="0" font-family="Arial,Arial_MSFontService,sans-serif" font-size="58.6431" x="1158.33" y="1256.43">750</text><path d="M1389.93 1223.67C1391.63 1223.67 1392.97 1224.23 1393.96 1225.36 1394.95 1226.48 1395.44 1227.94 1395.44 1229.75 1395.44 1231.24 1395.13 1232.82 1394.51 1234.49L1394.99 1234.66C1397.48 1230.96 1399.95 1228.21 1402.41 1226.41 1404.87 1224.61 1407.35 1223.71 1409.87 1223.71 1412.46 1223.71 1414.43 1224.45 1415.78 1225.92 1417.13 1227.4 1417.81 1229.52 1417.81 1232.31L1417.81 1232.87C1417.81 1233.06 1417.8 1233.27 1417.77 1233.48 1420.09 1230.19 1422.41 1227.73 1424.72 1226.13 1427.03 1224.52 1429.43 1223.71 1431.91 1223.71 1434.4 1223.71 1436.32 1224.43 1437.67 1225.86 1439.02 1227.29 1439.69 1229.31 1439.69 1231.9 1439.69 1233.6 1439.3 1236.02 1438.52 1239.16L1435.89 1249.77C1435.16 1252.72 1434.79 1254.8 1434.79 1256.01 1434.79 1257.1 1434.97 1257.88 1435.32 1258.37 1435.67 1258.85 1436.22 1259.09 1436.98 1259.09 1437.79 1259.09 1438.65 1258.76 1439.57 1258.1 1440.49 1257.44 1441.79 1256.18 1443.46 1254.31L1445.77 1256.58C1443.45 1259.04 1441.42 1260.85 1439.69 1262.01 1437.97 1263.17 1435.99 1263.76 1433.78 1263.76 1432.02 1263.76 1430.62 1263.13 1429.56 1261.87 1428.51 1260.61 1427.98 1259.01 1427.98 1257.07 1427.98 1255.31 1428.43 1252.73 1429.32 1249.33L1431.1 1242.32C1431.75 1239.78 1432.18 1237.9 1432.38 1236.68 1432.58 1235.47 1432.68 1234.48 1432.68 1233.72 1432.68 1231.86 1432.37 1230.52 1431.75 1229.69 1431.13 1228.87 1430.12 1228.46 1428.71 1228.46 1427.58 1228.46 1426.36 1228.88 1425.06 1229.73 1423.77 1230.58 1422.4 1231.91 1420.97 1233.7 1419.54 1235.5 1418.37 1237.27 1417.47 1239.01 1416.56 1240.76 1415.84 1242.88 1415.3 1245.4L1411.61 1263.11 1404.6 1263.11 1409.26 1242.52C1409.83 1240.01 1410.21 1238.15 1410.41 1236.95 1410.62 1235.74 1410.72 1234.71 1410.72 1233.85 1410.72 1231.9 1410.37 1230.52 1409.68 1229.69 1409 1228.87 1407.92 1228.46 1406.46 1228.46 1405.44 1228.46 1404.27 1228.88 1402.96 1229.73 1401.65 1230.58 1400.25 1231.95 1398.76 1233.83 1397.28 1235.7 1396.11 1237.51 1395.28 1239.24 1394.44 1240.97 1393.74 1243.07 1393.17 1245.56L1389.32 1263.11 1382.31 1263.11 1388.23 1237.41C1388.82 1234.82 1389.12 1232.82 1389.12 1231.41 1389.12 1230.33 1388.94 1229.55 1388.59 1229.06 1388.24 1228.58 1387.68 1228.33 1386.93 1228.33 1386.09 1228.33 1385.21 1228.68 1384.27 1229.37 1383.34 1230.06 1382.07 1231.31 1380.44 1233.12L1378.13 1230.85C1380.51 1228.36 1382.56 1226.54 1384.27 1225.4 1385.99 1224.25 1387.87 1223.67 1389.93 1223.67ZM1320.93 1223.67C1322.63 1223.67 1323.97 1224.23 1324.96 1225.36 1325.95 1226.48 1326.44 1227.94 1326.44 1229.75 1326.44 1231.24 1326.13 1232.82 1325.51 1234.49L1325.99 1234.66C1328.48 1230.96 1330.95 1228.21 1333.41 1226.41 1335.87 1224.61 1338.35 1223.71 1340.87 1223.71 1343.46 1223.71 1345.43 1224.45 1346.78 1225.92 1348.13 1227.4 1348.81 1229.52 1348.81 1232.31L1348.81 1232.87C1348.81 1233.06 1348.8 1233.27 1348.77 1233.48 1351.09 1230.19 1353.41 1227.73 1355.72 1226.13 1358.03 1224.52 1360.43 1223.71 1362.91 1223.71 1365.4 1223.71 1367.32 1224.43 1368.67 1225.86 1370.02 1227.29 1370.69 1229.31 1370.69 1231.9 1370.69 1233.6 1370.3 1236.02 1369.52 1239.16L1366.89 1249.77C1366.16 1252.72 1365.79 1254.8 1365.79 1256.01 1365.79 1257.1 1365.97 1257.88 1366.32 1258.37 1366.67 1258.85 1367.22 1259.09 1367.98 1259.09 1368.79 1259.09 1369.65 1258.76 1370.57 1258.1 1371.49 1257.44 1372.79 1256.18 1374.46 1254.31L1376.77 1256.58C1374.45 1259.04 1372.42 1260.85 1370.69 1262.01 1368.97 1263.17 1366.99 1263.76 1364.78 1263.76 1363.02 1263.76 1361.62 1263.13 1360.56 1261.87 1359.51 1260.61 1358.98 1259.01 1358.98 1257.07 1358.98 1255.31 1359.43 1252.73 1360.32 1249.33L1362.1 1242.32C1362.75 1239.78 1363.18 1237.9 1363.38 1236.68 1363.58 1235.47 1363.68 1234.48 1363.68 1233.72 1363.68 1231.86 1363.37 1230.52 1362.75 1229.69 1362.13 1228.87 1361.12 1228.46 1359.71 1228.46 1358.58 1228.46 1357.36 1228.88 1356.06 1229.73 1354.77 1230.58 1353.4 1231.91 1351.97 1233.7 1350.54 1235.5 1349.37 1237.27 1348.47 1239.01 1347.56 1240.76 1346.84 1242.88 1346.3 1245.4L1342.61 1263.11 1335.6 1263.11 1340.26 1242.52C1340.83 1240.01 1341.21 1238.15 1341.41 1236.95 1341.62 1235.74 1341.72 1234.71 1341.72 1233.85 1341.72 1231.9 1341.37 1230.52 1340.68 1229.69 1340 1228.87 1338.92 1228.46 1337.46 1228.46 1336.44 1228.46 1335.27 1228.88 1333.96 1229.73 1332.65 1230.58 1331.25 1231.95 1329.76 1233.83 1328.28 1235.7 1327.11 1237.51 1326.28 1239.24 1325.44 1240.97 1324.74 1243.07 1324.17 1245.56L1320.32 1263.11 1313.31 1263.11 1319.23 1237.41C1319.82 1234.82 1320.12 1232.82 1320.12 1231.41 1320.12 1230.33 1319.94 1229.55 1319.59 1229.06 1319.24 1228.58 1318.68 1228.33 1317.93 1228.33 1317.09 1228.33 1316.21 1228.68 1315.27 1229.37 1314.34 1230.06 1313.07 1231.31 1311.44 1233.12L1309.13 1230.85C1311.51 1228.36 1313.56 1226.54 1315.27 1225.4 1316.99 1224.25 1318.87 1223.67 1320.93 1223.67Z" fill-rule="evenodd"/><text fill="#000000" fill-opacity="0" font-family="Arial,Arial_MSFontService,sans-serif" font-size="40.0815" x="1309.13" y="1258.75">𝑚𝑚</text><path d="M1112 819.286 1436.8 819" stroke="#7F7F7F" stroke-width="2.29167" stroke-miterlimit="8" fill="none" fill-rule="evenodd"/><path d="M727.675 983.593C728.782 983.593 729.728 983.741 730.511 984.039 731.052 984.255 731.592 984.613 732.133 985.113 732.673 985.612 733.153 986.308 733.571 987.2 733.99 988.091 734.355 989.091 734.666 990.199 734.976 991.306 735.321 992.901 735.699 994.981 736.347 998.466 736.976 1002.13 737.583 1005.98 738.191 1009.83 738.711 1013.41 739.144 1016.7 741.765 1012.92 743.987 1009.22 745.811 1005.6 747.634 1001.98 748.945 998.831 749.742 996.156 750.539 993.481 750.937 991.306 750.937 989.631 750.937 988.362 750.667 987.497 750.127 987.038 749.586 986.578 748.668 986.308 747.371 986.227L747.776 984.241 758.435 984.241 759.529 986.268C757.476 991.887 754.693 997.899 751.18 1004.3 747.722 1010.57 743.764 1016.81 739.306 1023.03 735.037 1028.94 731.484 1033.23 728.647 1035.87 726.675 1037.68 724.77 1038.98 722.933 1039.76 721.474 1040.36 719.92 1040.66 718.272 1040.66 717.705 1040.66 717.05 1040.61 716.307 1040.51 715.564 1040.42 714.99 1040.29 714.584 1040.13L716.327 1032.27 719.529 1032.27C719.529 1034 720.123 1034.86 721.312 1034.86 722.879 1034.86 724.703 1033.88 726.783 1031.92 728.863 1029.96 731.309 1027.01 734.118 1023.07 733.335 1018.34 732.268 1012.64 730.917 1005.96 729.485 998.831 728.539 994.414 728.08 992.711 727.512 990.658 726.918 989.348 726.297 988.78 725.918 988.429 725.446 988.253 724.878 988.253 724.014 988.253 723.203 988.605 722.447 989.307 721.69 990.01 720.758 991.225 719.65 992.955L717.016 991.212C718.88 988.429 720.623 986.463 722.244 985.315 723.865 984.167 725.675 983.593 727.675 983.593Z" fill-rule="evenodd"/><text fill="#000000" fill-opacity="0" font-family="Arial,Arial_MSFontService,sans-serif" font-size="57.0625" x="714.584" y="1033.52">𝑦</text><path d="M0.0122857-2.29163 176.561-1.34514 176.537 3.23813-0.0122857 2.29163ZM176.549 0.946498 167.456-12.8524 194.882 1.04478 167.309 14.6472Z" transform="matrix(1 0 0 -1 731.5 1272.54)"/><path d="M958.933 1254.79C959.771 1254.79 960.507 1254.89 961.142 1255.08 961.777 1255.26 962.338 1255.56 962.824 1255.95 963.31 1256.34 963.743 1256.85 964.121 1257.47 964.499 1258.09 964.864 1258.93 965.215 1260 965.566 1261.07 965.897 1262.39 966.208 1263.97 966.519 1265.55 966.796 1267.19 967.039 1268.9L967.444 1268.9C970.038 1265.25 972.004 1262.58 973.341 1260.89 974.678 1259.2 975.806 1257.95 976.725 1257.12 977.644 1256.3 978.528 1255.72 979.38 1255.38 980.231 1255.04 981.359 1254.87 982.764 1254.87 984.033 1254.87 985.074 1255.04 985.884 1255.36L984.263 1262.69 981.426 1262.69C981.264 1261.56 980.791 1260.99 980.008 1260.99 979.765 1260.99 979.508 1261.03 979.238 1261.11 978.967 1261.2 978.637 1261.37 978.245 1261.64 977.853 1261.91 977.279 1262.44 976.522 1263.22 975.766 1264.01 974.915 1264.96 973.969 1266.1 973.023 1267.23 972.051 1268.42 971.051 1269.67L968.295 1273.11C968.782 1275.7 969.241 1277.95 969.673 1279.84 970.106 1281.73 970.491 1283.3 970.828 1284.56 971.166 1285.82 971.463 1286.81 971.72 1287.54 971.977 1288.27 972.253 1288.81 972.551 1289.18 972.848 1289.54 973.152 1289.8 973.463 1289.95 973.773 1290.1 974.131 1290.17 974.536 1290.17 975.266 1290.17 975.975 1289.89 976.664 1289.32 977.353 1288.75 978.346 1287.47 979.643 1285.47L982.277 1287.21C980.386 1290.02 978.677 1292 977.151 1293.15 975.624 1294.3 973.807 1294.87 971.7 1294.87 970.538 1294.87 969.552 1294.66 968.741 1294.25 967.931 1293.83 967.228 1293.16 966.634 1292.24 966.039 1291.32 965.512 1289.89 965.053 1287.94 964.216 1284.49 963.702 1281.84 963.513 1280L963.108 1280C960.244 1284.03 958.116 1286.92 956.725 1288.67 955.333 1290.43 954.185 1291.73 953.28 1292.56 952.375 1293.4 951.497 1293.99 950.646 1294.33 949.795 1294.66 948.667 1294.83 947.262 1294.83 945.992 1294.83 944.952 1294.67 944.141 1294.35L945.762 1287.01 948.599 1287.01C948.761 1288.15 949.234 1288.71 950.017 1288.71 950.396 1288.71 950.794 1288.61 951.213 1288.41 951.632 1288.21 952.233 1287.72 953.016 1286.95 953.8 1286.18 954.881 1284.97 956.259 1283.32 957.637 1281.68 959.636 1279.2 962.257 1275.91 961.851 1273.77 961.433 1271.72 961 1269.75 960.568 1267.77 960.122 1265.94 959.663 1264.23 959.204 1262.53 958.825 1261.42 958.528 1260.89 958.231 1260.36 957.914 1260 957.576 1259.8 957.238 1259.59 956.813 1259.49 956.299 1259.49 955.732 1259.49 955.218 1259.62 954.759 1259.88 954.3 1260.14 953.8 1260.58 953.26 1261.22 952.719 1261.85 952.003 1262.84 951.112 1264.19L948.477 1262.45C950.18 1259.89 951.814 1257.97 953.381 1256.7 954.948 1255.43 956.799 1254.79 958.933 1254.79Z" fill-rule="evenodd"/><text fill="#000000" fill-opacity="0" font-family="Arial,Arial_MSFontService,sans-serif" font-size="40.0815" x="944.141" y="1289.86">𝑥</text><path d="M0.0122857-2.29163 176.561-1.34514 176.537 3.23813-0.0122857 2.29163ZM176.549 0.946498 167.456-12.8524 194.882 1.04478 167.309 14.6472Z" transform="matrix(-1.83697e-16 -1 -1 1.83697e-16 736.545 1270.38)"/><path d="M2067.29 1992.8 2067 1668" stroke="#7F7F7F" stroke-width="2.29167" stroke-miterlimit="8" fill="none" fill-rule="evenodd"/><path d="M1901 1951.85 2012.59 1951.85 2012.59 1954.15 1901 1954.15ZM2012.59 1953 2003.42 1939.25 2030.92 1953 2003.42 1966.75Z" fill="#7F7F7F"/><path d="M3.18287e-06-1.14583 111.588-1.14552 111.588 1.14614-3.18287e-06 1.14583ZM111.588 0.000309966 102.421-13.7497 129.921 0.000360892 102.421 13.7503Z" fill="#7F7F7F" transform="matrix(-1 0 0 1 2198.92 1953)"/><path d="M2283.42 1941.29C2282.09 1941.29 2280.82 1941.44 2279.59 1941.73 2278.36 1942.03 2277.2 1942.46 2276.12 1943.03 2275.04 1943.6 2273.99 1944.31 2272.96 1945.18 2272.64 1945.48 2272.39 1945.79 2272.23 1946.11 2271.96 1946.62 2271.79 1947.26 2271.7 1948.02 2271.62 1948.77 2271.58 1950.04 2271.58 1951.83 2271.58 1956.99 2272.45 1960.92 2274.18 1963.62 2275.91 1966.32 2278.53 1967.67 2282.04 1967.67 2284.06 1967.67 2285.77 1967.32 2287.15 1966.62 2288.52 1965.92 2289.64 1964.95 2290.49 1963.72 2291.34 1962.49 2291.95 1961.05 2292.31 1959.38 2292.68 1957.72 2292.86 1955.92 2292.86 1953.97 2292.86 1949.97 2292.04 1946.86 2290.39 1944.63 2288.74 1942.4 2286.42 1941.29 2283.42 1941.29ZM2293.83 1914.5 2295.49 1916.73 2295.49 1918.71C2291.33 1918.71 2287.64 1919.61 2284.43 1921.39 2281.21 1923.17 2278.55 1925.79 2276.43 1929.25 2274.3 1932.71 2272.81 1936.82 2271.95 1941.57L2272.35 1941.73C2274.62 1940.11 2276.86 1938.92 2279.06 1938.17 2281.26 1937.41 2283.65 1937.03 2286.21 1937.03 2289.27 1937.03 2291.87 1937.7 2294.01 1939.04 2296.16 1940.38 2297.78 1942.25 2298.86 1944.67 2299.94 1947.09 2300.48 1949.92 2300.48 1953.16 2300.48 1956.67 2299.8 1959.78 2298.45 1962.46 2297.1 1965.15 2295.01 1967.27 2292.19 1968.81 2289.37 1970.35 2285.89 1971.12 2281.75 1971.12 2275.84 1971.12 2271.37 1969.28 2268.36 1965.6 2265.35 1961.93 2263.84 1956.51 2263.84 1949.35 2263.84 1944.54 2264.6 1940.05 2266.11 1935.86 2267.62 1931.67 2269.77 1928.02 2272.56 1924.89 2275.34 1921.77 2278.57 1919.32 2282.24 1917.52 2285.92 1915.72 2289.78 1914.72 2293.83 1914.5Z" fill-rule="evenodd"/><text fill="#000000" fill-opacity="0" font-family="Arial,Arial_MSFontService,sans-serif" font-size="56.6167" x="2263.84" y="1964.04">6</text><path d="M2404.51 1931.03C2406.21 1931.03 2407.55 1931.6 2408.54 1932.72 2409.52 1933.84 2410.02 1935.3 2410.02 1937.11 2410.02 1938.6 2409.71 1940.18 2409.09 1941.86L2409.57 1942.02C2412.06 1938.32 2414.53 1935.57 2416.99 1933.77 2419.45 1931.97 2421.93 1931.08 2424.45 1931.08 2427.04 1931.08 2429.01 1931.81 2430.36 1933.28 2431.71 1934.76 2432.39 1936.88 2432.39 1939.67L2432.39 1940.23C2432.39 1940.42 2432.38 1940.63 2432.35 1940.84 2434.67 1937.55 2436.99 1935.09 2439.3 1933.49 2441.61 1931.88 2444.01 1931.08 2446.49 1931.08 2448.98 1931.08 2450.9 1931.79 2452.25 1933.22 2453.6 1934.66 2454.27 1936.67 2454.27 1939.26 2454.27 1940.96 2453.88 1943.38 2453.1 1946.52L2450.46 1957.13C2449.73 1960.08 2449.37 1962.16 2449.37 1963.38 2449.37 1964.46 2449.55 1965.24 2449.9 1965.73 2450.25 1966.21 2450.8 1966.46 2451.56 1966.46 2452.37 1966.46 2453.23 1966.12 2454.15 1965.46 2455.07 1964.8 2456.37 1963.54 2458.04 1961.67L2460.35 1963.94C2458.03 1966.4 2456 1968.21 2454.27 1969.37 2452.54 1970.54 2450.57 1971.12 2448.36 1971.12 2446.6 1971.12 2445.2 1970.49 2444.14 1969.23 2443.09 1967.98 2442.56 1966.37 2442.56 1964.43 2442.56 1962.67 2443.01 1960.09 2443.9 1956.69L2445.68 1949.68C2446.33 1947.14 2446.76 1945.26 2446.96 1944.04 2447.16 1942.83 2447.26 1941.84 2447.26 1941.09 2447.26 1939.22 2446.95 1937.88 2446.33 1937.05 2445.71 1936.23 2444.7 1935.82 2443.29 1935.82 2442.16 1935.82 2440.94 1936.24 2439.64 1937.09 2438.35 1937.94 2436.98 1939.27 2435.55 1941.07 2434.12 1942.86 2432.95 1944.63 2432.04 1946.37 2431.14 1948.12 2430.42 1950.24 2429.88 1952.76L2426.19 1970.47 2419.18 1970.47 2423.84 1949.88C2424.41 1947.37 2424.79 1945.51 2424.99 1944.31 2425.2 1943.11 2425.3 1942.07 2425.3 1941.21 2425.3 1939.26 2424.95 1937.88 2424.26 1937.05 2423.57 1936.23 2422.5 1935.82 2421.04 1935.82 2420.01 1935.82 2418.85 1936.24 2417.54 1937.09 2416.23 1937.94 2414.83 1939.31 2413.34 1941.19 2411.85 1943.06 2410.69 1944.87 2409.86 1946.6 2409.02 1948.33 2408.32 1950.43 2407.75 1952.92L2403.9 1970.47 2396.89 1970.47 2402.8 1944.77C2403.4 1942.18 2403.7 1940.18 2403.7 1938.78 2403.7 1937.69 2403.52 1936.91 2403.17 1936.42 2402.82 1935.94 2402.26 1935.7 2401.51 1935.7 2400.67 1935.7 2399.78 1936.04 2398.85 1936.73 2397.92 1937.42 2396.64 1938.67 2395.02 1940.48L2392.71 1938.21C2395.09 1935.72 2397.14 1933.91 2398.85 1932.76 2400.57 1931.61 2402.45 1931.03 2404.51 1931.03ZM2335.51 1931.03C2337.21 1931.03 2338.55 1931.6 2339.54 1932.72 2340.52 1933.84 2341.02 1935.3 2341.02 1937.11 2341.02 1938.6 2340.71 1940.18 2340.09 1941.86L2340.57 1942.02C2343.06 1938.32 2345.53 1935.57 2347.99 1933.77 2350.45 1931.97 2352.93 1931.08 2355.45 1931.08 2358.04 1931.08 2360.01 1931.81 2361.36 1933.28 2362.71 1934.76 2363.39 1936.88 2363.39 1939.67L2363.39 1940.23C2363.39 1940.42 2363.38 1940.63 2363.35 1940.84 2365.67 1937.55 2367.99 1935.09 2370.3 1933.49 2372.61 1931.88 2375.01 1931.08 2377.49 1931.08 2379.98 1931.08 2381.9 1931.79 2383.25 1933.22 2384.6 1934.66 2385.27 1936.67 2385.27 1939.26 2385.27 1940.96 2384.88 1943.38 2384.1 1946.52L2381.46 1957.13C2380.73 1960.08 2380.37 1962.16 2380.37 1963.38 2380.37 1964.46 2380.55 1965.24 2380.9 1965.73 2381.25 1966.21 2381.8 1966.46 2382.56 1966.46 2383.37 1966.46 2384.23 1966.12 2385.15 1965.46 2386.07 1964.8 2387.37 1963.54 2389.04 1961.67L2391.35 1963.94C2389.03 1966.4 2387 1968.21 2385.27 1969.37 2383.54 1970.54 2381.57 1971.12 2379.36 1971.12 2377.6 1971.12 2376.2 1970.49 2375.14 1969.23 2374.09 1967.98 2373.56 1966.37 2373.56 1964.43 2373.56 1962.67 2374.01 1960.09 2374.9 1956.69L2376.68 1949.68C2377.33 1947.14 2377.76 1945.26 2377.96 1944.04 2378.16 1942.83 2378.26 1941.84 2378.26 1941.09 2378.26 1939.22 2377.95 1937.88 2377.33 1937.05 2376.71 1936.23 2375.7 1935.82 2374.29 1935.82 2373.16 1935.82 2371.94 1936.24 2370.64 1937.09 2369.35 1937.94 2367.98 1939.27 2366.55 1941.07 2365.12 1942.86 2363.95 1944.63 2363.04 1946.37 2362.14 1948.12 2361.42 1950.24 2360.88 1952.76L2357.19 1970.47 2350.18 1970.47 2354.84 1949.88C2355.41 1947.37 2355.79 1945.51 2355.99 1944.31 2356.2 1943.11 2356.3 1942.07 2356.3 1941.21 2356.3 1939.26 2355.95 1937.88 2355.26 1937.05 2354.57 1936.23 2353.5 1935.82 2352.04 1935.82 2351.01 1935.82 2349.85 1936.24 2348.54 1937.09 2347.23 1937.94 2345.83 1939.31 2344.34 1941.19 2342.85 1943.06 2341.69 1944.87 2340.86 1946.6 2340.02 1948.33 2339.32 1950.43 2338.75 1952.92L2334.9 1970.47 2327.89 1970.47 2333.8 1944.77C2334.4 1942.18 2334.7 1940.18 2334.7 1938.78 2334.7 1937.69 2334.52 1936.91 2334.17 1936.42 2333.82 1935.94 2333.26 1935.7 2332.51 1935.7 2331.67 1935.7 2330.78 1936.04 2329.85 1936.73 2328.92 1937.42 2327.64 1938.67 2326.02 1940.48L2323.71 1938.21C2326.09 1935.72 2328.14 1933.91 2329.85 1932.76 2331.57 1931.61 2333.45 1931.03 2335.51 1931.03Z" fill-rule="evenodd"/><text fill="#000000" fill-opacity="0" font-family="Arial,Arial_MSFontService,sans-serif" font-size="40.0815" x="2323.71" y="1966.11">𝑚𝑚</text><path d="M1110 754.286 1434.8 754" stroke="#7F7F7F" stroke-width="2.29167" stroke-miterlimit="8" fill="none" fill-rule="evenodd"/><path d="M1142.85 953.921 1142.85 842.333 1145.15 842.333 1145.15 953.921ZM1144 842.333 1130.25 851.5 1144 824 1157.75 851.5Z" fill="#7F7F7F"/><path d="M3.18287e-06-1.14583 111.588-1.14552 111.588 1.14614-3.18287e-06 1.14583ZM111.588 0.000309966 102.421-13.7497 129.921 0.000360892 102.421 13.7503Z" fill="#7F7F7F" transform="matrix(1.83697e-16 1 1 -1.83697e-16 1144 618)"/><path d="M1059.16 515.587C1064.19 515.587 1067.98 516.688 1070.55 518.89 1073.12 521.091 1074.4 524.286 1074.4 528.474 1074.4 529.906 1074.26 531.223 1073.97 532.426 1073.69 533.628 1073.24 534.817 1072.64 535.992 1072.03 537.167 1071.21 538.43 1070.18 539.781 1069.16 541.132 1068.02 542.503 1066.78 543.895 1065.54 545.286 1063.39 547.603 1060.34 550.845 1055.2 556.276 1051.43 561.018 1049.03 565.07L1064.31 565.07C1065.63 565.07 1066.7 564.989 1067.51 564.827 1068.32 564.665 1068.97 564.395 1069.45 564.017 1069.94 563.638 1070.33 563.145 1070.61 562.537 1070.89 561.93 1071.25 560.991 1071.68 559.721L1075.13 559.721 1074.44 571.555 1041.09 571.555 1041.09 569.609C1042.25 566.773 1043.81 563.868 1045.79 560.896 1047.76 557.924 1050.56 554.425 1054.18 550.4 1057.31 546.941 1059.57 544.32 1060.94 542.537 1062.46 540.592 1063.58 538.91 1064.33 537.492 1065.07 536.073 1065.6 534.736 1065.93 533.479 1066.25 532.223 1066.42 530.96 1066.42 529.69 1066.42 527.664 1066.09 525.874 1065.44 524.32 1064.79 522.767 1063.8 521.544 1062.46 520.652 1061.13 519.761 1059.44 519.315 1057.42 519.315 1052.37 519.315 1048.96 522.125 1047.21 527.745L1042.3 527.745 1042.3 519.964C1045.57 518.423 1048.63 517.309 1051.48 516.62 1054.33 515.931 1056.89 515.587 1059.16 515.587ZM1016.04 515.587 1018.27 515.587C1018.1 518.18 1018.02 521.774 1018.02 526.367L1018.02 560.977C1018.02 562.544 1018.11 563.726 1018.29 564.523 1018.46 565.32 1018.77 565.969 1019.22 566.469 1019.67 566.968 1020.31 567.36 1021.14 567.644 1021.98 567.928 1023.04 568.144 1024.31 568.292 1025.58 568.441 1027.25 568.542 1029.33 568.596L1029.33 571.555 999.381 571.555 999.381 568.596C1002.38 568.461 1004.52 568.279 1005.8 568.049 1007.09 567.82 1008.07 567.475 1008.74 567.016 1009.42 566.556 1009.91 565.908 1010.22 565.07 1010.53 564.233 1010.69 562.868 1010.69 560.977L1010.69 528.109C1010.69 527.029 1010.5 526.238 1010.12 525.739 1009.74 525.239 1009.19 524.989 1008.46 524.989 1007.59 524.989 1006.37 525.435 1004.77 526.326 1003.18 527.218 1001.21 528.447 998.854 530.014L997.071 526.894Z" fill-rule="evenodd"/><text fill="#000000" fill-opacity="0" font-family="Arial,Arial_MSFontService,sans-serif" font-size="55.9683" x="997.071" y="564.559">12</text><path d="M1181.62 532.122C1183.33 532.122 1184.67 532.682 1185.66 533.804 1186.64 534.925 1187.14 536.391 1187.14 538.201 1187.14 539.687 1186.82 541.267 1186.2 542.943L1186.69 543.105C1189.18 539.403 1191.65 536.654 1194.11 534.857 1196.56 533.061 1199.05 532.162 1201.56 532.162 1204.16 532.162 1206.13 532.898 1207.48 534.371 1208.83 535.843 1209.51 537.971 1209.51 540.754L1209.51 541.321C1209.51 541.511 1209.49 541.713 1209.47 541.929 1211.79 538.633 1214.11 536.181 1216.42 534.574 1218.73 532.966 1221.12 532.162 1223.61 532.162 1226.1 532.162 1228.01 532.878 1229.36 534.31 1230.72 535.742 1231.39 537.755 1231.39 540.349 1231.39 542.051 1231 544.469 1230.22 547.603L1227.58 558.221C1226.85 561.166 1226.49 563.247 1226.49 564.463 1226.49 565.543 1226.66 566.327 1227.01 566.813 1227.37 567.299 1227.92 567.543 1228.68 567.543 1229.49 567.543 1230.35 567.212 1231.27 566.55 1232.19 565.888 1233.48 564.625 1235.16 562.76L1237.47 565.03C1235.15 567.489 1233.12 569.299 1231.39 570.461 1229.66 571.622 1227.69 572.203 1225.47 572.203 1223.72 572.203 1222.31 571.575 1221.26 570.319 1220.21 569.062 1219.68 567.462 1219.68 565.516 1219.68 563.76 1220.12 561.18 1221.02 557.776L1222.8 550.764C1223.45 548.225 1223.87 546.347 1224.08 545.131 1224.28 543.915 1224.38 542.929 1224.38 542.172 1224.38 540.308 1224.07 538.964 1223.45 538.14 1222.83 537.316 1221.81 536.904 1220.41 536.904 1219.27 536.904 1218.06 537.329 1216.76 538.181 1215.46 539.032 1214.1 540.356 1212.67 542.152 1211.24 543.949 1210.07 545.719 1209.16 547.461 1208.26 549.204 1207.53 551.332 1206.99 553.844L1203.31 571.555 1196.29 571.555 1200.96 550.967C1201.52 548.454 1201.91 546.597 1202.11 545.394 1202.31 544.192 1202.41 543.159 1202.41 542.294 1202.41 540.349 1202.07 538.964 1201.38 538.14 1200.69 537.316 1199.62 536.904 1198.16 536.904 1197.13 536.904 1195.96 537.329 1194.65 538.181 1193.34 539.032 1191.94 540.396 1190.46 542.274 1188.97 544.152 1187.81 545.955 1186.97 547.684 1186.14 549.413 1185.43 551.521 1184.87 554.006L1181.02 571.555 1174 571.555 1179.92 545.86C1180.52 543.267 1180.81 541.267 1180.81 539.862 1180.81 538.782 1180.64 537.998 1180.29 537.512 1179.93 537.026 1179.38 536.782 1178.62 536.782 1177.79 536.782 1176.9 537.127 1175.97 537.816 1175.04 538.505 1173.76 539.754 1172.14 541.565L1169.83 539.295C1172.21 536.809 1174.25 534.992 1175.97 533.844 1177.69 532.696 1179.57 532.122 1181.62 532.122ZM1112.62 532.122C1114.33 532.122 1115.67 532.682 1116.66 533.804 1117.64 534.925 1118.14 536.391 1118.14 538.201 1118.14 539.687 1117.82 541.267 1117.2 542.943L1117.69 543.105C1120.18 539.403 1122.65 536.654 1125.11 534.857 1127.56 533.061 1130.05 532.162 1132.56 532.162 1135.16 532.162 1137.13 532.898 1138.48 534.371 1139.83 535.843 1140.51 537.971 1140.51 540.754L1140.51 541.321C1140.51 541.511 1140.49 541.713 1140.47 541.929 1142.79 538.633 1145.11 536.181 1147.42 534.574 1149.73 532.966 1152.12 532.162 1154.61 532.162 1157.1 532.162 1159.01 532.878 1160.36 534.31 1161.72 535.742 1162.39 537.755 1162.39 540.349 1162.39 542.051 1162 544.469 1161.22 547.603L1158.58 558.221C1157.85 561.166 1157.49 563.247 1157.49 564.463 1157.49 565.543 1157.66 566.327 1158.01 566.813 1158.37 567.299 1158.92 567.543 1159.68 567.543 1160.49 567.543 1161.35 567.212 1162.27 566.55 1163.19 565.888 1164.48 564.625 1166.16 562.76L1168.47 565.03C1166.15 567.489 1164.12 569.299 1162.39 570.461 1160.66 571.622 1158.69 572.203 1156.47 572.203 1154.72 572.203 1153.31 571.575 1152.26 570.319 1151.21 569.062 1150.68 567.462 1150.68 565.516 1150.68 563.76 1151.12 561.18 1152.02 557.776L1153.8 550.764C1154.45 548.225 1154.87 546.347 1155.08 545.131 1155.28 543.915 1155.38 542.929 1155.38 542.172 1155.38 540.308 1155.07 538.964 1154.45 538.14 1153.83 537.316 1152.81 536.904 1151.41 536.904 1150.27 536.904 1149.06 537.329 1147.76 538.181 1146.46 539.032 1145.1 540.356 1143.67 542.152 1142.24 543.949 1141.07 545.719 1140.16 547.461 1139.26 549.204 1138.53 551.332 1137.99 553.844L1134.31 571.555 1127.29 571.555 1131.96 550.967C1132.52 548.454 1132.91 546.597 1133.11 545.394 1133.31 544.192 1133.41 543.159 1133.41 542.294 1133.41 540.349 1133.07 538.964 1132.38 538.14 1131.69 537.316 1130.62 536.904 1129.16 536.904 1128.13 536.904 1126.96 537.329 1125.65 538.181 1124.34 539.032 1122.94 540.396 1121.46 542.274 1119.97 544.152 1118.81 545.955 1117.97 547.684 1117.14 549.413 1116.43 551.521 1115.87 554.006L1112.02 571.555 1105 571.555 1110.92 545.86C1111.52 543.267 1111.81 541.267 1111.81 539.862 1111.81 538.782 1111.64 537.998 1111.29 537.512 1110.93 537.026 1110.38 536.782 1109.62 536.782 1108.79 536.782 1107.9 537.127 1106.97 537.816 1106.04 538.505 1104.76 539.754 1103.14 541.565L1100.83 539.295C1103.21 536.809 1105.25 534.992 1106.97 533.844 1108.69 532.696 1110.57 532.122 1112.62 532.122Z" fill-rule="evenodd"/><text fill="#000000" fill-opacity="0" font-family="Arial,Arial_MSFontService,sans-serif" font-size="40.0815" x="1100.83" y="567.193">𝑚𝑚</text><rect x="2668.5" y="818.5" width="592" height="844" stroke="#000000" stroke-width="1.14583" stroke-miterlimit="8" fill="none"/><path d="M0 0 596.424 844.488" stroke="#000000" stroke-width="2.29167" stroke-miterlimit="8" fill="none" fill-rule="evenodd" transform="matrix(1 0 0 -1 2663 1662.49)"/><path d="M2632.67 1705.25C2634.37 1705.25 2635.71 1705.81 2636.7 1706.93 2637.69 1708.05 2638.18 1709.52 2638.18 1711.33 2638.18 1712.76 2637.85 1714.36 2637.21 1716.11L2637.69 1716.27C2640.34 1712.55 2642.86 1709.78 2645.25 1707.99 2647.64 1706.19 2650.11 1705.29 2652.65 1705.29 2655.16 1705.29 2657.09 1706.01 2658.44 1707.46 2659.79 1708.9 2660.47 1710.91 2660.47 1713.48 2660.47 1715.18 2660.08 1717.6 2659.29 1720.73L2656.66 1731.35C2655.93 1734.3 2655.57 1736.38 2655.57 1737.59 2655.57 1738.67 2655.74 1739.46 2656.09 1739.94 2656.44 1740.43 2657 1740.67 2657.75 1740.67 2658.56 1740.67 2659.43 1740.34 2660.35 1739.68 2661.27 1739.02 2662.56 1737.75 2664.24 1735.89L2666.55 1738.16C2664.22 1740.64 2662.2 1742.46 2660.47 1743.61 2658.74 1744.76 2656.77 1745.33 2654.55 1745.33 2652.8 1745.33 2651.39 1744.7 2650.34 1743.45 2649.28 1742.19 2648.76 1740.59 2648.76 1738.65 2648.76 1736.89 2649.2 1734.31 2650.09 1730.9L2651.88 1723.89C2652.53 1721.35 2652.95 1719.48 2653.15 1718.26 2653.36 1717.04 2653.46 1716.06 2653.46 1715.3 2653.46 1713.44 2653.15 1712.09 2652.53 1711.27 2651.9 1710.44 2650.89 1710.03 2649.49 1710.03 2648.35 1710.03 2647.13 1710.49 2645.82 1711.39 2644.51 1712.3 2643.12 1713.66 2641.64 1715.48 2640.17 1717.31 2638.99 1719.08 2638.1 1720.79 2637.21 1722.51 2636.48 1724.62 2635.91 1727.14L2632.06 1744.68 2625.05 1744.68 2630.97 1718.99C2631.56 1716.4 2631.86 1714.4 2631.86 1712.99 2631.86 1711.91 2631.68 1711.13 2631.33 1710.64 2630.98 1710.15 2630.43 1709.91 2629.67 1709.91 2628.83 1709.91 2627.95 1710.26 2627.01 1710.94 2626.08 1711.63 2624.81 1712.88 2623.18 1714.69L2620.87 1712.42C2623.36 1709.83 2625.43 1707.99 2627.07 1706.89 2628.72 1705.8 2630.59 1705.25 2632.67 1705.25ZM2690.88 1692.16C2689.02 1692.16 2687.46 1692.71 2686.2 1693.82 2684.94 1694.93 2683.93 1696.52 2683.16 1698.6 2682.39 1700.68 2681.84 1703.22 2681.52 1706.2 2681.19 1709.19 2681.03 1712.56 2681.03 1716.31 2681.03 1725.12 2681.85 1731.59 2683.48 1735.71 2685.12 1739.83 2687.65 1741.89 2691.08 1741.89 2694.35 1741.89 2696.78 1739.95 2698.36 1736.07 2699.94 1732.19 2700.73 1726.19 2700.73 1718.06 2700.73 1711.84 2700.32 1706.81 2699.51 1702.96 2698.7 1699.11 2697.57 1696.35 2696.13 1694.67 2694.68 1693 2692.93 1692.16 2690.88 1692.16ZM2691.08 1688.72C2697 1688.72 2701.4 1691 2704.29 1695.56 2707.19 1700.13 2708.63 1707.03 2708.63 1716.27 2708.63 1725.84 2707.08 1733.07 2703.99 1737.98 2700.9 1742.88 2696.38 1745.33 2690.43 1745.33 2684.6 1745.33 2680.26 1743.04 2677.41 1738.44 2674.55 1733.85 2673.13 1726.88 2673.13 1717.53 2673.13 1712.56 2673.57 1708.26 2674.45 1704.64 2675.32 1701.02 2676.55 1698.03 2678.13 1695.67 2679.72 1693.3 2681.61 1691.55 2683.83 1690.42 2686.04 1689.28 2688.46 1688.72 2691.08 1688.72Z" fill-rule="evenodd"/><text fill="#000000" fill-opacity="0" font-family="Arial,Arial_MSFontService,sans-serif" font-size="56.6167" x="2620.87" y="1738.26">𝑛0</text><path d="M2641.02 742.097C2642.73 742.097 2644.07 742.658 2645.06 743.779 2646.04 744.9 2646.54 746.366 2646.54 748.176 2646.54 749.608 2646.21 751.202 2645.56 752.958L2646.05 753.121C2648.7 749.392 2651.22 746.629 2653.61 744.833 2656 743.036 2658.46 742.138 2661 742.138 2663.52 742.138 2665.45 742.86 2666.8 744.306 2668.15 745.751 2668.83 747.758 2668.83 750.324 2668.83 752.026 2668.43 754.445 2667.65 757.579L2665.02 768.197C2664.29 771.142 2663.92 773.222 2663.92 774.438 2663.92 775.519 2664.1 776.302 2664.45 776.789 2664.8 777.275 2665.35 777.518 2666.11 777.518 2666.92 777.518 2667.79 777.187 2668.7 776.525 2669.62 775.863 2670.92 774.6 2672.6 772.736L2674.91 775.005C2672.58 777.491 2670.56 779.308 2668.83 780.456 2667.1 781.605 2665.12 782.179 2662.91 782.179 2661.15 782.179 2659.75 781.551 2658.69 780.294 2657.64 779.038 2657.11 777.437 2657.11 775.492 2657.11 773.736 2657.56 771.155 2658.45 767.751L2660.23 760.74C2660.88 758.2 2661.31 756.322 2661.51 755.106 2661.71 753.891 2661.81 752.904 2661.81 752.148 2661.81 750.284 2661.5 748.94 2660.88 748.115 2660.26 747.291 2659.25 746.879 2657.84 746.879 2656.71 746.879 2655.49 747.332 2654.18 748.237 2652.87 749.142 2651.47 750.507 2650 752.33 2648.53 754.154 2647.35 755.924 2646.46 757.639 2645.56 759.355 2644.83 761.469 2644.27 763.982L2640.42 781.53 2633.41 781.53 2639.32 755.836C2639.92 753.242 2640.21 751.243 2640.21 749.838 2640.21 748.757 2640.04 747.974 2639.69 747.487 2639.34 747.001 2638.78 746.758 2638.03 746.758 2637.19 746.758 2636.3 747.102 2635.37 747.791 2634.44 748.48 2633.16 749.73 2631.54 751.54L2629.23 749.271C2631.72 746.677 2633.78 744.833 2635.43 743.739 2637.08 742.644 2638.94 742.097 2641.02 742.097ZM2702.44 725.562 2704.67 725.562C2704.51 728.156 2704.42 731.749 2704.42 736.342L2704.42 770.953C2704.42 772.52 2704.51 773.702 2704.69 774.499 2704.86 775.296 2705.17 775.944 2705.62 776.444 2706.07 776.944 2706.71 777.336 2707.55 777.619 2708.38 777.903 2709.44 778.119 2710.71 778.268 2711.98 778.416 2713.65 778.518 2715.73 778.572L2715.73 781.53 2685.78 781.53 2685.78 778.572C2688.78 778.437 2690.92 778.254 2692.21 778.025 2693.49 777.795 2694.47 777.451 2695.14 776.991 2695.82 776.532 2696.31 775.883 2696.62 775.046 2696.93 774.208 2697.09 772.844 2697.09 770.953L2697.09 738.085C2697.09 737.004 2696.9 736.214 2696.52 735.714 2696.14 735.214 2695.59 734.964 2694.86 734.964 2694 734.964 2692.77 735.41 2691.17 736.302 2689.58 737.193 2687.61 738.423 2685.26 739.99L2683.47 736.869Z" fill-rule="evenodd"/><text fill="#000000" fill-opacity="0" font-family="Arial,Arial_MSFontService,sans-serif" font-size="56.6167" x="2629.23" y="775.102">𝑛1</text><path d="M3230.87 1705.22C3232.57 1705.22 3233.91 1705.78 3234.9 1706.9 3235.89 1708.02 3236.38 1709.49 3236.38 1711.3 3236.38 1712.73 3236.06 1714.32 3235.41 1716.08L3235.89 1716.24C3238.54 1712.51 3241.06 1709.75 3243.45 1707.95 3245.84 1706.16 3248.31 1705.26 3250.85 1705.26 3253.36 1705.26 3255.29 1705.98 3256.64 1707.43 3257.99 1708.87 3258.67 1710.88 3258.67 1713.45 3258.67 1715.15 3258.28 1717.57 3257.49 1720.7L3254.86 1731.32C3254.13 1734.26 3253.77 1736.34 3253.77 1737.56 3253.77 1738.64 3253.94 1739.42 3254.29 1739.91 3254.64 1740.4 3255.2 1740.64 3255.95 1740.64 3256.77 1740.64 3257.63 1740.31 3258.55 1739.65 3259.47 1738.99 3260.76 1737.72 3262.44 1735.86L3264.75 1738.13C3262.43 1740.61 3260.4 1742.43 3258.67 1743.58 3256.94 1744.73 3254.97 1745.3 3252.75 1745.3 3251 1745.3 3249.59 1744.67 3248.54 1743.42 3247.48 1742.16 3246.96 1740.56 3246.96 1738.61 3246.96 1736.86 3247.4 1734.28 3248.29 1730.87L3250.08 1723.86C3250.73 1721.32 3251.15 1719.44 3251.35 1718.23 3251.56 1717.01 3251.66 1716.03 3251.66 1715.27 3251.66 1713.41 3251.35 1712.06 3250.73 1711.24 3250.11 1710.41 3249.09 1710 3247.69 1710 3246.55 1710 3245.33 1710.45 3244.02 1711.36 3242.71 1712.26 3241.32 1713.63 3239.84 1715.45 3238.37 1717.28 3237.19 1719.05 3236.3 1720.76 3235.41 1722.48 3234.68 1724.59 3234.11 1727.1L3230.26 1744.65 3223.25 1744.65 3229.17 1718.96C3229.76 1716.36 3230.06 1714.36 3230.06 1712.96 3230.06 1711.88 3229.88 1711.1 3229.53 1710.61 3229.18 1710.12 3228.63 1709.88 3227.87 1709.88 3227.03 1709.88 3226.15 1710.22 3225.21 1710.91 3224.28 1711.6 3223.01 1712.85 3221.38 1714.66L3219.07 1712.39C3221.56 1709.8 3223.63 1707.95 3225.28 1706.86 3226.92 1705.77 3228.79 1705.22 3230.87 1705.22ZM3289.41 1688.68C3294.43 1688.68 3298.23 1689.79 3300.79 1691.99 3303.36 1694.19 3304.64 1697.38 3304.64 1701.57 3304.64 1703 3304.5 1704.32 3304.22 1705.52 3303.93 1706.73 3303.49 1707.91 3302.88 1709.09 3302.27 1710.27 3301.46 1711.53 3300.43 1712.88 3299.4 1714.23 3298.27 1715.6 3297.02 1716.99 3295.78 1718.38 3293.63 1720.7 3290.58 1723.94 3285.45 1729.37 3281.68 1734.12 3279.27 1738.17L3294.55 1738.17C3295.88 1738.17 3296.94 1738.09 3297.75 1737.92 3298.56 1737.76 3299.21 1737.49 3299.7 1737.11 3300.19 1736.74 3300.57 1736.24 3300.85 1735.64 3301.14 1735.03 3301.5 1734.09 3301.93 1732.82L3305.37 1732.82 3304.68 1744.65 3271.33 1744.65 3271.33 1742.71C3272.49 1739.87 3274.06 1736.97 3276.03 1733.99 3278 1731.02 3280.8 1727.52 3284.42 1723.5 3287.55 1720.04 3289.81 1717.42 3291.19 1715.63 3292.7 1713.69 3293.83 1712.01 3294.57 1710.59 3295.32 1709.17 3295.85 1707.83 3296.17 1706.58 3296.5 1705.32 3296.66 1704.06 3296.66 1702.79 3296.66 1700.76 3296.34 1698.97 3295.69 1697.42 3295.04 1695.86 3294.05 1694.64 3292.71 1693.75 3291.37 1692.86 3289.69 1692.41 3287.66 1692.41 3282.61 1692.41 3279.21 1695.22 3277.45 1700.84L3272.55 1700.84 3272.55 1693.06C3275.82 1691.52 3278.88 1690.41 3281.73 1689.72 3284.58 1689.03 3287.14 1688.68 3289.41 1688.68Z" fill-rule="evenodd"/><text fill="#000000" fill-opacity="0" font-family="Arial,Arial_MSFontService,sans-serif" font-size="56.6167" x="3219.07" y="1738.22">𝑛2</text><path d="M3230.87 742.097C3232.57 742.097 3233.91 742.658 3234.9 743.779 3235.89 744.9 3236.38 746.366 3236.38 748.176 3236.38 749.608 3236.06 751.202 3235.41 752.958L3235.89 753.121C3238.54 749.392 3241.06 746.629 3243.45 744.833 3245.84 743.036 3248.31 742.138 3250.85 742.138 3253.36 742.138 3255.29 742.86 3256.64 744.306 3257.99 745.751 3258.67 747.758 3258.67 750.324 3258.67 752.026 3258.28 754.445 3257.49 757.579L3254.86 768.197C3254.13 771.142 3253.77 773.222 3253.77 774.438 3253.77 775.519 3253.94 776.302 3254.29 776.789 3254.64 777.275 3255.2 777.518 3255.95 777.518 3256.77 777.518 3257.63 777.187 3258.55 776.525 3259.47 775.863 3260.76 774.6 3262.44 772.736L3264.75 775.005C3262.43 777.491 3260.4 779.308 3258.67 780.456 3256.94 781.605 3254.97 782.179 3252.75 782.179 3251 782.179 3249.59 781.551 3248.54 780.294 3247.48 779.038 3246.96 777.437 3246.96 775.492 3246.96 773.736 3247.4 771.155 3248.29 767.751L3250.08 760.74C3250.73 758.2 3251.15 756.322 3251.35 755.106 3251.56 753.891 3251.66 752.904 3251.66 752.148 3251.66 750.284 3251.35 748.94 3250.73 748.115 3250.11 747.291 3249.09 746.879 3247.69 746.879 3246.55 746.879 3245.33 747.332 3244.02 748.237 3242.71 749.142 3241.32 750.507 3239.84 752.33 3238.37 754.154 3237.19 755.924 3236.3 757.639 3235.41 759.355 3234.68 761.469 3234.11 763.982L3230.26 781.53 3223.25 781.53 3229.17 755.836C3229.76 753.242 3230.06 751.243 3230.06 749.838 3230.06 748.757 3229.88 747.974 3229.53 747.487 3229.18 747.001 3228.63 746.758 3227.87 746.758 3227.03 746.758 3226.15 747.102 3225.21 747.791 3224.28 748.48 3223.01 749.73 3221.38 751.54L3219.07 749.271C3221.56 746.677 3223.63 744.833 3225.28 743.739 3226.92 742.644 3228.79 742.097 3230.87 742.097ZM3289.24 725.562C3292.3 725.562 3294.97 726.035 3297.27 726.98 3299.56 727.926 3301.32 729.284 3302.54 731.053 3303.75 732.823 3304.36 734.937 3304.36 737.396 3304.36 739.693 3303.9 741.712 3302.98 743.455 3302.06 745.198 3300.77 746.717 3299.11 748.014 3297.45 749.311 3295.3 750.581 3292.65 751.824L3292.65 752.188C3294.3 752.486 3295.88 752.992 3297.41 753.708 3298.94 754.424 3300.29 755.35 3301.48 756.484 3302.67 757.619 3303.62 758.977 3304.34 760.557 3305.06 762.138 3305.41 763.941 3305.41 765.968 3305.41 769.102 3304.73 771.885 3303.37 774.316 3302 776.748 3299.92 778.666 3297.11 780.071 3294.3 781.476 3290.88 782.179 3286.85 782.179 3284.53 782.179 3282.02 781.915 3279.33 781.388 3276.65 780.862 3274.18 780.166 3271.94 779.301L3271.94 770.709 3276.8 770.709C3277.75 773.519 3279 775.559 3280.55 776.829 3282.1 778.099 3284.22 778.734 3286.89 778.734 3290.41 778.734 3293.06 777.775 3294.86 775.856 3296.65 773.938 3297.55 771.101 3297.55 767.346 3297.55 763.401 3296.36 760.388 3293.98 758.308 3291.61 756.228 3288.12 755.188 3283.53 755.188L3279.88 755.188 3279.88 751.621C3283.53 751.405 3286.6 750.702 3289.1 749.514 3291.6 748.325 3293.46 746.798 3294.67 744.934 3295.89 743.07 3296.5 740.976 3296.5 738.652 3296.5 735.653 3295.7 733.343 3294.11 731.722 3292.51 730.101 3290.19 729.291 3287.14 729.291 3284.6 729.291 3282.53 729.979 3280.94 731.357 3279.34 732.735 3278.17 734.843 3277.41 737.68L3272.55 737.68 3272.55 729.979C3275.68 728.493 3278.61 727.386 3281.34 726.656 3284.07 725.927 3286.7 725.562 3289.24 725.562Z" fill-rule="evenodd"/><text fill="#000000" fill-opacity="0" font-family="Arial,Arial_MSFontService,sans-serif" font-size="56.6167" x="3219.07" y="775.102">𝑛3</text><path d="M3036.36 1409.97C3033.63 1409.97 3031 1411.34 3028.48 1414.1 3025.95 1416.85 3024.01 1420.58 3022.66 1425.28 3026.47 1425.26 3029.74 1424.91 3032.47 1424.25 3035.2 1423.59 3037.29 1422.54 3038.75 1421.09 3040.21 1419.64 3040.94 1417.69 3040.94 1415.23 3040.94 1413.59 3040.55 1412.3 3039.78 1411.36 3039.01 1410.43 3037.87 1409.97 3036.36 1409.97ZM3037.82 1406.76C3041.09 1406.76 3043.54 1407.43 3045.17 1408.75 3046.81 1410.07 3047.63 1412.14 3047.63 1414.95 3047.63 1419.54 3045.47 1422.99 3041.16 1425.28 3036.85 1427.58 3030.46 1428.73 3021.97 1428.73 3021.65 1430.35 3021.49 1432.11 3021.49 1434 3021.49 1436.83 3022.04 1438.89 3023.15 1440.18 3024.26 1441.46 3026.07 1442.1 3028.58 1442.1 3031.06 1442.1 3033.31 1441.56 3035.33 1440.48 3037.34 1439.4 3039.47 1437.74 3041.71 1435.5L3044.22 1438.13C3041.6 1441.02 3038.95 1443.2 3036.26 1444.66 3033.57 1446.12 3030.44 1446.84 3026.88 1446.84 3022.96 1446.84 3019.93 1445.65 3017.78 1443.26 3015.63 1440.87 3014.56 1437.54 3014.56 1433.27 3014.56 1430.38 3015.08 1427.28 3016.12 1423.97 3017.16 1420.66 3018.73 1417.69 3020.84 1415.05 3022.95 1412.42 3025.47 1410.38 3028.42 1408.93 3031.36 1407.49 3034.5 1406.76 3037.82 1406.76ZM3074.28 1393.67C3072.42 1393.67 3070.86 1394.23 3069.6 1395.33 3068.34 1396.44 3067.33 1398.04 3066.56 1400.12 3065.79 1402.2 3065.24 1404.73 3064.92 1407.72 3064.59 1410.7 3064.43 1414.07 3064.43 1417.83 3064.43 1426.64 3065.25 1433.1 3066.88 1437.22 3068.52 1441.34 3071.05 1443.4 3074.48 1443.4 3077.75 1443.4 3080.18 1441.46 3081.76 1437.58 3083.34 1433.71 3084.13 1427.7 3084.13 1419.57 3084.13 1413.36 3083.72 1408.32 3082.91 1404.47 3082.1 1400.62 3080.97 1397.86 3079.53 1396.19 3078.08 1394.51 3076.33 1393.67 3074.28 1393.67ZM3074.48 1390.23C3080.4 1390.23 3084.8 1392.51 3087.69 1397.08 3090.59 1401.64 3092.03 1408.55 3092.03 1417.79 3092.03 1427.35 3090.48 1434.59 3087.39 1439.49 3084.3 1444.39 3079.78 1446.84 3073.83 1446.84 3068 1446.84 3063.65 1444.55 3060.8 1439.96 3057.95 1435.36 3056.53 1428.39 3056.53 1419.04 3056.53 1414.07 3056.97 1409.78 3057.85 1406.16 3058.72 1402.54 3059.95 1399.54 3061.53 1397.18 3063.11 1394.81 3065.01 1393.07 3067.23 1391.93 3069.44 1390.8 3071.86 1390.23 3074.48 1390.23Z" fill-rule="evenodd"/><text fill="#000000" fill-opacity="0" font-family="Arial,Arial_MSFontService,sans-serif" font-size="56.6167" x="3014.56" y="1439.77">𝑒0</text><path d="M2841.9 1097.22C2839.17 1097.22 2836.54 1098.6 2834.02 1101.36 2831.49 1104.11 2829.55 1107.84 2828.2 1112.54 2832.01 1112.51 2835.28 1112.17 2838.01 1111.51 2840.74 1110.85 2842.83 1109.79 2844.29 1108.35 2845.75 1106.9 2846.48 1104.95 2846.48 1102.49 2846.48 1100.84 2846.09 1099.55 2845.32 1098.62 2844.55 1097.69 2843.41 1097.22 2841.9 1097.22ZM2843.36 1094.02C2846.63 1094.02 2849.08 1094.68 2850.71 1096.01 2852.35 1097.33 2853.16 1099.4 2853.16 1102.21 2853.16 1106.8 2851.01 1110.24 2846.7 1112.54 2842.39 1114.84 2835.99 1115.99 2827.51 1115.99 2827.19 1117.61 2827.02 1119.36 2827.02 1121.25 2827.02 1124.09 2827.58 1126.15 2828.69 1127.43 2829.79 1128.72 2831.6 1129.36 2834.12 1129.36 2836.6 1129.36 2838.85 1128.82 2840.86 1127.74 2842.88 1126.66 2845.01 1125 2847.25 1122.75L2849.76 1125.39C2847.14 1128.28 2844.48 1130.45 2841.8 1131.91 2839.11 1133.37 2835.98 1134.1 2832.41 1134.1 2828.5 1134.1 2825.46 1132.91 2823.32 1130.51 2821.17 1128.12 2820.09 1124.79 2820.09 1120.52 2820.09 1117.63 2820.61 1114.53 2821.65 1111.22 2822.69 1107.91 2824.27 1104.94 2826.38 1102.31 2828.48 1099.67 2831.01 1097.63 2833.95 1096.19 2836.9 1094.74 2840.03 1094.02 2843.36 1094.02ZM2883.02 1077.48 2885.25 1077.48C2885.09 1080.08 2885.01 1083.67 2885.01 1088.27L2885.01 1122.88C2885.01 1124.44 2885.09 1125.62 2885.27 1126.42 2885.44 1127.22 2885.76 1127.87 2886.2 1128.37 2886.65 1128.87 2887.29 1129.26 2888.13 1129.54 2888.96 1129.83 2890.02 1130.04 2891.29 1130.19 2892.56 1130.34 2894.23 1130.44 2896.31 1130.49L2896.31 1133.45 2866.36 1133.45 2866.36 1130.49C2869.36 1130.36 2871.5 1130.18 2872.79 1129.95 2874.07 1129.72 2875.05 1129.37 2875.72 1128.91 2876.4 1128.45 2876.89 1127.81 2877.2 1126.97 2877.51 1126.13 2877.67 1124.77 2877.67 1122.88L2877.67 1090.01C2877.67 1088.93 2877.48 1088.14 2877.1 1087.64 2876.72 1087.14 2876.17 1086.89 2875.44 1086.89 2874.58 1086.89 2873.35 1087.33 2871.75 1088.22 2870.16 1089.12 2868.19 1090.35 2865.84 1091.91L2864.05 1088.79Z" fill-rule="evenodd"/><text fill="#000000" fill-opacity="0" font-family="Arial,Arial_MSFontService,sans-serif" font-size="56.6167" x="2820.09" y="1127.02">𝑒1</text><path d="M2768.5 1591C2768.5 1565.87 2788.87 1545.5 2814 1545.5 2839.13 1545.5 2859.5 1565.87 2859.5 1591 2859.5 1616.13 2839.13 1636.5 2814 1636.5 2788.87 1636.5 2768.5 1616.13 2768.5 1591Z" stroke="#223F59" stroke-width="4.58333" stroke-miterlimit="8" fill="#FFFFFF" fill-rule="evenodd"/><text font-family="Arial,Arial_MSFontService,sans-serif" font-weight="400" font-size="50" transform="matrix(1 0 0 1 2799.13 1609)">1</text><path d="M3143.5 1586C3143.5 1560.87 3163.87 1540.5 3189 1540.5 3214.13 1540.5 3234.5 1560.87 3234.5 1586 3234.5 1611.13 3214.13 1631.5 3189 1631.5 3163.87 1631.5 3143.5 1611.13 3143.5 1586Z" stroke="#223F59" stroke-width="4.58333" stroke-miterlimit="8" fill="#FFFFFF" fill-rule="evenodd"/><text font-family="Arial,Arial_MSFontService,sans-serif" font-weight="400" font-size="50" transform="matrix(1 0 0 1 3174.72 1604)">2</text><path d="M3144.5 1085C3144.5 1059.87 3164.87 1039.5 3190 1039.5 3215.13 1039.5 3235.5 1059.87 3235.5 1085 3235.5 1110.13 3215.13 1130.5 3190 1130.5 3164.87 1130.5 3144.5 1110.13 3144.5 1085Z" stroke="#223F59" stroke-width="4.58333" stroke-miterlimit="8" fill="#FFFFFF" fill-rule="evenodd"/><text font-family="Arial,Arial_MSFontService,sans-serif" font-weight="400" font-size="50" transform="matrix(1 0 0 1 3175.26 1103)">3</text><path d="M2693.5 1441C2693.5 1415.87 2713.87 1395.5 2739 1395.5 2764.13 1395.5 2784.5 1415.87 2784.5 1441 2784.5 1466.13 2764.13 1486.5 2739 1486.5 2713.87 1486.5 2693.5 1466.13 2693.5 1441Z" stroke="#223F59" stroke-width="4.58333" stroke-miterlimit="8" fill="#FFFFFF" fill-rule="evenodd"/><text font-family="Arial,Arial_MSFontService,sans-serif" font-weight="400" font-size="50" transform="matrix(1 0 0 1 2724.25 1459)">1</text><path d="M3073.5 899C3073.5 873.871 3093.87 853.5 3119 853.5 3144.13 853.5 3164.5 873.871 3164.5 899 3164.5 924.129 3144.13 944.5 3119 944.5 3093.87 944.5 3073.5 924.129 3073.5 899Z" stroke="#223F59" stroke-width="4.58333" stroke-miterlimit="8" fill="#FFFFFF" fill-rule="evenodd"/><text font-family="Arial,Arial_MSFontService,sans-serif" font-weight="400" font-size="50" transform="matrix(1 0 0 1 3104.37 917)">2</text><path d="M2693.5 896C2693.5 870.871 2713.87 850.5 2739 850.5 2764.13 850.5 2784.5 870.871 2784.5 896 2784.5 921.129 2764.13 941.5 2739 941.5 2713.87 941.5 2693.5 921.129 2693.5 896Z" stroke="#223F59" stroke-width="4.58333" stroke-miterlimit="8" fill="#FFFFFF" fill-rule="evenodd"/><text font-family="Arial,Arial_MSFontService,sans-serif" font-weight="400" font-size="50" transform="matrix(1 0 0 1 2724.25 914)">3</text></g></svg>